Domine-Regular.ufo
<glyph name="exclam" format="1">
  <advance width="285"/>
  <unicode hex="0021"/>
  <outline>
    <contour>
      <point x="170" y="205" type="line"/>
      <point x="170" y="308"/>
      <point x="182" y="452"/>
      <point x="186" y="500" type="curve" smooth="yes"/>
      <point x="190" y="549"/>
      <point x="199" y="595"/>
      <point x="199" y="651" type="curve" smooth="yes"/>
      <point x="199" y="694"/>
      <point x="185" y="730"/>
      <point x="144" y="730" type="curve" smooth="yes"/>
      <point x="104" y="730"/>
      <point x="85" y="697"/>
      <point x="85" y="650" type="curve" smooth="yes"/>
      <point x="85" y="595"/>
      <point x="94" y="549"/>
      <point x="98" y="500" type="curve" smooth="yes"/>
      <point x="102" y="452"/>
      <point x="114" y="308"/>
      <point x="114" y="205" type="curve"/>
    </contour>
    <contour>
      <point x="204" y="52" type="curve" smooth="yes"/>
      <point x="204" y="91"/>
      <point x="181" y="115"/>
      <point x="142" y="115" type="curve" smooth="yes"/>
      <point x="103" y="115"/>
      <point x="80" y="90"/>
      <point x="80" y="52" type="curve" smooth="yes"/>
      <point x="80" y="13"/>
      <point x="104" y="-10"/>
      <point x="143" y="-10" type="curve" smooth="yes"/>
      <point x="181" y="-10"/>
      <point x="204" y="12"/>
    </contour>
  </outline>
</glyph>
<glyph name="quotedbl" format="1">
  <advance width="377"/>
  <unicode hex="0022"/>
  <outline>
    <contour>
      <point x="128" y="485" type="line"/>
      <point x="128" y="574"/>
      <point x="154" y="666"/>
      <point x="154" y="704" type="curve" smooth="yes"/>
      <point x="154" y="738"/>
      <point x="142" y="760"/>
      <point x="105" y="760" type="curve" smooth="yes"/>
      <point x="67" y="760"/>
      <point x="55" y="737"/>
      <point x="55" y="704" type="curve" smooth="yes"/>
      <point x="55" y="666"/>
      <point x="81" y="574"/>
      <point x="81" y="485" type="curve"/>
    </contour>
    <contour>
      <point x="296" y="485" type="line"/>
      <point x="296" y="574"/>
      <point x="322" y="666"/>
      <point x="322" y="704" type="curve" smooth="yes"/>
      <point x="322" y="738"/>
      <point x="310" y="760"/>
      <point x="273" y="760" type="curve" smooth="yes"/>
      <point x="235" y="760"/>
      <point x="223" y="737"/>
      <point x="223" y="704" type="curve" smooth="yes"/>
      <point x="223" y="666"/>
      <point x="249" y="574"/>
      <point x="249" y="485" type="curve"/>
    </contour>
  </outline>
</glyph>
<glyph name="numbersign" format="2">
  <advance width="736"/>
  <unicode hex="0023"/>
  <outline>
    <contour>
      <point x="398" y="-10" type="line"/>
      <point x="455" y="-10" type="line"/>
      <point x="497" y="202" type="line"/>
      <point x="652" y="202" type="line"/>
      <point x="652" y="255" type="line"/>
      <point x="507" y="255" type="line"/>
      <point x="548" y="461" type="line"/>
      <point x="701" y="461" type="line"/>
      <point x="701" y="514" type="line"/>
      <point x="558" y="514" type="line"/>
      <point x="601" y="730" type="line"/>
      <point x="544" y="730" type="line"/>
      <point x="501" y="514" type="line"/>
      <point x="298" y="514" type="line"/>
      <point x="341" y="730" type="line"/>
      <point x="284" y="730" type="line"/>
      <point x="241" y="514" type="line"/>
      <point x="84" y="514" type="line"/>
      <point x="84" y="461" type="line"/>
      <point x="231" y="461" type="line"/>
      <point x="190" y="255" type="line"/>
      <point x="35" y="255" type="line"/>
      <point x="35" y="202" type="line"/>
      <point x="180" y="202" type="line"/>
      <point x="138" y="-10" type="line"/>
      <point x="195" y="-10" type="line"/>
      <point x="237" y="202" type="line"/>
      <point x="440" y="202" type="line"/>
    </contour>
    <contour>
      <point x="288" y="461" type="line"/>
      <point x="491" y="461" type="line"/>
      <point x="450" y="255" type="line"/>
      <point x="247" y="255" type="line"/>
    </contour>
  </outline>
</glyph>
<glyph name="dollar" format="1">
  <advance width="568"/>
  <unicode hex="0024"/>
  <outline>
    <contour>
      <point x="263" y="-130" type="line"/>
      <point x="310" y="-130" type="line"/>
      <point x="310" y="-10" type="line"/>
      <point x="444" y="-4"/>
      <point x="531" y="69"/>
      <point x="531" y="193" type="curve" smooth="yes"/>
      <point x="531" y="307"/>
      <point x="457" y="343"/>
      <point x="310" y="410" type="curve"/>
      <point x="310" y="675" type="line"/>
      <point x="362" y="670"/>
      <point x="399" y="648"/>
      <point x="424" y="606" type="curve"/>
      <point x="403" y="596"/>
      <point x="388" y="574"/>
      <point x="388" y="548" type="curve" smooth="yes"/>
      <point x="388" y="515"/>
      <point x="412" y="493"/>
      <point x="445" y="493" type="curve" smooth="yes"/>
      <point x="482" y="493"/>
      <point x="505" y="521"/>
      <point x="505" y="564" type="curve" smooth="yes"/>
      <point x="505" y="640"/>
      <point x="429" y="716"/>
      <point x="310" y="729" type="curve"/>
      <point x="310" y="851" type="line"/>
      <point x="263" y="851" type="line"/>
      <point x="263" y="731" type="line"/>
      <point x="136" y="726"/>
      <point x="53" y="650"/>
      <point x="53" y="532" type="curve" smooth="yes"/>
      <point x="53" y="404"/>
      <point x="151" y="358"/>
      <point x="247" y="318" type="curve" smooth="yes"/>
      <point x="252" y="316"/>
      <point x="257" y="313"/>
      <point x="263" y="311" type="curve"/>
      <point x="263" y="44" type="line"/>
      <point x="194" y="48"/>
      <point x="149" y="77"/>
      <point x="121" y="115" type="curve"/>
      <point x="142" y="126"/>
      <point x="163" y="149"/>
      <point x="163" y="179" type="curve" smooth="yes"/>
      <point x="163" y="210"/>
      <point x="141" y="233"/>
      <point x="105" y="233" type="curve" smooth="yes"/>
      <point x="64" y="233"/>
      <point x="41" y="205"/>
      <point x="41" y="162" type="curve" smooth="yes"/>
      <point x="41" y="80"/>
      <point x="124" y="0"/>
      <point x="263" y="-10" type="curve"/>
    </contour>
    <contour>
      <point x="423" y="155" type="curve" smooth="yes"/>
      <point x="423" y="93"/>
      <point x="382" y="54"/>
      <point x="310" y="45" type="curve"/>
      <point x="310" y="290" type="line"/>
      <point x="374" y="260"/>
      <point x="423" y="223"/>
    </contour>
    <contour>
      <point x="154" y="557" type="curve" smooth="yes"/>
      <point x="154" y="626"/>
      <point x="189" y="668"/>
      <point x="263" y="675" type="curve"/>
      <point x="263" y="431" type="line"/>
      <point x="188" y="466"/>
      <point x="154" y="491"/>
    </contour>
  </outline>
</glyph>
<glyph name="ampersand" format="1">
  <advance width="767"/>
  <unicode hex="0026"/>
  <outline>
    <contour>
      <point x="705" y="344" type="line"/>
      <point x="705" y="385" type="line"/>
      <point x="496" y="385" type="line"/>
      <point x="496" y="344" type="line"/>
      <point x="573" y="325" type="line"/>
      <point x="573" y="256"/>
      <point x="554" y="191"/>
      <point x="519" y="141" type="curve"/>
      <point x="332" y="384" type="line"/>
      <point x="444" y="443"/>
      <point x="501" y="512"/>
      <point x="501" y="587" type="curve" smooth="yes"/>
      <point x="501" y="669"/>
      <point x="432" y="728"/>
      <point x="338" y="728" type="curve" smooth="yes"/>
      <point x="235" y="728"/>
      <point x="164" y="657"/>
      <point x="164" y="553" type="curve" smooth="yes"/>
      <point x="164" y="500"/>
      <point x="182" y="445"/>
      <point x="219" y="386" type="curve"/>
      <point x="108" y="325"/>
      <point x="66" y="270"/>
      <point x="66" y="188" type="curve" smooth="yes"/>
      <point x="66" y="65"/>
      <point x="164" y="-10"/>
      <point x="326" y="-10" type="curve" smooth="yes"/>
      <point x="400" y="-10"/>
      <point x="456" y="6"/>
      <point x="505" y="40" type="curve"/>
      <point x="544" y="7"/>
      <point x="588" y="-10"/>
      <point x="635" y="-10" type="curve" smooth="yes"/>
      <point x="688" y="-10"/>
      <point x="732" y="11"/>
      <point x="760" y="51" type="curve"/>
      <point x="734" y="88" type="line"/>
      <point x="714" y="62"/>
      <point x="678" y="44"/>
      <point x="646" y="44" type="curve" smooth="yes"/>
      <point x="610" y="44"/>
      <point x="574" y="65"/>
      <point x="561" y="93" type="curve"/>
      <point x="603" y="155"/>
      <point x="629" y="244"/>
      <point x="629" y="325" type="curve"/>
    </contour>
    <contour>
      <point x="338" y="48" type="curve" smooth="yes"/>
      <point x="228" y="48"/>
      <point x="166" y="99"/>
      <point x="166" y="189" type="curve" smooth="yes"/>
      <point x="166" y="255"/>
      <point x="200" y="313"/>
      <point x="256" y="343" type="curve"/>
      <point x="460" y="82" type="line"/>
      <point x="425" y="58"/>
      <point x="388" y="48"/>
    </contour>
    <contour>
      <point x="249" y="576" type="curve" smooth="yes"/>
      <point x="249" y="641"/>
      <point x="279" y="675"/>
      <point x="334" y="675" type="curve" smooth="yes"/>
      <point x="392" y="675"/>
      <point x="432" y="637"/>
      <point x="432" y="582" type="curve" smooth="yes"/>
      <point x="432" y="527"/>
      <point x="392" y="482"/>
      <point x="298" y="430" type="curve"/>
      <point x="264" y="483"/>
      <point x="249" y="529"/>
    </contour>
  </outline>
</glyph>
<glyph name="parenleft" format="1">
  <advance width="371"/>
  <unicode hex="0028"/>
  <outline>
    <contour>
      <point x="44" y="353" type="curve" smooth="yes"/>
      <point x="44" y="616"/>
      <point x="162" y="821"/>
      <point x="339" y="865" type="curve"/>
      <point x="360" y="816" type="line"/>
      <point x="231" y="786"/>
      <point x="145" y="600"/>
      <point x="145" y="351" type="curve" smooth="yes"/>
      <point x="145" y="98"/>
      <point x="229" y="-78"/>
      <point x="355" y="-104" type="curve"/>
      <point x="329" y="-159" type="line"/>
      <point x="162" y="-125"/>
      <point x="44" y="75"/>
    </contour>
  </outline>
</glyph>
<glyph name="parenright" format="1">
  <advance width="371"/>
  <unicode hex="0029"/>
  <outline>
    <contour>
      <point x="327" y="353" type="curve"/>
      <point x="327" y="75"/>
      <point x="209" y="-125"/>
      <point x="42" y="-159" type="curve"/>
      <point x="16" y="-104" type="line"/>
      <point x="142" y="-78"/>
      <point x="226" y="98"/>
      <point x="226" y="351" type="curve" smooth="yes"/>
      <point x="226" y="600"/>
      <point x="140" y="786"/>
      <point x="11" y="816" type="curve"/>
      <point x="32" y="865" type="line"/>
      <point x="209" y="821"/>
      <point x="327" y="616"/>
    </contour>
  </outline>
</glyph>
<glyph name="asterisk" format="2">
  <advance width="470"/>
  <unicode hex="002A"/>
  <outline>
    <contour>
      <point x="274" y="743" type="curve" smooth="yes"/>
      <point x="274" y="772"/>
      <point x="260" y="790"/>
      <point x="234" y="790" type="curve" smooth="yes"/>
      <point x="207" y="790"/>
      <point x="194" y="771"/>
      <point x="194" y="743" type="curve" smooth="yes"/>
      <point x="194" y="711"/>
      <point x="210" y="666"/>
      <point x="216" y="625" type="curve"/>
      <point x="172" y="647"/>
      <point x="117" y="684"/>
      <point x="89" y="684" type="curve" smooth="yes"/>
      <point x="71" y="684"/>
      <point x="51" y="672"/>
      <point x="51" y="642" type="curve" smooth="yes"/>
      <point x="51" y="605"/>
      <point x="93" y="601"/>
      <point x="140" y="599" type="curve" smooth="yes"/>
      <point x="162" y="598"/>
      <point x="186" y="597"/>
      <point x="207" y="594" type="curve"/>
      <point x="163" y="550"/>
      <point x="106" y="505"/>
      <point x="106" y="472" type="curve" smooth="yes"/>
      <point x="106" y="454"/>
      <point x="126" y="435"/>
      <point x="146" y="435" type="curve" smooth="yes"/>
      <point x="191" y="435"/>
      <point x="205" y="514"/>
      <point x="235" y="574" type="curve"/>
      <point x="264" y="517"/>
      <point x="281" y="436"/>
      <point x="325" y="436" type="curve" smooth="yes"/>
      <point x="346" y="436"/>
      <point x="365" y="456"/>
      <point x="365" y="473" type="curve" smooth="yes"/>
      <point x="365" y="509"/>
      <point x="305" y="551"/>
      <point x="262" y="594" type="curve"/>
      <point x="289" y="598"/>
      <point x="320" y="598"/>
      <point x="347" y="600" type="curve" smooth="yes"/>
      <point x="387" y="603"/>
      <point x="419" y="611"/>
      <point x="419" y="644" type="curve" smooth="yes"/>
      <point x="419" y="674"/>
      <point x="397" y="685"/>
      <point x="380" y="685" type="curve" smooth="yes"/>
      <point x="348" y="685"/>
      <point x="298" y="648"/>
      <point x="252" y="624" type="curve"/>
      <point x="258" y="662"/>
      <point x="274" y="711"/>
    </contour>
  </outline>
</glyph>
<glyph name="plus" format="2">
  <advance width="488"/>
  <unicode hex="002B"/>
  <outline>
    <contour>
      <point x="45" y="328" type="line"/>
      <point x="210" y="328" type="line"/>
      <point x="210" y="163" type="line"/>
      <point x="278" y="163" type="line"/>
      <point x="278" y="328" type="line"/>
      <point x="443" y="328" type="line"/>
      <point x="443" y="396" type="line"/>
      <point x="278" y="396" type="line"/>
      <point x="278" y="561" type="line"/>
      <point x="210" y="561" type="line"/>
      <point x="210" y="396" type="line"/>
      <point x="45" y="396" type="line"/>
    </contour>
  </outline>
</glyph>
<glyph name="comma" format="2">
  <advance width="247"/>
  <unicode hex="002C"/>
  <outline>
    <contour>
      <point x="121" y="118" type="curve" smooth="yes"/>
      <point x="82" y="118"/>
      <point x="56" y="91"/>
      <point x="56" y="53" type="curve" smooth="yes"/>
      <point x="56" y="17"/>
      <point x="78" y="-9"/>
      <point x="108" y="-9" type="curve" smooth="yes"/>
      <point x="119" y="-9"/>
      <point x="130" y="-5"/>
      <point x="133" y="0" type="curve"/>
      <point x="137" y="-3" type="line"/>
      <point x="134" y="-35"/>
      <point x="101" y="-78"/>
      <point x="44" y="-124" type="curve"/>
      <point x="66" y="-149" type="line"/>
      <point x="151" y="-95"/>
      <point x="190" y="-37"/>
      <point x="190" y="35" type="curve" smooth="yes"/>
      <point x="190" y="86"/>
      <point x="163" y="118"/>
    </contour>
  </outline>
</glyph>
<glyph name="hyphen" format="2">
  <advance width="389"/>
  <unicode hex="002D"/>
  <outline>
    <contour>
      <point x="69" y="244" type="line"/>
      <point x="320" y="244" type="line"/>
      <point x="320" y="311" type="line"/>
      <point x="69" y="311" type="line"/>
    </contour>
  </outline>
</glyph>
<glyph name="period" format="2">
  <advance width="240"/>
  <unicode hex="002E"/>
  <outline>
    <contour>
      <point x="57" y="53" type="curve" smooth="yes"/>
      <point x="57" y="13"/>
      <point x="80" y="-10"/>
      <point x="120" y="-10" type="curve" smooth="yes"/>
      <point x="159" y="-10"/>
      <point x="184" y="14"/>
      <point x="184" y="53" type="curve" smooth="yes"/>
      <point x="184" y="92"/>
      <point x="159" y="118"/>
      <point x="120" y="118" type="curve" smooth="yes"/>
      <point x="81" y="118"/>
      <point x="57" y="93"/>
    </contour>
  </outline>
</glyph>
<glyph name="slash" format="1">
  <advance width="310"/>
  <unicode hex="002F"/>
  <outline>
    <contour>
      <point x="54" y="-10" type="line"/>
      <point x="111" y="-10" type="line"/>
      <point x="257" y="730" type="line"/>
      <point x="200" y="730" type="line"/>
    </contour>
  </outline>
</glyph>
<glyph name="zero" format="2">
  <advance width="674"/>
  <unicode hex="0030"/>
  <outline>
    <contour>
      <point x="57" y="360" type="curve" smooth="yes"/>
      <point x="57" y="232"/>
      <point x="86" y="133"/>
      <point x="140" y="68" type="curve" smooth="yes"/>
      <point x="188" y="10"/>
      <point x="247" y="-10"/>
      <point x="337" y="-10" type="curve" smooth="yes"/>
      <point x="427" y="-10"/>
      <point x="486" y="10"/>
      <point x="534" y="68" type="curve" smooth="yes"/>
      <point x="588" y="133"/>
      <point x="617" y="232"/>
      <point x="617" y="360" type="curve" smooth="yes"/>
      <point x="617" y="488"/>
      <point x="588" y="587"/>
      <point x="534" y="652" type="curve" smooth="yes"/>
      <point x="486" y="710"/>
      <point x="427" y="730"/>
      <point x="337" y="730" type="curve" smooth="yes"/>
      <point x="247" y="730"/>
      <point x="188" y="710"/>
      <point x="140" y="652" type="curve" smooth="yes"/>
      <point x="86" y="587"/>
      <point x="57" y="488"/>
    </contour>
    <contour>
      <point x="505" y="360" type="curve" smooth="yes"/>
      <point x="505" y="244"/>
      <point x="491" y="159"/>
      <point x="460" y="107" type="curve" smooth="yes"/>
      <point x="435" y="65"/>
      <point x="400" y="44"/>
      <point x="337" y="44" type="curve" smooth="yes"/>
      <point x="274" y="44"/>
      <point x="239" y="65"/>
      <point x="214" y="107" type="curve" smooth="yes"/>
      <point x="183" y="159"/>
      <point x="169" y="244"/>
      <point x="169" y="360" type="curve" smooth="yes"/>
      <point x="169" y="476"/>
      <point x="183" y="561"/>
      <point x="214" y="613" type="curve" smooth="yes"/>
      <point x="239" y="655"/>
      <point x="274" y="676"/>
      <point x="337" y="676" type="curve" smooth="yes"/>
      <point x="400" y="676"/>
      <point x="435" y="655"/>
      <point x="460" y="613" type="curve" smooth="yes"/>
      <point x="491" y="561"/>
      <point x="505" y="476"/>
    </contour>
  </outline>
</glyph>
<glyph name="one" format="1">
  <advance width="400"/>
  <unicode hex="0031"/>
  <outline>
    <contour>
      <point x="172" y="60" type="line"/>
      <point x="45" y="41" type="line"/>
      <point x="45" y="0" type="line"/>
      <point x="376" y="0" type="line"/>
      <point x="376" y="41" type="line"/>
      <point x="269" y="60" type="line"/>
      <point x="269" y="730" type="line"/>
      <point x="201" y="730" type="line"/>
      <point x="178" y="700"/>
      <point x="93" y="684"/>
      <point x="45" y="684" type="curve"/>
      <point x="45" y="633" type="line"/>
      <point x="172" y="633" type="line"/>
    </contour>
  </outline>
</glyph>
<glyph name="two" format="1">
  <advance width="589"/>
  <unicode hex="0032"/>
  <outline>
    <contour>
      <point x="132" y="95" type="line"/>
      <point x="132" y="240"/>
      <point x="517" y="291"/>
      <point x="517" y="537" type="curve" smooth="yes"/>
      <point x="517" y="655"/>
      <point x="428" y="731"/>
      <point x="292" y="731" type="curve" smooth="yes"/>
      <point x="155" y="731"/>
      <point x="64" y="655"/>
      <point x="64" y="541" type="curve" smooth="yes"/>
      <point x="64" y="485"/>
      <point x="86" y="458"/>
      <point x="131" y="458" type="curve" smooth="yes"/>
      <point x="172" y="458"/>
      <point x="196" y="481"/>
      <point x="196" y="519" type="curve" smooth="yes"/>
      <point x="196" y="557"/>
      <point x="172" y="580"/>
      <point x="130" y="580" type="curve"/>
      <point x="144" y="645"/>
      <point x="191" y="677"/>
      <point x="272" y="677" type="curve" smooth="yes"/>
      <point x="365" y="677"/>
      <point x="416" y="636"/>
      <point x="416" y="562" type="curve" smooth="yes"/>
      <point x="416" y="362"/>
      <point x="51" y="276"/>
      <point x="51" y="66" type="curve" smooth="yes"/>
      <point x="51" y="0" type="line"/>
      <point x="526" y="0" type="line"/>
      <point x="526" y="223" type="line"/>
      <point x="471" y="223" type="line"/>
      <point x="447" y="95" type="line"/>
    </contour>
  </outline>
</glyph>
<glyph name="three" format="2">
  <advance width="580"/>
  <unicode hex="0033"/>
  <outline>
    <contour>
      <point x="511" y="543" type="curve" smooth="yes"/>
      <point x="511" y="655"/>
      <point x="420" y="731"/>
      <point x="288" y="731" type="curve" smooth="yes"/>
      <point x="154" y="731"/>
      <point x="61" y="660"/>
      <point x="61" y="557" type="curve" smooth="yes"/>
      <point x="61" y="502"/>
      <point x="89" y="468"/>
      <point x="135" y="468" type="curve" smooth="yes"/>
      <point x="174" y="468"/>
      <point x="199" y="492"/>
      <point x="199" y="530" type="curve" smooth="yes"/>
      <point x="199" y="568"/>
      <point x="174" y="590"/>
      <point x="133" y="590" type="curve"/>
      <point x="144" y="648"/>
      <point x="193" y="677"/>
      <point x="277" y="677" type="curve" smooth="yes"/>
      <point x="363" y="677"/>
      <point x="411" y="634"/>
      <point x="411" y="557" type="curve" smooth="yes"/>
      <point x="411" y="461"/>
      <point x="339" y="397"/>
      <point x="232" y="397" type="curve"/>
      <point x="232" y="349" type="line"/>
      <point x="345" y="349"/>
      <point x="414" y="284"/>
      <point x="414" y="182" type="curve" smooth="yes"/>
      <point x="414" y="92"/>
      <point x="364" y="44"/>
      <point x="266" y="44" type="curve" smooth="yes"/>
      <point x="181" y="44"/>
      <point x="131" y="77"/>
      <point x="119" y="141" type="curve"/>
      <point x="159" y="141"/>
      <point x="185" y="165"/>
      <point x="185" y="201" type="curve" smooth="yes"/>
      <point x="185" y="239"/>
      <point x="161" y="263"/>
      <point x="123" y="263" type="curve" smooth="yes"/>
      <point x="76" y="263"/>
      <point x="53" y="235"/>
      <point x="53" y="178" type="curve" smooth="yes"/>
      <point x="53" y="67"/>
      <point x="145" y="-10"/>
      <point x="278" y="-10" type="curve" smooth="yes"/>
      <point x="424" y="-10"/>
      <point x="522" y="73"/>
      <point x="522" y="195" type="curve" smooth="yes"/>
      <point x="522" y="292"/>
      <point x="472" y="350"/>
      <point x="369" y="372" type="curve"/>
      <point x="369" y="376" type="line"/>
      <point x="457" y="391"/>
      <point x="511" y="455"/>
    </contour>
  </outline>
</glyph>
<glyph name="four" format="2">
  <advance width="559"/>
  <unicode hex="0034"/>
  <outline>
    <contour>
      <point x="321" y="60" type="line"/>
      <point x="224" y="41" type="line"/>
      <point x="224" y="0" type="line"/>
      <point x="495" y="0" type="line"/>
      <point x="495" y="41" type="line"/>
      <point x="418" y="60" type="line"/>
      <point x="418" y="213" type="line"/>
      <point x="517" y="213" type="line"/>
      <point x="527" y="270" type="line"/>
      <point x="418" y="270" type="line"/>
      <point x="418" y="730" type="line"/>
      <point x="339" y="730" type="line"/>
      <point x="18" y="257" type="line"/>
      <point x="29" y="213" type="line"/>
      <point x="321" y="213" type="line"/>
    </contour>
    <contour>
      <point x="321" y="618" type="line"/>
      <point x="321" y="270" type="line"/>
      <point x="87" y="270" type="line"/>
    </contour>
  </outline>
</glyph>
<glyph name="five" format="2">
  <advance width="550"/>
  <unicode hex="0035"/>
  <outline>
    <contour>
      <point x="441" y="625" type="line"/>
      <point x="166" y="625" type="line"/>
      <point x="133" y="407" type="line"/>
      <point x="172" y="436"/>
      <point x="216" y="451"/>
      <point x="274" y="451" type="curve" smooth="yes"/>
      <point x="413" y="451"/>
      <point x="505" y="364"/>
      <point x="505" y="227" type="curve" smooth="yes"/>
      <point x="505" y="85"/>
      <point x="406" y="-10"/>
      <point x="258" y="-10" type="curve" smooth="yes"/>
      <point x="130" y="-10"/>
      <point x="45" y="66"/>
      <point x="45" y="153" type="curve" smooth="yes"/>
      <point x="45" y="213"/>
      <point x="79" y="249"/>
      <point x="119" y="249" type="curve" smooth="yes"/>
      <point x="159" y="249"/>
      <point x="179" y="221"/>
      <point x="179" y="189" type="curve" smooth="yes"/>
      <point x="179" y="157"/>
      <point x="154" y="127"/>
      <point x="112" y="127" type="curve"/>
      <point x="123" y="78"/>
      <point x="181" y="42"/>
      <point x="258" y="42" type="curve" smooth="yes"/>
      <point x="364" y="42"/>
      <point x="397" y="114"/>
      <point x="397" y="222" type="curve" smooth="yes"/>
      <point x="397" y="328"/>
      <point x="365" y="396"/>
      <point x="260" y="396" type="curve" smooth="yes"/>
      <point x="207" y="396"/>
      <point x="150" y="379"/>
      <point x="124" y="346" type="curve"/>
      <point x="76" y="366" type="line"/>
      <point x="133" y="720" type="line"/>
      <point x="421" y="720" type="line"/>
      <point x="439" y="752" type="line"/>
      <point x="481" y="752" type="line"/>
    </contour>
  </outline>
</glyph>
<glyph name="six" format="2">
  <advance width="603"/>
  <unicode hex="0036"/>
  <outline>
    <contour>
      <point x="154" y="351" type="line"/>
      <point x="152" y="368"/>
      <point x="152" y="379"/>
      <point x="152" y="398" type="curve" smooth="yes"/>
      <point x="152" y="593"/>
      <point x="204" y="676"/>
      <point x="325" y="676" type="curve" smooth="yes"/>
      <point x="399" y="676"/>
      <point x="446" y="650"/>
      <point x="456" y="601" type="curve"/>
      <point x="415" y="601"/>
      <point x="390" y="577"/>
      <point x="390" y="540" type="curve" smooth="yes"/>
      <point x="390" y="502"/>
      <point x="415" y="479"/>
      <point x="454" y="479" type="curve" smooth="yes"/>
      <point x="498" y="479"/>
      <point x="522" y="508"/>
      <point x="522" y="563" type="curve" smooth="yes"/>
      <point x="522" y="663"/>
      <point x="438" y="731"/>
      <point x="316" y="731" type="curve" smooth="yes"/>
      <point x="149" y="731"/>
      <point x="59" y="595"/>
      <point x="59" y="340" type="curve" smooth="yes"/>
      <point x="59" y="102"/>
      <point x="139" y="-10"/>
      <point x="309" y="-10" type="curve" smooth="yes"/>
      <point x="456" y="-10"/>
      <point x="548" y="74"/>
      <point x="548" y="210" type="curve" smooth="yes"/>
      <point x="548" y="342"/>
      <point x="462" y="430"/>
      <point x="335" y="430" type="curve" smooth="yes"/>
      <point x="262" y="430"/>
      <point x="195" y="400"/>
      <point x="158" y="351" type="curve"/>
    </contour>
    <contour>
      <point x="441" y="210" type="curve"/>
      <point x="441" y="101"/>
      <point x="396" y="45"/>
      <point x="308" y="45" type="curve" smooth="yes"/>
      <point x="220" y="45"/>
      <point x="175" y="101"/>
      <point x="175" y="210" type="curve" smooth="yes"/>
      <point x="175" y="318"/>
      <point x="220" y="373"/>
      <point x="308" y="373" type="curve" smooth="yes"/>
      <point x="396" y="373"/>
      <point x="441" y="318"/>
    </contour>
  </outline>
</glyph>
<glyph name="seven" format="2">
  <advance width="513"/>
  <unicode hex="0037"/>
  <outline>
    <contour>
      <point x="262" y="54" type="curve" smooth="yes"/>
      <point x="262" y="252"/>
      <point x="365" y="502"/>
      <point x="499" y="659" type="curve"/>
      <point x="499" y="720" type="line"/>
      <point x="40" y="720" type="line"/>
      <point x="40" y="508" type="line"/>
      <point x="92" y="508" type="line"/>
      <point x="111" y="625" type="line"/>
      <point x="406" y="625" type="line"/>
      <point x="275" y="472"/>
      <point x="159" y="195"/>
      <point x="159" y="55" type="curve" smooth="yes"/>
      <point x="159" y="13"/>
      <point x="173" y="-10"/>
      <point x="211" y="-10" type="curve" smooth="yes"/>
      <point x="247" y="-10"/>
      <point x="262" y="15"/>
    </contour>
  </outline>
</glyph>
<glyph name="eight" format="1">
  <advance width="572"/>
  <unicode hex="0038"/>
  <outline>
    <contour>
      <point x="486" y="571" type="curve" smooth="yes"/>
      <point x="486" y="671"/>
      <point x="414" y="731"/>
      <point x="294" y="731" type="curve" smooth="yes"/>
      <point x="164" y="731"/>
      <point x="86" y="661"/>
      <point x="86" y="546" type="curve" smooth="yes"/>
      <point x="86" y="477"/>
      <point x="114" y="431"/>
      <point x="188" y="378" type="curve"/>
      <point x="95" y="325"/>
      <point x="53" y="263"/>
      <point x="53" y="178" type="curve" smooth="yes"/>
      <point x="53" y="60"/>
      <point x="133" y="-10"/>
      <point x="269" y="-10" type="curve" smooth="yes"/>
      <point x="419" y="-10"/>
      <point x="519" y="73"/>
      <point x="519" y="198" type="curve" smooth="yes"/>
      <point x="519" y="278"/>
      <point x="476" y="335"/>
      <point x="377" y="389" type="curve"/>
      <point x="446" y="430"/>
      <point x="486" y="496"/>
    </contour>
    <contour>
      <point x="229" y="352" type="curve"/>
      <point x="377" y="273"/>
      <point x="421" y="230"/>
      <point x="421" y="167" type="curve" smooth="yes"/>
      <point x="421" y="86"/>
      <point x="369" y="44"/>
      <point x="270" y="44" type="curve" smooth="yes"/>
      <point x="171" y="44"/>
      <point x="123" y="88"/>
      <point x="123" y="179" type="curve" smooth="yes"/>
      <point x="123" y="255"/>
      <point x="156" y="309"/>
    </contour>
    <contour>
      <point x="334" y="415" type="curve"/>
      <point x="214" y="469"/>
      <point x="171" y="511"/>
      <point x="171" y="574" type="curve" smooth="yes"/>
      <point x="171" y="643"/>
      <point x="213" y="677"/>
      <point x="296" y="677" type="curve" smooth="yes"/>
      <point x="382" y="677"/>
      <point x="426" y="640"/>
      <point x="426" y="567" type="curve" smooth="yes"/>
      <point x="426" y="502"/>
      <point x="391" y="443"/>
    </contour>
  </outline>
</glyph>
<glyph name="nine" format="2">
  <advance width="603"/>
  <unicode hex="0039"/>
  <outline>
    <contour>
      <point x="449" y="370" type="line"/>
      <point x="451" y="356"/>
      <point x="451" y="347"/>
      <point x="451" y="323" type="curve" smooth="yes"/>
      <point x="451" y="124"/>
      <point x="398" y="45"/>
      <point x="264" y="45" type="curve" smooth="yes"/>
      <point x="192" y="45"/>
      <point x="152" y="70"/>
      <point x="145" y="117" type="curve"/>
      <point x="186" y="117"/>
      <point x="211" y="141"/>
      <point x="211" y="178" type="curve" smooth="yes"/>
      <point x="211" y="216"/>
      <point x="186" y="239"/>
      <point x="147" y="239" type="curve" smooth="yes"/>
      <point x="103" y="239"/>
      <point x="79" y="209"/>
      <point x="79" y="154" type="curve" smooth="yes"/>
      <point x="79" y="54"/>
      <point x="156" y="-10"/>
      <point x="276" y="-10" type="curve" smooth="yes"/>
      <point x="452" y="-10"/>
      <point x="544" y="124"/>
      <point x="544" y="380" type="curve" smooth="yes"/>
      <point x="544" y="619"/>
      <point x="464" y="731"/>
      <point x="294" y="731" type="curve" smooth="yes"/>
      <point x="147" y="731"/>
      <point x="55" y="647"/>
      <point x="55" y="511" type="curve" smooth="yes"/>
      <point x="55" y="379"/>
      <point x="141" y="291"/>
      <point x="268" y="291" type="curve" smooth="yes"/>
      <point x="341" y="291"/>
      <point x="408" y="321"/>
      <point x="445" y="370" type="curve"/>
    </contour>
    <contour>
      <point x="162" y="511" type="curve" smooth="yes"/>
      <point x="162" y="620"/>
      <point x="207" y="676"/>
      <point x="295" y="676" type="curve" smooth="yes"/>
      <point x="383" y="676"/>
      <point x="428" y="620"/>
      <point x="428" y="511" type="curve" smooth="yes"/>
      <point x="428" y="403"/>
      <point x="383" y="348"/>
      <point x="295" y="348" type="curve" smooth="yes"/>
      <point x="207" y="348"/>
      <point x="162" y="403"/>
    </contour>
  </outline>
</glyph>
<glyph name="less" format="2">
  <advance width="471"/>
  <unicode hex="003C"/>
  <outline>
    <contour>
      <point x="404" y="135" type="line"/>
      <point x="404" y="211" type="line"/>
      <point x="106" y="360" type="line"/>
      <point x="404" y="509" type="line"/>
      <point x="404" y="584" type="line"/>
      <point x="35" y="389" type="line"/>
      <point x="35" y="331" type="line"/>
    </contour>
  </outline>
</glyph>
<glyph name="equal" format="1">
  <advance width="576"/>
  <unicode hex="003D"/>
  <outline>
    <contour>
      <point x="74" y="423" type="line"/>
      <point x="502" y="423" type="line"/>
      <point x="502" y="481" type="line"/>
      <point x="74" y="481" type="line"/>
    </contour>
    <contour>
      <point x="74" y="235" type="line"/>
      <point x="502" y="235" type="line"/>
      <point x="502" y="294" type="line"/>
      <point x="74" y="294" type="line"/>
    </contour>
  </outline>
</glyph>
<glyph name="greater" format="1">
  <advance width="471"/>
  <unicode hex="003E"/>
  <outline>
    <contour>
      <point x="436" y="331" type="line"/>
      <point x="436" y="389" type="line"/>
      <point x="67" y="584" type="line"/>
      <point x="67" y="509" type="line"/>
      <point x="365" y="360" type="line"/>
      <point x="67" y="211" type="line"/>
      <point x="67" y="135" type="line"/>
    </contour>
  </outline>
</glyph>
<glyph name="question" format="2">
  <advance width="481"/>
  <unicode hex="003F"/>
  <outline>
    <contour>
      <point x="238" y="205" type="line"/>
      <point x="238" y="264"/>
      <point x="262" y="301"/>
      <point x="356" y="387" type="curve" smooth="yes"/>
      <point x="425" y="450"/>
      <point x="451" y="497"/>
      <point x="451" y="557" type="curve" smooth="yes"/>
      <point x="451" y="659"/>
      <point x="365" y="731"/>
      <point x="242" y="731" type="curve" smooth="yes"/>
      <point x="125" y="731"/>
      <point x="34" y="664"/>
      <point x="34" y="578" type="curve" smooth="yes"/>
      <point x="34" y="527"/>
      <point x="64" y="491"/>
      <point x="107" y="491" type="curve" smooth="yes"/>
      <point x="145" y="491"/>
      <point x="173" y="518"/>
      <point x="173" y="555" type="curve" smooth="yes"/>
      <point x="173" y="584"/>
      <point x="156" y="612"/>
      <point x="130" y="627" type="curve"/>
      <point x="130" y="653"/>
      <point x="179" y="676"/>
      <point x="233" y="676" type="curve" smooth="yes"/>
      <point x="308" y="676"/>
      <point x="350" y="631"/>
      <point x="350" y="551" type="curve" smooth="yes"/>
      <point x="350" y="498"/>
      <point x="332" y="459"/>
      <point x="285" y="412" type="curve" smooth="yes"/>
      <point x="205" y="332"/>
      <point x="182" y="286"/>
      <point x="182" y="205" type="curve"/>
    </contour>
    <contour>
      <point x="148" y="52" type="curve" smooth="yes"/>
      <point x="148" y="13"/>
      <point x="172" y="-10"/>
      <point x="211" y="-10" type="curve" smooth="yes"/>
      <point x="250" y="-10"/>
      <point x="272" y="13"/>
      <point x="272" y="52" type="curve" smooth="yes"/>
      <point x="272" y="91"/>
      <point x="249" y="115"/>
      <point x="210" y="115" type="curve" smooth="yes"/>
      <point x="172" y="115"/>
      <point x="148" y="91"/>
    </contour>
  </outline>
</glyph>
<glyph name="at" format="2">
  <advance width="808"/>
  <unicode hex="0040"/>
  <outline>
    <contour>
      <point x="409" y="449" type="curve" smooth="yes"/>
      <point x="287" y="449"/>
      <point x="194" y="340"/>
      <point x="194" y="196" type="curve" smooth="yes"/>
      <point x="194" y="92"/>
      <point x="245" y="34"/>
      <point x="336" y="34" type="curve" smooth="yes"/>
      <point x="396" y="34"/>
      <point x="448" y="61"/>
      <point x="479" y="107" type="curve"/>
      <point x="487" y="65"/>
      <point x="523" y="39"/>
      <point x="578" y="39" type="curve" smooth="yes"/>
      <point x="679" y="39"/>
      <point x="755" y="144"/>
      <point x="755" y="284" type="curve" smooth="yes"/>
      <point x="755" y="469"/>
      <point x="623" y="594"/>
      <point x="426" y="594" type="curve" smooth="yes"/>
      <point x="212" y="594"/>
      <point x="46" y="421"/>
      <point x="46" y="198" type="curve" smooth="yes"/>
      <point x="46" y="-9"/>
      <point x="179" y="-136"/>
      <point x="395" y="-136" type="curve" smooth="yes"/>
      <point x="494" y="-136"/>
      <point x="589" y="-110"/>
      <point x="662" y="-61" type="curve"/>
      <point x="643" y="-30" type="line"/>
      <point x="573" y="-75"/>
      <point x="488" y="-99"/>
      <point x="397" y="-99" type="curve" smooth="yes"/>
      <point x="202" y="-99"/>
      <point x="88" y="11"/>
      <point x="88" y="199" type="curve" smooth="yes"/>
      <point x="88" y="402"/>
      <point x="233" y="558"/>
      <point x="423" y="558" type="curve" smooth="yes"/>
      <point x="598" y="558"/>
      <point x="711" y="449"/>
      <point x="711" y="281" type="curve" smooth="yes"/>
      <point x="711" y="167"/>
      <point x="658" y="76"/>
      <point x="591" y="76" type="curve" smooth="yes"/>
      <point x="557" y="76"/>
      <point x="541" y="96"/>
      <point x="541" y="140" type="curve" smooth="yes"/>
      <point x="541" y="153"/>
      <point x="542" y="168"/>
      <point x="545" y="185" type="curve" smooth="yes"/>
      <point x="582" y="431" type="line"/>
      <point x="542" y="431" type="line"/>
      <point x="510" y="394" type="line"/>
      <point x="494" y="430"/>
      <point x="460" y="449"/>
    </contour>
    <contour>
      <point x="408" y="410" type="curve" smooth="yes"/>
      <point x="464" y="410"/>
      <point x="487" y="377"/>
      <point x="487" y="296" type="curve" smooth="yes"/>
      <point x="487" y="156"/>
      <point x="436" y="73"/>
      <point x="351" y="73" type="curve" smooth="yes"/>
      <point x="296" y="73"/>
      <point x="272" y="107"/>
      <point x="272" y="186" type="curve" smooth="yes"/>
      <point x="272" y="322"/>
      <point x="326" y="410"/>
    </contour>
  </outline>
</glyph>
<glyph name="A" format="1">
  <advance width="721"/>
  <unicode hex="0041"/>
  <outline>
    <contour>
      <point x="532" y="64" type="line"/>
      <point x="450" y="43" type="line"/>
      <point x="450" y="0" type="line"/>
      <point x="725" y="0" type="line"/>
      <point x="725" y="43" type="line"/>
      <point x="645" y="64" type="line"/>
      <point x="408" y="730" type="line"/>
      <point x="315" y="730" type="line"/>
      <point x="75" y="64" type="line"/>
      <point x="-7" y="43" type="line"/>
      <point x="-7" y="0" type="line"/>
      <point x="227" y="0" type="line"/>
      <point x="227" y="43" type="line"/>
      <point x="144" y="64" type="line"/>
      <point x="205" y="242" type="line"/>
      <point x="473" y="242" type="line"/>
    </contour>
    <contour>
      <point x="342" y="641" type="line"/>
      <point x="346" y="641" type="line"/>
      <point x="454" y="300" type="line"/>
      <point x="225" y="300" type="line"/>
    </contour>
    <contour>
      <point x="362" y="720" type="move" name="topcap"/>
    </contour>
    <contour>
      <point x="596" y="0" type="move" name="bottom"/>
    </contour>
  </outline>
</glyph>
<glyph name="B" format="1">
  <advance width="684"/>
  <unicode hex="0042"/>
  <outline>
    <contour>
      <point x="601" y="547" type="curve" smooth="yes"/>
      <point x="601" y="592"/>
      <point x="581" y="637"/>
      <point x="546" y="669" type="curve" smooth="yes"/>
      <point x="507" y="704"/>
      <point x="455" y="720"/>
      <point x="384" y="720" type="curve" smooth="yes"/>
      <point x="48" y="720" type="line"/>
      <point x="48" y="677" type="line"/>
      <point x="132" y="656" type="line"/>
      <point x="132" y="64" type="line"/>
      <point x="48" y="43" type="line"/>
      <point x="48" y="0" type="line"/>
      <point x="347" y="0" type="line" smooth="yes"/>
      <point x="446" y="0"/>
      <point x="494" y="8"/>
      <point x="531" y="27" type="curve" smooth="yes"/>
      <point x="591" y="57"/>
      <point x="635" y="126"/>
      <point x="635" y="201" type="curve" smooth="yes"/>
      <point x="635" y="298"/>
      <point x="571" y="368"/>
      <point x="467" y="390" type="curve"/>
      <point x="467" y="394" type="line"/>
      <point x="544" y="404"/>
      <point x="601" y="470"/>
    </contour>
    <contour>
      <point x="360" y="347" type="line" smooth="yes"/>
      <point x="418" y="347"/>
      <point x="454" y="338"/>
      <point x="478" y="318" type="curve" smooth="yes"/>
      <point x="505" y="295"/>
      <point x="524" y="256"/>
      <point x="524" y="206" type="curve" smooth="yes"/>
      <point x="524" y="146"/>
      <point x="499" y="102"/>
      <point x="463" y="81" type="curve" smooth="yes"/>
      <point x="438" y="66"/>
      <point x="403" y="60"/>
      <point x="342" y="60" type="curve" smooth="yes"/>
      <point x="232" y="60" type="line"/>
      <point x="232" y="347" type="line"/>
    </contour>
    <contour>
      <point x="232" y="662" type="line"/>
      <point x="361" y="662" type="line" smooth="yes"/>
      <point x="407" y="662"/>
      <point x="440" y="652"/>
      <point x="460" y="632" type="curve" smooth="yes"/>
      <point x="480" y="612"/>
      <point x="497" y="578"/>
      <point x="497" y="537" type="curve" smooth="yes"/>
      <point x="497" y="495"/>
      <point x="480" y="461"/>
      <point x="460" y="440" type="curve" smooth="yes"/>
      <point x="438" y="417"/>
      <point x="403" y="405"/>
      <point x="357" y="405" type="curve" smooth="yes"/>
      <point x="232" y="405" type="line"/>
    </contour>
  </outline>
</glyph>
<glyph name="C" format="2">
  <advance width="684"/>
  <unicode hex="0043"/>
  <anchor x="382" y="720" name="topcap"/>
  <anchor x="377" y="0" name="bottom"/>
  <outline>
    <contour>
      <point x="371" y="676" type="curve" smooth="yes"/>
      <point x="485" y="676"/>
      <point x="553" y="616"/>
      <point x="572" y="499" type="curve"/>
      <point x="633" y="499" type="line"/>
      <point x="633" y="720" type="line"/>
      <point x="578" y="720" type="line"/>
      <point x="558" y="657" type="line"/>
      <point x="507" y="712"/>
      <point x="463" y="730"/>
      <point x="380" y="730" type="curve" smooth="yes"/>
      <point x="295" y="730"/>
      <point x="231" y="710"/>
      <point x="179" y="667" type="curve" smooth="yes"/>
      <point x="99" y="601"/>
      <point x="53" y="487"/>
      <point x="53" y="353" type="curve" smooth="yes"/>
      <point x="53" y="234"/>
      <point x="89" y="134"/>
      <point x="154" y="70" type="curve" smooth="yes"/>
      <point x="208" y="17"/>
      <point x="282" y="-10"/>
      <point x="374" y="-10" type="curve" smooth="yes"/>
      <point x="529" y="-10"/>
      <point x="618" y="66"/>
      <point x="648" y="223" type="curve"/>
      <point x="593" y="223" type="line"/>
      <point x="574" y="112"/>
      <point x="502" y="54"/>
      <point x="384" y="54" type="curve" smooth="yes"/>
      <point x="307" y="54"/>
      <point x="258" y="79"/>
      <point x="222" y="135" type="curve" smooth="yes"/>
      <point x="186" y="191"/>
      <point x="165" y="277"/>
      <point x="165" y="372" type="curve" smooth="yes"/>
      <point x="165" y="473"/>
      <point x="189" y="562"/>
      <point x="229" y="614" type="curve" smooth="yes"/>
      <point x="261" y="656"/>
      <point x="306" y="676"/>
    </contour>
  </outline>
</glyph>
<glyph name="D" format="2">
  <advance width="766"/>
  <unicode hex="0044"/>
  <anchor x="327" y="720" name="topcap"/>
  <anchor x="327" y="0" name="bottom"/>
  <outline>
    <contour>
      <point x="232" y="60" type="line"/>
      <point x="232" y="660" type="line"/>
      <point x="377" y="660" type="line" smooth="yes"/>
      <point x="454" y="660"/>
      <point x="508" y="636"/>
      <point x="543" y="586" type="curve" smooth="yes"/>
      <point x="580" y="535"/>
      <point x="598" y="457"/>
      <point x="598" y="354" type="curve" smooth="yes"/>
      <point x="598" y="249"/>
      <point x="580" y="173"/>
      <point x="543" y="126" type="curve" smooth="yes"/>
      <point x="509" y="81"/>
      <point x="459" y="60"/>
      <point x="387" y="60" type="curve" smooth="yes"/>
    </contour>
    <contour>
      <point x="48" y="720" type="line"/>
      <point x="48" y="677" type="line"/>
      <point x="132" y="656" type="line"/>
      <point x="132" y="64" type="line"/>
      <point x="48" y="43" type="line"/>
      <point x="48" y="0" type="line"/>
      <point x="375" y="0" type="line" smooth="yes"/>
      <point x="481" y="0"/>
      <point x="557" y="28"/>
      <point x="613" y="87" type="curve" smooth="yes"/>
      <point x="676" y="153"/>
      <point x="713" y="256"/>
      <point x="713" y="368" type="curve" smooth="yes"/>
      <point x="713" y="474"/>
      <point x="678" y="572"/>
      <point x="616" y="636" type="curve" smooth="yes"/>
      <point x="560" y="693"/>
      <point x="485" y="720"/>
      <point x="384" y="720" type="curve" smooth="yes"/>
    </contour>
  </outline>
</glyph>
<glyph name="E" format="1">
  <advance width="685"/>
  <unicode hex="0045"/>
  <outline>
    <contour>
      <point x="472" y="238" type="line"/>
      <point x="472" y="502" type="line"/>
      <point x="421" y="502" type="line"/>
      <point x="403" y="400" type="line"/>
      <point x="237" y="400" type="line"/>
      <point x="237" y="662" type="line"/>
      <point x="522" y="662" type="line"/>
      <point x="554" y="508" type="line"/>
      <point x="606" y="508" type="line"/>
      <point x="606" y="720" type="line"/>
      <point x="43" y="720" type="line"/>
      <point x="43" y="677" type="line"/>
      <point x="137" y="656" type="line"/>
      <point x="137" y="64" type="line"/>
      <point x="43" y="43" type="line"/>
      <point x="43" y="0" type="line"/>
      <point x="628" y="0" type="line"/>
      <point x="628" y="223" type="line"/>
      <point x="570" y="223" type="line"/>
      <point x="539" y="60" type="line"/>
      <point x="237" y="60" type="line"/>
      <point x="237" y="340" type="line"/>
      <point x="403" y="340" type="line"/>
      <point x="421" y="238" type="line"/>
    </contour>
    <contour>
      <point x="346" y="720" type="move" name="topcap"/>
    </contour>
    <contour>
      <point x="353" y="0" type="move" name="bottom"/>
    </contour>
  </outline>
</glyph>
<glyph name="F" format="1">
  <advance width="636"/>
  <unicode hex="0046"/>
  <outline>
    <contour>
      <point x="472" y="227" type="line"/>
      <point x="472" y="491" type="line"/>
      <point x="421" y="491" type="line"/>
      <point x="404" y="389" type="line"/>
      <point x="237" y="389" type="line"/>
      <point x="237" y="662" type="line"/>
      <point x="520" y="662" type="line"/>
      <point x="552" y="506" type="line"/>
      <point x="606" y="506" type="line"/>
      <point x="606" y="720" type="line"/>
      <point x="43" y="720" type="line"/>
      <point x="43" y="677" type="line"/>
      <point x="137" y="656" type="line"/>
      <point x="137" y="67" type="line"/>
      <point x="43" y="43" type="line"/>
      <point x="43" y="0" type="line"/>
      <point x="354" y="0" type="line"/>
      <point x="354" y="48" type="line"/>
      <point x="237" y="67" type="line"/>
      <point x="237" y="329" type="line"/>
      <point x="404" y="329" type="line"/>
      <point x="421" y="227" type="line"/>
    </contour>
  </outline>
</glyph>
<glyph name="G" format="1">
  <advance width="753"/>
  <unicode hex="0047"/>
  <outline>
    <contour>
      <point x="375" y="55" type="curve" smooth="yes"/>
      <point x="308" y="55"/>
      <point x="265" y="75"/>
      <point x="231" y="122" type="curve" smooth="yes"/>
      <point x="188" y="180"/>
      <point x="164" y="267"/>
      <point x="164" y="366" type="curve" smooth="yes"/>
      <point x="164" y="462"/>
      <point x="187" y="552"/>
      <point x="225" y="608" type="curve" smooth="yes"/>
      <point x="258" y="655"/>
      <point x="302" y="676"/>
      <point x="369" y="676" type="curve" smooth="yes"/>
      <point x="484" y="676"/>
      <point x="553" y="616"/>
      <point x="572" y="499" type="curve"/>
      <point x="633" y="499" type="line"/>
      <point x="633" y="720" type="line"/>
      <point x="578" y="720" type="line"/>
      <point x="556" y="651" type="line"/>
      <point x="506" y="707"/>
      <point x="453" y="730"/>
      <point x="373" y="730" type="curve" smooth="yes"/>
      <point x="281" y="730"/>
      <point x="208" y="701"/>
      <point x="154" y="644" type="curve" smooth="yes"/>
      <point x="90" y="577"/>
      <point x="53" y="470"/>
      <point x="53" y="352" type="curve" smooth="yes"/>
      <point x="53" y="236"/>
      <point x="88" y="137"/>
      <point x="150" y="74" type="curve" smooth="yes"/>
      <point x="204" y="19"/>
      <point x="279" y="-10"/>
      <point x="369" y="-10" type="curve" smooth="yes"/>
      <point x="453" y="-10"/>
      <point x="510" y="15"/>
      <point x="568" y="79" type="curve"/>
      <point x="593" y="0" type="line"/>
      <point x="645" y="0" type="line"/>
      <point x="645" y="293" type="line"/>
      <point x="729" y="314" type="line"/>
      <point x="729" y="359" type="line"/>
      <point x="461" y="359" type="line"/>
      <point x="461" y="314" type="line"/>
      <point x="545" y="293" type="line"/>
      <point x="545" y="223" type="line" smooth="yes"/>
      <point x="545" y="112"/>
      <point x="488" y="55"/>
    </contour>
    <contour>
      <point x="374" y="720" type="move" name="topcap"/>
    </contour>
    <contour>
      <point x="373" y="0" type="move" name="bottom"/>
    </contour>
  </outline>
</glyph>
<glyph name="H" format="1">
  <advance width="803"/>
  <unicode hex="0048"/>
  <outline>
    <contour>
      <point x="671" y="656" type="line"/>
      <point x="755" y="677" type="line"/>
      <point x="755" y="720" type="line"/>
      <point x="487" y="720" type="line"/>
      <point x="487" y="677" type="line"/>
      <point x="571" y="656" type="line"/>
      <point x="571" y="399" type="line"/>
      <point x="232" y="399" type="line"/>
      <point x="232" y="656" type="line"/>
      <point x="316" y="677" type="line"/>
      <point x="316" y="720" type="line"/>
      <point x="48" y="720" type="line"/>
      <point x="48" y="677" type="line"/>
      <point x="132" y="656" type="line"/>
      <point x="132" y="64" type="line"/>
      <point x="48" y="43" type="line"/>
      <point x="48" y="0" type="line"/>
      <point x="316" y="0" type="line"/>
      <point x="316" y="43" type="line"/>
      <point x="232" y="64" type="line"/>
      <point x="232" y="341" type="line"/>
      <point x="571" y="341" type="line"/>
      <point x="571" y="64" type="line"/>
      <point x="487" y="43" type="line"/>
      <point x="487" y="0" type="line"/>
      <point x="755" y="0" type="line"/>
      <point x="755" y="43" type="line"/>
      <point x="671" y="64" type="line"/>
    </contour>
    <contour>
      <point x="405" y="720" type="move" name="topcap"/>
    </contour>
    <contour>
      <point x="404" y="0" type="move" name="bottom"/>
    </contour>
  </outline>
</glyph>
<glyph name="I" format="2">
  <advance width="374"/>
  <unicode hex="0049"/>
  <anchor x="187" y="720" name="topcap"/>
  <anchor x="188" y="0" name="bottom"/>
  <outline>
    <contour>
      <point x="237" y="656" type="line"/>
      <point x="331" y="677" type="line"/>
      <point x="331" y="720" type="line"/>
      <point x="43" y="720" type="line"/>
      <point x="43" y="677" type="line"/>
      <point x="137" y="656" type="line"/>
      <point x="137" y="64" type="line"/>
      <point x="43" y="43" type="line"/>
      <point x="43" y="0" type="line"/>
      <point x="331" y="0" type="line"/>
      <point x="331" y="43" type="line"/>
      <point x="237" y="64" type="line"/>
    </contour>
  </outline>
</glyph>
<glyph name="J" format="1">
  <advance width="583"/>
  <unicode hex="004A"/>
  <outline>
    <contour>
      <point x="365" y="207" type="line" smooth="yes"/>
      <point x="365" y="100"/>
      <point x="322" y="47"/>
      <point x="228" y="47" type="curve" smooth="yes"/>
      <point x="155" y="47"/>
      <point x="104" y="80"/>
      <point x="104" y="123" type="curve"/>
      <point x="127" y="134"/>
      <point x="147" y="170"/>
      <point x="147" y="201" type="curve" smooth="yes"/>
      <point x="147" y="236"/>
      <point x="122" y="259"/>
      <point x="84" y="259" type="curve" smooth="yes"/>
      <point x="40" y="259"/>
      <point x="18" y="230"/>
      <point x="18" y="175" type="curve" smooth="yes"/>
      <point x="18" y="65"/>
      <point x="104" y="-11"/>
      <point x="229" y="-11" type="curve" smooth="yes"/>
      <point x="371" y="-11"/>
      <point x="465" y="80"/>
      <point x="465" y="218" type="curve" smooth="yes"/>
      <point x="465" y="656" type="line"/>
      <point x="544" y="677" type="line"/>
      <point x="544" y="720" type="line"/>
      <point x="266" y="720" type="line"/>
      <point x="266" y="677" type="line"/>
      <point x="365" y="656" type="line"/>
    </contour>
    <contour>
      <point x="417" y="720" type="move" name="topcap"/>
    </contour>
  </outline>
</glyph>
<glyph name="K" format="1">
  <advance width="741"/>
  <unicode hex="004B"/>
  <outline>
    <contour>
      <point x="237" y="656" type="line"/>
      <point x="321" y="677" type="line"/>
      <point x="321" y="720" type="line"/>
      <point x="43" y="720" type="line"/>
      <point x="43" y="677" type="line"/>
      <point x="137" y="656" type="line"/>
      <point x="137" y="64" type="line"/>
      <point x="43" y="43" type="line"/>
      <point x="43" y="0" type="line"/>
      <point x="321" y="0" type="line"/>
      <point x="321" y="43" type="line"/>
      <point x="237" y="64" type="line"/>
      <point x="237" y="296" type="line"/>
      <point x="300" y="356" type="line"/>
      <point x="537" y="63" type="line"/>
      <point x="471" y="43" type="line"/>
      <point x="471" y="0" type="line"/>
      <point x="750" y="0" type="line"/>
      <point x="750" y="43" type="line"/>
      <point x="666" y="62" type="line"/>
      <point x="367" y="424" type="line"/>
      <point x="601" y="656" type="line"/>
      <point x="689" y="677" type="line"/>
      <point x="689" y="720" type="line"/>
      <point x="426" y="720" type="line"/>
      <point x="426" y="677" type="line"/>
      <point x="517" y="656" type="line"/>
      <point x="237" y="366" type="line"/>
    </contour>
    <contour>
      <point x="385" y="0" type="move" name="bottom"/>
    </contour>
  </outline>
</glyph>
<glyph name="L" format="1">
  <advance width="629"/>
  <unicode hex="004C"/>
  <outline>
    <contour>
      <point x="237" y="656" type="line"/>
      <point x="341" y="677" type="line"/>
      <point x="341" y="720" type="line"/>
      <point x="43" y="720" type="line"/>
      <point x="43" y="677" type="line"/>
      <point x="137" y="656" type="line"/>
      <point x="137" y="64" type="line"/>
      <point x="43" y="43" type="line"/>
      <point x="43" y="0" type="line"/>
      <point x="598" y="0" type="line"/>
      <point x="598" y="233" type="line"/>
      <point x="543" y="233" type="line"/>
      <point x="509" y="60" type="line"/>
      <point x="237" y="60" type="line"/>
    </contour>
    <contour>
      <point x="186" y="720" type="move" name="topcap"/>
    </contour>
    <contour>
      <point x="334" y="0" type="move" name="bottom"/>
    </contour>
  </outline>
</glyph>
<glyph name="M" format="2">
  <advance width="961"/>
  <unicode hex="004D"/>
  <outline>
    <contour>
      <point x="486" y="91" type="line"/>
      <point x="482" y="91" type="line"/>
      <point x="286" y="720" type="line"/>
      <point x="48" y="720" type="line"/>
      <point x="48" y="677" type="line"/>
      <point x="132" y="656" type="line"/>
      <point x="132" y="64" type="line"/>
      <point x="48" y="43" type="line"/>
      <point x="48" y="0" type="line"/>
      <point x="270" y="0" type="line"/>
      <point x="270" y="43" type="line"/>
      <point x="197" y="64" type="line"/>
      <point x="197" y="655" type="line"/>
      <point x="405" y="0" type="line"/>
      <point x="523" y="0" type="line"/>
      <point x="729" y="655" type="line"/>
      <point x="729" y="64" type="line"/>
      <point x="656" y="43" type="line"/>
      <point x="656" y="0" type="line"/>
      <point x="913" y="0" type="line"/>
      <point x="913" y="43" type="line"/>
      <point x="829" y="64" type="line"/>
      <point x="829" y="656" type="line"/>
      <point x="913" y="677" type="line"/>
      <point x="913" y="720" type="line"/>
      <point x="679" y="720" type="line"/>
    </contour>
  </outline>
</glyph>
<glyph name="N" format="2">
  <advance width="801"/>
  <unicode hex="004E"/>
  <anchor x="400" y="720" name="topcap"/>
  <anchor x="400" y="0" name="bottom"/>
  <outline>
    <contour>
      <point x="132" y="64" type="line"/>
      <point x="48" y="43" type="line"/>
      <point x="48" y="0" type="line"/>
      <point x="281" y="0" type="line"/>
      <point x="281" y="43" type="line"/>
      <point x="197" y="64" type="line"/>
      <point x="197" y="599" type="line"/>
      <point x="607" y="0" type="line"/>
      <point x="678" y="0" type="line"/>
      <point x="678" y="656" type="line"/>
      <point x="762" y="677" type="line"/>
      <point x="762" y="720" type="line"/>
      <point x="529" y="720" type="line"/>
      <point x="529" y="677" type="line"/>
      <point x="613" y="656" type="line"/>
      <point x="613" y="167" type="line"/>
      <point x="239" y="720" type="line"/>
      <point x="48" y="720" type="line"/>
      <point x="48" y="677" type="line"/>
      <point x="132" y="656" type="line"/>
    </contour>
  </outline>
</glyph>
<glyph name="O" format="2">
  <advance width="764"/>
  <unicode hex="004F"/>
  <anchor x="382" y="720" name="topcap"/>
  <anchor x="380" y="0" name="bottom"/>
  <outline>
    <contour>
      <point x="711" y="368" type="curve" smooth="yes"/>
      <point x="711" y="480"/>
      <point x="676" y="582"/>
      <point x="614" y="646" type="curve" smooth="yes"/>
      <point x="559" y="703"/>
      <point x="483" y="730"/>
      <point x="382" y="730" type="curve" smooth="yes"/>
      <point x="281" y="730"/>
      <point x="209" y="703"/>
      <point x="153" y="643" type="curve" smooth="yes"/>
      <point x="90" y="575"/>
      <point x="53" y="468"/>
      <point x="53" y="352" type="curve" smooth="yes"/>
      <point x="53" y="239"/>
      <point x="88" y="138"/>
      <point x="149" y="74" type="curve" smooth="yes"/>
      <point x="201" y="18"/>
      <point x="279" y="-10"/>
      <point x="380" y="-10" type="curve" smooth="yes"/>
      <point x="480" y="-10"/>
      <point x="556" y="18"/>
      <point x="611" y="77" type="curve" smooth="yes"/>
      <point x="674" y="145"/>
      <point x="711" y="252"/>
    </contour>
    <contour>
      <point x="168" y="372" type="curve" smooth="yes"/>
      <point x="168" y="482"/>
      <point x="186" y="561"/>
      <point x="223" y="610" type="curve" smooth="yes"/>
      <point x="257" y="654"/>
      <point x="308" y="676"/>
      <point x="379" y="676" type="curve" smooth="yes"/>
      <point x="452" y="676"/>
      <point x="506" y="652"/>
      <point x="541" y="602" type="curve" smooth="yes"/>
      <point x="577" y="550"/>
      <point x="596" y="464"/>
      <point x="596" y="354" type="curve" smooth="yes"/>
      <point x="596" y="243"/>
      <point x="577" y="160"/>
      <point x="541" y="111" type="curve" smooth="yes"/>
      <point x="507" y="66"/>
      <point x="457" y="45"/>
      <point x="385" y="45" type="curve" smooth="yes"/>
      <point x="308" y="45"/>
      <point x="256" y="69"/>
      <point x="222" y="119" type="curve" smooth="yes"/>
      <point x="187" y="173"/>
      <point x="168" y="261"/>
    </contour>
  </outline>
</glyph>
<glyph name="P" format="2">
  <advance width="631"/>
  <unicode hex="0050"/>
  <outline>
    <contour>
      <point x="232" y="341" type="line"/>
      <point x="232" y="662" type="line"/>
      <point x="352" y="662" type="line" smooth="yes"/>
      <point x="390" y="662"/>
      <point x="425" y="649"/>
      <point x="447" y="626" type="curve" smooth="yes"/>
      <point x="475" y="593"/>
      <point x="495" y="550"/>
      <point x="495" y="500" type="curve" smooth="yes"/>
      <point x="495" y="448"/>
      <point x="474" y="400"/>
      <point x="447" y="372" type="curve" smooth="yes"/>
      <point x="428" y="353"/>
      <point x="393" y="341"/>
      <point x="356" y="341" type="curve" smooth="yes"/>
    </contour>
    <contour>
      <point x="378" y="283" type="line" smooth="yes"/>
      <point x="438" y="283"/>
      <point x="492" y="301"/>
      <point x="527" y="332" type="curve" smooth="yes"/>
      <point x="573" y="373"/>
      <point x="605" y="440"/>
      <point x="605" y="506" type="curve" smooth="yes"/>
      <point x="605" y="570"/>
      <point x="575" y="630"/>
      <point x="529" y="672" type="curve" smooth="yes"/>
      <point x="495" y="703"/>
      <point x="441" y="720"/>
      <point x="379" y="720" type="curve" smooth="yes"/>
      <point x="48" y="720" type="line"/>
      <point x="48" y="677" type="line"/>
      <point x="132" y="656" type="line"/>
      <point x="132" y="64" type="line"/>
      <point x="48" y="43" type="line"/>
      <point x="48" y="0" type="line"/>
      <point x="327" y="0" type="line"/>
      <point x="327" y="43" type="line"/>
      <point x="232" y="64" type="line"/>
      <point x="232" y="283" type="line"/>
    </contour>
  </outline>
</glyph>
<glyph name="Q" format="2">
  <advance width="764"/>
  <unicode hex="0051"/>
  <outline>
    <contour>
      <point x="711" y="368" type="curve" smooth="yes"/>
      <point x="711" y="480"/>
      <point x="676" y="582"/>
      <point x="614" y="646" type="curve" smooth="yes"/>
      <point x="559" y="703"/>
      <point x="483" y="730"/>
      <point x="382" y="730" type="curve" smooth="yes"/>
      <point x="280" y="730"/>
      <point x="209" y="703"/>
      <point x="153" y="643" type="curve" smooth="yes"/>
      <point x="90" y="575"/>
      <point x="53" y="468"/>
      <point x="53" y="352" type="curve" smooth="yes"/>
      <point x="53" y="239"/>
      <point x="88" y="138"/>
      <point x="149" y="74" type="curve" smooth="yes"/>
      <point x="196" y="25"/>
      <point x="260" y="-2"/>
      <point x="341" y="-8" type="curve"/>
      <point x="401" y="-109" type="line" smooth="yes"/>
      <point x="431" y="-160"/>
      <point x="490" y="-185"/>
      <point x="564" y="-185" type="curve" smooth="yes"/>
      <point x="624" y="-185"/>
      <point x="665" y="-169"/>
      <point x="691" y="-126" type="curve"/>
      <point x="675" y="-99" type="line"/>
      <point x="655" y="-113"/>
      <point x="642" y="-118"/>
      <point x="621" y="-118" type="curve" smooth="yes"/>
      <point x="593" y="-118"/>
      <point x="564" y="-109"/>
      <point x="540" y="-94" type="curve" smooth="yes"/>
      <point x="413" y="-13" type="line"/>
      <point x="413" y="-9" type="line"/>
      <point x="496" y="-3"/>
      <point x="562" y="24"/>
      <point x="611" y="77" type="curve" smooth="yes"/>
      <point x="674" y="145"/>
      <point x="711" y="252"/>
    </contour>
    <contour>
      <point x="168" y="374" type="curve" smooth="yes"/>
      <point x="168" y="483"/>
      <point x="186" y="562"/>
      <point x="223" y="610" type="curve" smooth="yes"/>
      <point x="257" y="654"/>
      <point x="308" y="676"/>
      <point x="379" y="676" type="curve" smooth="yes"/>
      <point x="453" y="676"/>
      <point x="506" y="652"/>
      <point x="541" y="602" type="curve" smooth="yes"/>
      <point x="577" y="550"/>
      <point x="596" y="464"/>
      <point x="596" y="354" type="curve" smooth="yes"/>
      <point x="596" y="243"/>
      <point x="577" y="160"/>
      <point x="541" y="111" type="curve" smooth="yes"/>
      <point x="508" y="67"/>
      <point x="456" y="45"/>
      <point x="384" y="45" type="curve" smooth="yes"/>
      <point x="308" y="45"/>
      <point x="255" y="69"/>
      <point x="222" y="119" type="curve" smooth="yes"/>
      <point x="187" y="171"/>
      <point x="168" y="261"/>
    </contour>
  </outline>
</glyph>
<glyph name="R" format="1">
  <advance width="706"/>
  <unicode hex="0052"/>
  <outline>
    <contour>
      <point x="543" y="382" type="curve" smooth="yes"/>
      <point x="590" y="418"/>
      <point x="619" y="476"/>
      <point x="619" y="532" type="curve" smooth="yes"/>
      <point x="619" y="588"/>
      <point x="590" y="650"/>
      <point x="541" y="682" type="curve" smooth="yes"/>
      <point x="502" y="708"/>
      <point x="456" y="720"/>
      <point x="392" y="720" type="curve" smooth="yes"/>
      <point x="48" y="720" type="line"/>
      <point x="48" y="677" type="line"/>
      <point x="132" y="656" type="line"/>
      <point x="132" y="64" type="line"/>
      <point x="48" y="43" type="line"/>
      <point x="48" y="0" type="line"/>
      <point x="327" y="0" type="line"/>
      <point x="327" y="43" type="line"/>
      <point x="232" y="64" type="line"/>
      <point x="232" y="323" type="line"/>
      <point x="354" y="323" type="line"/>
      <point x="498" y="43" type="line"/>
      <point x="498" y="0" type="line"/>
      <point x="704" y="0" type="line"/>
      <point x="704" y="43" type="line"/>
      <point x="615" y="62" type="line"/>
      <point x="482" y="287" type="line" smooth="yes"/>
      <point x="468" y="310"/>
      <point x="454" y="329"/>
      <point x="442" y="341" type="curve"/>
      <point x="488" y="350"/>
      <point x="519" y="363"/>
    </contour>
    <contour>
      <point x="232" y="381" type="line"/>
      <point x="232" y="662" type="line"/>
      <point x="371" y="662" type="line" smooth="yes"/>
      <point x="413" y="662"/>
      <point x="442" y="655"/>
      <point x="465" y="636" type="curve" smooth="yes"/>
      <point x="493" y="612"/>
      <point x="509" y="572"/>
      <point x="509" y="526" type="curve" smooth="yes"/>
      <point x="509" y="479"/>
      <point x="493" y="436"/>
      <point x="466" y="412" type="curve" smooth="yes"/>
      <point x="443" y="392"/>
      <point x="411" y="381"/>
      <point x="375" y="381" type="curve" smooth="yes"/>
    </contour>
    <contour>
      <point x="309" y="720" type="move" name="topcap"/>
    </contour>
    <contour>
      <point x="381" y="0" type="move" name="bottom"/>
    </contour>
  </outline>
</glyph>
<glyph name="S" format="1">
  <advance width="599"/>
  <unicode hex="0053"/>
  <outline>
    <contour>
      <point x="321" y="-11" type="curve" smooth="yes"/>
      <point x="455" y="-11"/>
      <point x="546" y="61"/>
      <point x="546" y="184" type="curve" smooth="yes"/>
      <point x="546" y="289"/>
      <point x="481" y="344"/>
      <point x="315" y="415" type="curve" smooth="yes"/>
      <point x="198" y="465"/>
      <point x="170" y="485"/>
      <point x="170" y="552" type="curve" smooth="yes"/>
      <point x="170" y="635"/>
      <point x="217" y="677"/>
      <point x="307" y="677" type="curve" smooth="yes"/>
      <point x="410" y="677"/>
      <point x="456" y="621"/>
      <point x="456" y="493" type="curve"/>
      <point x="513" y="493" type="line"/>
      <point x="513" y="720" type="line"/>
      <point x="457" y="720" type="line"/>
      <point x="449" y="675" type="line"/>
      <point x="407" y="713"/>
      <point x="353" y="731"/>
      <point x="288" y="731" type="curve" smooth="yes"/>
      <point x="155" y="731"/>
      <point x="69" y="656"/>
      <point x="69" y="530" type="curve" smooth="yes"/>
      <point x="69" y="414"/>
      <point x="138" y="373"/>
      <point x="265" y="322" type="curve" smooth="yes"/>
      <point x="377" y="277"/>
      <point x="445" y="238"/>
      <point x="445" y="153" type="curve" smooth="yes"/>
      <point x="445" y="81"/>
      <point x="396" y="44"/>
      <point x="302" y="44" type="curve" smooth="yes"/>
      <point x="188" y="44"/>
      <point x="135" y="100"/>
      <point x="127" y="227" type="curve"/>
      <point x="66" y="227" type="line"/>
      <point x="66" y="0" type="line"/>
      <point x="122" y="0" type="line"/>
      <point x="133" y="58" type="line"/>
      <point x="176" y="14"/>
      <point x="242" y="-11"/>
    </contour>
    <contour>
      <point x="288" y="720" type="move" name="topcap"/>
    </contour>
    <contour>
      <point x="321" y="0" type="move" name="bottom"/>
    </contour>
  </outline>
</glyph>
<glyph name="T" format="2">
  <advance width="658"/>
  <unicode hex="0054"/>
  <anchor x="327" y="0" name="bottom"/>
  <outline>
    <contour>
      <point x="31" y="720" type="line"/>
      <point x="31" y="510" type="line"/>
      <point x="83" y="510" type="line"/>
      <point x="114" y="660" type="line"/>
      <point x="279" y="660" type="line"/>
      <point x="279" y="67" type="line"/>
      <point x="173" y="43" type="line"/>
      <point x="173" y="0" type="line"/>
      <point x="485" y="0" type="line"/>
      <point x="485" y="43" type="line"/>
      <point x="379" y="67" type="line"/>
      <point x="379" y="660" type="line"/>
      <point x="543" y="660" type="line"/>
      <point x="575" y="510" type="line"/>
      <point x="627" y="510" type="line"/>
      <point x="627" y="720" type="line"/>
    </contour>
  </outline>
</glyph>
<glyph name="U" format="2">
  <advance width="772"/>
  <unicode hex="0055"/>
  <anchor x="405" y="720" name="topcap"/>
  <anchor x="405" y="0" name="bottom"/>
  <outline>
    <contour>
      <point x="592" y="259" type="line" smooth="yes"/>
      <point x="592" y="108"/>
      <point x="539" y="44"/>
      <point x="414" y="44" type="curve" smooth="yes"/>
      <point x="281" y="44"/>
      <point x="216" y="115"/>
      <point x="216" y="261" type="curve" smooth="yes"/>
      <point x="216" y="656" type="line"/>
      <point x="300" y="677" type="line"/>
      <point x="300" y="720" type="line"/>
      <point x="32" y="720" type="line"/>
      <point x="32" y="677" type="line"/>
      <point x="116" y="656" type="line"/>
      <point x="116" y="244" type="line" smooth="yes"/>
      <point x="116" y="81"/>
      <point x="215" y="-11"/>
      <point x="392" y="-11" type="curve" smooth="yes"/>
      <point x="564" y="-11"/>
      <point x="655" y="77"/>
      <point x="655" y="243" type="curve" smooth="yes"/>
      <point x="655" y="656" type="line"/>
      <point x="739" y="677" type="line"/>
      <point x="739" y="720" type="line"/>
      <point x="508" y="720" type="line"/>
      <point x="508" y="677" type="line"/>
      <point x="592" y="656" type="line"/>
    </contour>
  </outline>
</glyph>
<glyph name="V" format="2">
  <advance width="716"/>
  <unicode hex="0056"/>
  <outline>
    <contour>
      <point x="179" y="656" type="line"/>
      <point x="261" y="677" type="line"/>
      <point x="261" y="720" type="line"/>
      <point x="-9" y="720" type="line"/>
      <point x="-9" y="677" type="line"/>
      <point x="71" y="656" type="line"/>
      <point x="314" y="0" type="line"/>
      <point x="412" y="0" type="line"/>
      <point x="636" y="656" type="line"/>
      <point x="718" y="677" type="line"/>
      <point x="718" y="720" type="line"/>
      <point x="484" y="720" type="line"/>
      <point x="484" y="677" type="line"/>
      <point x="567" y="656" type="line"/>
      <point x="381" y="83" type="line"/>
      <point x="377" y="83" type="line"/>
    </contour>
  </outline>
</glyph>
<glyph name="W" format="2">
  <advance width="1041"/>
  <unicode hex="0057"/>
  <anchor x="523" y="720" name="topcap"/>
  <outline>
    <contour>
      <point x="737" y="94" type="line"/>
      <point x="733" y="94" type="line"/>
      <point x="569" y="656" type="line"/>
      <point x="661" y="677" type="line"/>
      <point x="661" y="720" type="line"/>
      <point x="397" y="720" type="line"/>
      <point x="397" y="677" type="line"/>
      <point x="475" y="656" type="line"/>
      <point x="488" y="596" type="line"/>
      <point x="352" y="94" type="line"/>
      <point x="348" y="94" type="line"/>
      <point x="183" y="656" type="line"/>
      <point x="279" y="677" type="line"/>
      <point x="279" y="720" type="line"/>
      <point x="-5" y="720" type="line"/>
      <point x="-5" y="677" type="line"/>
      <point x="73" y="656" type="line"/>
      <point x="281" y="0" type="line"/>
      <point x="385" y="0" type="line"/>
      <point x="518" y="481" type="line"/>
      <point x="665" y="0" type="line"/>
      <point x="769" y="0" type="line"/>
      <point x="959" y="656" type="line"/>
      <point x="1042" y="677" type="line"/>
      <point x="1042" y="720" type="line"/>
      <point x="813" y="720" type="line"/>
      <point x="813" y="677" type="line"/>
      <point x="892" y="657" type="line"/>
    </contour>
  </outline>
</glyph>
<glyph name="X" format="2">
  <advance width="740"/>
  <unicode hex="0058"/>
  <outline>
    <contour>
      <point x="331" y="677" type="line"/>
      <point x="331" y="720" type="line"/>
      <point x="14" y="720" type="line"/>
      <point x="14" y="677" type="line"/>
      <point x="120" y="656" type="line"/>
      <point x="315" y="358" type="line"/>
      <point x="104" y="64" type="line"/>
      <point x="11" y="43" type="line"/>
      <point x="11" y="0" type="line"/>
      <point x="283" y="0" type="line"/>
      <point x="283" y="43" type="line"/>
      <point x="174" y="64" type="line"/>
      <point x="351" y="315" type="line"/>
      <point x="508" y="64" type="line"/>
      <point x="405" y="43" type="line"/>
      <point x="407" y="0" type="line"/>
      <point x="734" y="0" type="line"/>
      <point x="734" y="43" type="line"/>
      <point x="628" y="64" type="line"/>
      <point x="414" y="386" type="line"/>
      <point x="620" y="656" type="line"/>
      <point x="718" y="677" type="line"/>
      <point x="718" y="720" type="line"/>
      <point x="455" y="720" type="line"/>
      <point x="455" y="677" type="line"/>
      <point x="546" y="656" type="line"/>
      <point x="378" y="432" type="line"/>
      <point x="237" y="656" type="line"/>
    </contour>
  </outline>
</glyph>
<glyph name="Y" format="2">
  <advance width="678"/>
  <unicode hex="0059"/>
  <anchor x="359" y="721" name="topcap"/>
  <outline>
    <contour>
      <point x="359" y="336" type="line"/>
      <point x="187" y="656" type="line"/>
      <point x="271" y="677" type="line"/>
      <point x="271" y="720" type="line"/>
      <point x="-5" y="720" type="line"/>
      <point x="-5" y="677" type="line"/>
      <point x="78" y="656" type="line"/>
      <point x="293" y="266" type="line"/>
      <point x="293" y="64" type="line"/>
      <point x="199" y="43" type="line"/>
      <point x="199" y="0" type="line"/>
      <point x="487" y="0" type="line"/>
      <point x="487" y="43" type="line"/>
      <point x="393" y="64" type="line"/>
      <point x="393" y="282" type="line"/>
      <point x="597" y="656" type="line"/>
      <point x="679" y="677" type="line"/>
      <point x="679" y="720" type="line"/>
      <point x="452" y="720" type="line"/>
      <point x="452" y="677" type="line"/>
      <point x="533" y="656" type="line"/>
    </contour>
  </outline>
</glyph>
<glyph name="Z" format="1">
  <advance width="647"/>
  <unicode hex="005A"/>
  <outline>
    <contour>
      <point x="511" y="60" type="line"/>
      <point x="151" y="60" type="line"/>
      <point x="577" y="659" type="line"/>
      <point x="577" y="720" type="line"/>
      <point x="68" y="720" type="line"/>
      <point x="68" y="508" type="line"/>
      <point x="120" y="508" type="line"/>
      <point x="152" y="660" type="line"/>
      <point x="463" y="660" type="line"/>
      <point x="37" y="61" type="line"/>
      <point x="37" y="0" type="line"/>
      <point x="600" y="0" type="line"/>
      <point x="600" y="223" type="line"/>
      <point x="543" y="223" type="line"/>
    </contour>
    <contour>
      <point x="329" y="720" type="move" name="topcap"/>
    </contour>
    <contour>
      <point x="336" y="0" type="move" name="bottom"/>
    </contour>
  </outline>
</glyph>
<glyph name="bracketleft" format="1">
  <advance width="368"/>
  <unicode hex="005B"/>
  <outline>
    <contour>
      <point x="93" y="-149" type="line"/>
      <point x="344" y="-149" type="line"/>
      <point x="344" y="-89" type="line"/>
      <point x="182" y="-89" type="line"/>
      <point x="182" y="795" type="line"/>
      <point x="344" y="795" type="line"/>
      <point x="344" y="855" type="line"/>
      <point x="93" y="855" type="line"/>
    </contour>
  </outline>
</glyph>
<glyph name="backslash" format="2">
  <advance width="310"/>
  <unicode hex="005C"/>
  <outline>
    <contour>
      <point x="110" y="730" type="line"/>
      <point x="53" y="730" type="line"/>
      <point x="199" y="-10" type="line"/>
      <point x="256" y="-10" type="line"/>
    </contour>
  </outline>
</glyph>
<glyph name="bracketright" format="1">
  <advance width="368"/>
  <unicode hex="005D"/>
  <outline>
    <contour>
      <point x="275" y="855" type="line"/>
      <point x="24" y="855" type="line"/>
      <point x="24" y="795" type="line"/>
      <point x="186" y="795" type="line"/>
      <point x="186" y="-89" type="line"/>
      <point x="24" y="-89" type="line"/>
      <point x="24" y="-149" type="line"/>
      <point x="275" y="-149" type="line"/>
    </contour>
  </outline>
</glyph>
<glyph name="asciicircum" format="2">
  <advance width="382"/>
  <unicode hex="005E"/>
  <anchor x="191" y="639" name="_top"/>
  <outline>
    <contour>
      <point x="327" y="639" type="line"/>
      <point x="274" y="639" type="line"/>
      <point x="191" y="730" type="line"/>
      <point x="108" y="639" type="line"/>
      <point x="55" y="639" type="line"/>
      <point x="143" y="790" type="line"/>
      <point x="238" y="790" type="line"/>
    </contour>
  </outline>
</glyph>
<glyph name="grave" format="2">
  <advance width="259"/>
  <unicode hex="0060"/>
  <anchor x="191" y="639" name="_top"/>
  <outline>
    <contour>
      <point x="170" y="715" type="line" smooth="yes"/>
      <point x="132" y="775"/>
      <point x="113" y="795"/>
      <point x="85" y="795" type="curve" smooth="yes"/>
      <point x="57" y="795"/>
      <point x="40" y="784"/>
      <point x="40" y="760" type="curve" smooth="yes"/>
      <point x="40" y="740"/>
      <point x="65" y="713"/>
      <point x="128" y="667" type="curve" smooth="yes"/>
      <point x="166" y="639" type="line"/>
      <point x="219" y="639" type="line"/>
    </contour>
  </outline>
</glyph>
<glyph name="a" format="2">
  <advance width="537"/>
  <unicode hex="0061"/>
  <anchor x="244" y="639" name="top"/>
  <anchor x="422" y="0" name="bottom"/>
  <outline>
    <contour>
      <point x="38" y="117" type="curve" smooth="yes"/>
      <point x="38" y="38"/>
      <point x="89" y="-10"/>
      <point x="173" y="-10" type="curve" smooth="yes"/>
      <point x="251" y="-10"/>
      <point x="324" y="31"/>
      <point x="365" y="99" type="curve"/>
      <point x="369" y="99" type="line"/>
      <point x="369" y="14"/>
      <point x="380" y="-10"/>
      <point x="421" y="-10" type="curve" smooth="yes"/>
      <point x="448" y="-10"/>
      <point x="486" y="0"/>
      <point x="533" y="19" type="curve"/>
      <point x="533" y="49" type="line"/>
      <point x="488" y="49" type="line" smooth="yes"/>
      <point x="459" y="49"/>
      <point x="453" y="70"/>
      <point x="453" y="136" type="curve" smooth="yes"/>
      <point x="453" y="281" type="line" smooth="yes"/>
      <point x="453" y="386"/>
      <point x="433" y="459"/>
      <point x="391" y="501" type="curve" smooth="yes"/>
      <point x="359" y="533"/>
      <point x="312" y="550"/>
      <point x="257" y="550" type="curve" smooth="yes"/>
      <point x="166" y="550"/>
      <point x="65" y="503"/>
      <point x="65" y="420" type="curve" smooth="yes"/>
      <point x="65" y="381"/>
      <point x="88" y="359"/>
      <point x="120" y="359" type="curve" smooth="yes"/>
      <point x="152" y="359"/>
      <point x="177" y="380"/>
      <point x="177" y="413" type="curve" smooth="yes"/>
      <point x="177" y="432"/>
      <point x="168" y="455"/>
      <point x="150" y="469" type="curve"/>
      <point x="160" y="491"/>
      <point x="194" y="506"/>
      <point x="231" y="506" type="curve" smooth="yes"/>
      <point x="270" y="506"/>
      <point x="305" y="489"/>
      <point x="324" y="455" type="curve" smooth="yes"/>
      <point x="339" y="428"/>
      <point x="347" y="388"/>
      <point x="353" y="310" type="curve"/>
      <point x="128" y="276"/>
      <point x="38" y="221"/>
    </contour>
    <contour>
      <point x="215" y="48" type="curve" smooth="yes"/>
      <point x="168" y="48"/>
      <point x="141" y="81"/>
      <point x="141" y="138" type="curve" smooth="yes"/>
      <point x="141" y="214"/>
      <point x="190" y="247"/>
      <point x="352" y="280" type="curve"/>
      <point x="354" y="260"/>
      <point x="356" y="237"/>
      <point x="356" y="215" type="curve" smooth="yes"/>
      <point x="356" y="165"/>
      <point x="346" y="129"/>
      <point x="325" y="103" type="curve" smooth="yes"/>
      <point x="297" y="68"/>
      <point x="252" y="48"/>
    </contour>
  </outline>
</glyph>
<glyph name="b" format="1">
  <advance width="601"/>
  <unicode hex="0062"/>
  <outline>
    <contour>
      <point x="555" y="275" type="curve" smooth="yes"/>
      <point x="555" y="360"/>
      <point x="531" y="436"/>
      <point x="490" y="487" type="curve" smooth="yes"/>
      <point x="455" y="531"/>
      <point x="398" y="550"/>
      <point x="330" y="550" type="curve" smooth="yes"/>
      <point x="269" y="550"/>
      <point x="220" y="533"/>
      <point x="180" y="482" type="curve"/>
      <point x="180" y="780" type="line"/>
      <point x="6" y="780" type="line"/>
      <point x="6" y="739" type="line"/>
      <point x="83" y="720" type="line"/>
      <point x="83" y="0" type="line"/>
      <point x="130" y="0" type="line"/>
      <point x="160" y="101" type="line"/>
      <point x="201" y="16"/>
      <point x="254" y="-10"/>
      <point x="322" y="-10" type="curve" smooth="yes"/>
      <point x="392" y="-10"/>
      <point x="446" y="12"/>
      <point x="483" y="55" type="curve" smooth="yes"/>
      <point x="528" y="107"/>
      <point x="555" y="188"/>
    </contour>
    <contour>
      <point x="180" y="274" type="curve" smooth="yes"/>
      <point x="180" y="355"/>
      <point x="193" y="415"/>
      <point x="215" y="452" type="curve" smooth="yes"/>
      <point x="233" y="483"/>
      <point x="268" y="498"/>
      <point x="314" y="498" type="curve" smooth="yes"/>
      <point x="364" y="498"/>
      <point x="393" y="479"/>
      <point x="415" y="445" type="curve" smooth="yes"/>
      <point x="438" y="407"/>
      <point x="450" y="347"/>
      <point x="450" y="267" type="curve" smooth="yes"/>
      <point x="450" y="187"/>
      <point x="440" y="123"/>
      <point x="416" y="89" type="curve" smooth="yes"/>
      <point x="395" y="59"/>
      <point x="360" y="42"/>
      <point x="315" y="42" type="curve" smooth="yes"/>
      <point x="265" y="42"/>
      <point x="236" y="61"/>
      <point x="215" y="95" type="curve" smooth="yes"/>
      <point x="192" y="132"/>
      <point x="180" y="193"/>
    </contour>
  </outline>
</glyph>
<glyph name="c" format="1">
  <advance width="536"/>
  <unicode hex="0063"/>
  <outline>
    <contour>
      <point x="302" y="550" type="curve" smooth="yes"/>
      <point x="147" y="550"/>
      <point x="46" y="437"/>
      <point x="46" y="264" type="curve" smooth="yes"/>
      <point x="46" y="202"/>
      <point x="59" y="145"/>
      <point x="82" y="102" type="curve" smooth="yes"/>
      <point x="121" y="29"/>
      <point x="191" y="-10"/>
      <point x="284" y="-10" type="curve" smooth="yes"/>
      <point x="377" y="-10"/>
      <point x="445" y="28"/>
      <point x="498" y="110" type="curve"/>
      <point x="468" y="134" type="line"/>
      <point x="428" y="85"/>
      <point x="369" y="57"/>
      <point x="308" y="57" type="curve" smooth="yes"/>
      <point x="248" y="57"/>
      <point x="203" y="84"/>
      <point x="177" y="134" type="curve" smooth="yes"/>
      <point x="160" y="167"/>
      <point x="151" y="214"/>
      <point x="151" y="279" type="curve" smooth="yes"/>
      <point x="151" y="430"/>
      <point x="199" y="499"/>
      <point x="308" y="499" type="curve" smooth="yes"/>
      <point x="363" y="499"/>
      <point x="399" y="482"/>
      <point x="419" y="444" type="curve"/>
      <point x="388" y="435"/>
      <point x="369" y="409"/>
      <point x="369" y="376" type="curve" smooth="yes"/>
      <point x="369" y="340"/>
      <point x="392" y="317"/>
      <point x="430" y="317" type="curve" smooth="yes"/>
      <point x="471" y="317"/>
      <point x="492" y="344"/>
      <point x="492" y="394" type="curve" smooth="yes"/>
      <point x="492" y="488"/>
      <point x="417" y="550"/>
    </contour>
    <contour>
      <point x="302" y="639" type="move" name="top"/>
    </contour>
    <contour>
      <point x="284" y="0" type="move" name="bottom"/>
    </contour>
  </outline>
</glyph>
<glyph name="d" format="2">
  <advance width="620"/>
  <unicode hex="0064"/>
  <anchor x="275" y="0" name="bottom"/>
  <outline>
    <contour>
      <point x="46" y="265" type="curve" smooth="yes"/>
      <point x="46" y="180"/>
      <point x="72" y="105"/>
      <point x="115" y="53" type="curve" smooth="yes"/>
      <point x="151" y="9"/>
      <point x="207" y="-10"/>
      <point x="275" y="-10" type="curve" smooth="yes"/>
      <point x="339" y="-10"/>
      <point x="391" y="10"/>
      <point x="432" y="72" type="curve"/>
      <point x="440" y="-10" type="line"/>
      <point x="595" y="0" type="line"/>
      <point x="595" y="41" type="line"/>
      <point x="518" y="60" type="line"/>
      <point x="518" y="780" type="line"/>
      <point x="344" y="780" type="line"/>
      <point x="344" y="739" type="line"/>
      <point x="421" y="720" type="line"/>
      <point x="421" y="472" type="line"/>
      <point x="382" y="530"/>
      <point x="334" y="550"/>
      <point x="275" y="550" type="curve" smooth="yes"/>
      <point x="205" y="550"/>
      <point x="152" y="527"/>
      <point x="114" y="485" type="curve" smooth="yes"/>
      <point x="69" y="435"/>
      <point x="46" y="352"/>
    </contour>
    <contour>
      <point x="421" y="266" type="curve" smooth="yes"/>
      <point x="421" y="185"/>
      <point x="408" y="125"/>
      <point x="386" y="88" type="curve" smooth="yes"/>
      <point x="368" y="57"/>
      <point x="333" y="42"/>
      <point x="287" y="42" type="curve" smooth="yes"/>
      <point x="237" y="42"/>
      <point x="208" y="61"/>
      <point x="186" y="95" type="curve" smooth="yes"/>
      <point x="163" y="133"/>
      <point x="151" y="193"/>
      <point x="151" y="273" type="curve" smooth="yes"/>
      <point x="151" y="353"/>
      <point x="161" y="417"/>
      <point x="185" y="451" type="curve" smooth="yes"/>
      <point x="206" y="481"/>
      <point x="241" y="498"/>
      <point x="286" y="498" type="curve" smooth="yes"/>
      <point x="336" y="498"/>
      <point x="365" y="479"/>
      <point x="386" y="445" type="curve" smooth="yes"/>
      <point x="409" y="408"/>
      <point x="421" y="347"/>
    </contour>
  </outline>
</glyph>
<glyph name="e" format="1">
  <advance width="544"/>
  <unicode hex="0065"/>
  <outline>
    <contour>
      <point x="497" y="264" type="line"/>
      <point x="500" y="290"/>
      <point x="500" y="298"/>
      <point x="500" y="311" type="curve" smooth="yes"/>
      <point x="500" y="460"/>
      <point x="423" y="550"/>
      <point x="287" y="550" type="curve" smooth="yes"/>
      <point x="139" y="550"/>
      <point x="47" y="443"/>
      <point x="47" y="256" type="curve" smooth="yes"/>
      <point x="47" y="198"/>
      <point x="56" y="147"/>
      <point x="76" y="106" type="curve" smooth="yes"/>
      <point x="113" y="30"/>
      <point x="187" y="-10"/>
      <point x="279" y="-10" type="curve" smooth="yes"/>
      <point x="384" y="-10"/>
      <point x="446" y="42"/>
      <point x="493" y="106" type="curve"/>
      <point x="461" y="130" type="line"/>
      <point x="420" y="85"/>
      <point x="368" y="57"/>
      <point x="305" y="57" type="curve" smooth="yes"/>
      <point x="247" y="57"/>
      <point x="194" y="81"/>
      <point x="168" y="143" type="curve" smooth="yes"/>
      <point x="155" y="174"/>
      <point x="148" y="214"/>
      <point x="148" y="264" type="curve"/>
    </contour>
    <contour>
      <point x="281" y="496" type="curve" smooth="yes"/>
      <point x="357" y="496"/>
      <point x="399" y="442"/>
      <point x="399" y="346" type="curve" smooth="yes"/>
      <point x="399" y="313" type="line"/>
      <point x="149" y="313" type="line"/>
      <point x="157" y="434"/>
      <point x="201" y="496"/>
    </contour>
    <contour>
      <point x="285" y="639" type="move" name="top"/>
    </contour>
    <contour>
      <point x="282" y="0" type="move" name="bottom"/>
    </contour>
  </outline>
</glyph>
<glyph name="f" format="1">
  <advance width="363"/>
  <unicode hex="0066"/>
  <outline>
    <contour>
      <point x="18" y="490" type="line"/>
      <point x="115" y="490" type="line"/>
      <point x="115" y="60" type="line"/>
      <point x="38" y="41" type="line"/>
      <point x="38" y="0" type="line"/>
      <point x="320" y="0" type="line"/>
      <point x="320" y="41" type="line"/>
      <point x="212" y="60" type="line"/>
      <point x="212" y="490" type="line"/>
      <point x="340" y="490" type="line"/>
      <point x="340" y="540" type="line"/>
      <point x="212" y="540" type="line"/>
      <point x="212" y="590" type="line" smooth="yes"/>
      <point x="212" y="653"/>
      <point x="212" y="715"/>
      <point x="257" y="742" type="curve" smooth="yes"/>
      <point x="269" y="749"/>
      <point x="282" y="752"/>
      <point x="297" y="752" type="curve" smooth="yes"/>
      <point x="316" y="752"/>
      <point x="331" y="747"/>
      <point x="343" y="734" type="curve"/>
      <point x="333" y="718"/>
      <point x="327" y="700"/>
      <point x="327" y="682" type="curve" smooth="yes"/>
      <point x="327" y="650"/>
      <point x="347" y="632"/>
      <point x="378" y="632" type="curve" smooth="yes"/>
      <point x="410" y="632"/>
      <point x="430" y="652"/>
      <point x="430" y="689" type="curve" smooth="yes"/>
      <point x="430" y="747"/>
      <point x="379" y="790"/>
      <point x="300" y="790" type="curve" smooth="yes"/>
      <point x="187" y="790"/>
      <point x="115" y="703"/>
      <point x="115" y="550" type="curve" smooth="yes"/>
      <point x="115" y="540" type="line"/>
      <point x="18" y="526" type="line"/>
    </contour>
  </outline>
</glyph>
<glyph name="g" format="2">
  <advance width="560"/>
  <unicode hex="0067"/>
  <anchor x="261" y="639" name="top"/>
  <outline>
    <contour>
      <point x="507" y="-10" type="curve" smooth="yes"/>
      <point x="507" y="78"/>
      <point x="450" y="117"/>
      <point x="341" y="117" type="curve" smooth="yes"/>
      <point x="225" y="117" type="line" smooth="yes"/>
      <point x="156" y="117"/>
      <point x="137" y="126"/>
      <point x="137" y="157" type="curve" smooth="yes"/>
      <point x="137" y="188"/>
      <point x="162" y="208"/>
      <point x="216" y="216" type="curve"/>
      <point x="229" y="215"/>
      <point x="242" y="214"/>
      <point x="256" y="214" type="curve" smooth="yes"/>
      <point x="384" y="214"/>
      <point x="461" y="279"/>
      <point x="461" y="384" type="curve" smooth="yes"/>
      <point x="461" y="422"/>
      <point x="451" y="454"/>
      <point x="432" y="480" type="curve"/>
      <point x="466" y="480" type="line"/>
      <point x="536" y="472" type="line"/>
      <point x="553" y="472" type="line"/>
      <point x="553" y="560" type="line"/>
      <point x="536" y="560" type="line"/>
      <point x="444" y="516" type="line"/>
      <point x="410" y="504" type="line"/>
      <point x="375" y="534"/>
      <point x="325" y="550"/>
      <point x="263" y="550" type="curve" smooth="yes"/>
      <point x="139" y="550"/>
      <point x="59" y="484"/>
      <point x="59" y="378" type="curve" smooth="yes"/>
      <point x="59" y="305"/>
      <point x="96" y="253"/>
      <point x="162" y="229" type="curve"/>
      <point x="98" y="207"/>
      <point x="69" y="169"/>
      <point x="69" y="128" type="curve" smooth="yes"/>
      <point x="69" y="88"/>
      <point x="90" y="63"/>
      <point x="135" y="50" type="curve"/>
      <point x="135" y="46" type="line"/>
      <point x="70" y="36"/>
      <point x="30" y="3"/>
      <point x="30" y="-59" type="curve" smooth="yes"/>
      <point x="30" y="-138"/>
      <point x="111" y="-184"/>
      <point x="263" y="-184" type="curve" smooth="yes"/>
      <point x="416" y="-184"/>
      <point x="507" y="-112"/>
    </contour>
    <contour>
      <point x="297" y="40" type="line" smooth="yes"/>
      <point x="399" y="40"/>
      <point x="435" y="21"/>
      <point x="435" y="-32" type="curve" smooth="yes"/>
      <point x="435" y="-99"/>
      <point x="374" y="-134"/>
      <point x="261" y="-134" type="curve" smooth="yes"/>
      <point x="157" y="-134"/>
      <point x="105" y="-102"/>
      <point x="105" y="-43" type="curve" smooth="yes"/>
      <point x="105" y="6"/>
      <point x="143" y="40"/>
      <point x="232" y="40" type="curve" smooth="yes"/>
    </contour>
    <contour>
      <point x="147" y="382" type="curve" smooth="yes"/>
      <point x="147" y="462"/>
      <point x="182" y="504"/>
      <point x="260" y="504" type="curve" smooth="yes"/>
      <point x="338" y="504"/>
      <point x="373" y="462"/>
      <point x="373" y="382" type="curve" smooth="yes"/>
      <point x="373" y="302"/>
      <point x="338" y="260"/>
      <point x="260" y="260" type="curve" smooth="yes"/>
      <point x="182" y="260"/>
      <point x="147" y="302"/>
    </contour>
  </outline>
</glyph>
<glyph name="h" format="2">
  <advance width="644"/>
  <unicode hex="0068"/>
  <anchor x="362" y="639" name="top"/>
  <anchor x="323" y="0" name="bottom"/>
  <outline>
    <contour>
      <point x="448" y="60" type="line"/>
      <point x="381" y="41" type="line"/>
      <point x="381" y="0" type="line"/>
      <point x="622" y="0" type="line"/>
      <point x="622" y="41" type="line"/>
      <point x="545" y="60" type="line"/>
      <point x="545" y="281" type="line" smooth="yes"/>
      <point x="545" y="395"/>
      <point x="534" y="459"/>
      <point x="508" y="496" type="curve" smooth="yes"/>
      <point x="483" y="530"/>
      <point x="438" y="550"/>
      <point x="385" y="550" type="curve" smooth="yes"/>
      <point x="309" y="550"/>
      <point x="239" y="510"/>
      <point x="199" y="446" type="curve"/>
      <point x="199" y="780" type="line"/>
      <point x="25" y="780" type="line"/>
      <point x="25" y="739" type="line"/>
      <point x="102" y="720" type="line"/>
      <point x="102" y="60" type="line"/>
      <point x="25" y="41" type="line"/>
      <point x="25" y="0" type="line"/>
      <point x="266" y="0" type="line"/>
      <point x="266" y="41" type="line"/>
      <point x="199" y="60" type="line"/>
      <point x="199" y="331" type="line"/>
      <point x="202" y="383"/>
      <point x="215" y="416"/>
      <point x="244" y="442" type="curve" smooth="yes"/>
      <point x="270" y="465"/>
      <point x="307" y="479"/>
      <point x="344" y="479" type="curve" smooth="yes"/>
      <point x="385" y="479"/>
      <point x="416" y="462"/>
      <point x="432" y="430" type="curve" smooth="yes"/>
      <point x="444" y="406"/>
      <point x="448" y="369"/>
      <point x="448" y="283" type="curve" smooth="yes"/>
    </contour>
  </outline>
</glyph>
<glyph name="i" format="2">
  <advance width="312"/>
  <unicode hex="0069"/>
  <guideline x="111.0" y="0.0" angle="90.0" identifier="vSaGMjAhdJ"/>
  <guideline x="208.0" y="0.0" angle="90.0" identifier="JknFNMV5ER"/>
  <anchor x="163" y="0" name="bottom"/>
  <outline>
    <contour>
      <point x="113" y="480" type="line"/>
      <point x="113" y="60" type="line"/>
      <point x="36" y="41" type="line"/>
      <point x="36" y="0" type="line"/>
      <point x="287" y="0" type="line"/>
      <point x="287" y="41" type="line"/>
      <point x="210" y="60" type="line"/>
      <point x="210" y="540" type="line"/>
      <point x="36" y="540" type="line"/>
      <point x="36" y="499" type="line"/>
    </contour>
    <contour>
      <point x="99" y="701" type="curve" smooth="yes"/>
      <point x="99" y="662"/>
      <point x="122" y="639"/>
      <point x="161" y="639" type="curve" smooth="yes"/>
      <point x="200" y="639"/>
      <point x="224" y="663"/>
      <point x="224" y="701" type="curve" smooth="yes"/>
      <point x="224" y="739"/>
      <point x="199" y="764"/>
      <point x="161" y="764" type="curve" smooth="yes"/>
      <point x="123" y="764"/>
      <point x="99" y="740"/>
    </contour>
  </outline>
</glyph>
<glyph name="j" format="1">
  <advance width="284"/>
  <unicode hex="006A"/>
  <outline>
    <contour>
      <point x="201" y="540" type="line"/>
      <point x="27" y="540" type="line"/>
      <point x="27" y="499" type="line"/>
      <point x="104" y="480" type="line"/>
      <point x="104" y="-24" type="line" smooth="yes"/>
      <point x="104" y="-121"/>
      <point x="89" y="-153"/>
      <point x="42" y="-153" type="curve" smooth="yes"/>
      <point x="21" y="-153"/>
      <point x="5" y="-147"/>
      <point x="3" y="-138" type="curve"/>
      <point x="14" y="-127"/>
      <point x="19" y="-112"/>
      <point x="19" y="-93" type="curve" smooth="yes"/>
      <point x="19" y="-58"/>
      <point x="1" y="-38"/>
      <point x="-30" y="-38" type="curve" smooth="yes"/>
      <point x="-62" y="-38"/>
      <point x="-83" y="-60"/>
      <point x="-83" y="-95" type="curve" smooth="yes"/>
      <point x="-83" y="-150"/>
      <point x="-31" y="-190"/>
      <point x="40" y="-190" type="curve" smooth="yes"/>
      <point x="103" y="-190"/>
      <point x="154" y="-158"/>
      <point x="179" y="-101" type="curve" smooth="yes"/>
      <point x="195" y="-65"/>
      <point x="201" y="-14"/>
      <point x="201" y="85" type="curve" smooth="yes"/>
    </contour>
    <contour>
      <point x="90" y="701" type="curve" smooth="yes"/>
      <point x="90" y="662"/>
      <point x="113" y="639"/>
      <point x="152" y="639" type="curve" smooth="yes"/>
      <point x="191" y="639"/>
      <point x="215" y="663"/>
      <point x="215" y="701" type="curve" smooth="yes"/>
      <point x="215" y="739"/>
      <point x="190" y="764"/>
      <point x="152" y="764" type="curve" smooth="yes"/>
      <point x="114" y="764"/>
      <point x="90" y="740"/>
    </contour>
  </outline>
</glyph>
<glyph name="k" format="2">
  <advance width="596"/>
  <unicode hex="006B"/>
  <anchor x="315" y="0" name="bottom"/>
  <outline>
    <contour>
      <point x="370" y="41" type="line"/>
      <point x="370" y="0" type="line"/>
      <point x="589" y="0" type="line"/>
      <point x="589" y="41" type="line"/>
      <point x="536" y="58" type="line"/>
      <point x="337" y="325" type="line"/>
      <point x="488" y="480" type="line"/>
      <point x="561" y="499" type="line"/>
      <point x="561" y="540" type="line"/>
      <point x="346" y="540" type="line"/>
      <point x="346" y="499" type="line"/>
      <point x="412" y="480" type="line"/>
      <point x="199" y="251" type="line"/>
      <point x="199" y="780" type="line"/>
      <point x="25" y="780" type="line"/>
      <point x="25" y="739" type="line"/>
      <point x="102" y="720" type="line"/>
      <point x="102" y="60" type="line"/>
      <point x="25" y="41" type="line"/>
      <point x="25" y="0" type="line"/>
      <point x="276" y="0" type="line"/>
      <point x="276" y="41" type="line"/>
      <point x="199" y="60" type="line"/>
      <point x="199" y="204" type="line"/>
      <point x="275" y="268" type="line"/>
      <point x="429" y="60" type="line"/>
    </contour>
  </outline>
</glyph>
<glyph name="l" format="2">
  <advance width="308"/>
  <unicode hex="006C"/>
  <anchor x="152" y="0" name="bottom"/>
  <outline>
    <contour>
      <point x="105" y="60" type="line"/>
      <point x="28" y="41" type="line"/>
      <point x="28" y="0" type="line"/>
      <point x="279" y="0" type="line"/>
      <point x="279" y="41" type="line"/>
      <point x="202" y="60" type="line"/>
      <point x="202" y="780" type="line"/>
      <point x="28" y="780" type="line"/>
      <point x="28" y="739" type="line"/>
      <point x="105" y="720" type="line"/>
    </contour>
  </outline>
</glyph>
<glyph name="m" format="1">
  <advance width="975"/>
  <unicode hex="006D"/>
  <outline>
    <contour>
      <point x="113" y="60" type="line"/>
      <point x="36" y="41" type="line"/>
      <point x="36" y="0" type="line"/>
      <point x="277" y="0" type="line"/>
      <point x="277" y="41" type="line"/>
      <point x="210" y="60" type="line"/>
      <point x="210" y="327" type="line"/>
      <point x="213" y="382"/>
      <point x="226" y="415"/>
      <point x="255" y="442" type="curve" smooth="yes"/>
      <point x="280" y="465"/>
      <point x="313" y="479"/>
      <point x="347" y="479" type="curve" smooth="yes"/>
      <point x="385" y="479"/>
      <point x="415" y="462"/>
      <point x="431" y="430" type="curve" smooth="yes"/>
      <point x="443" y="406"/>
      <point x="447" y="369"/>
      <point x="447" y="283" type="curve" smooth="yes"/>
      <point x="447" y="60" type="line"/>
      <point x="380" y="41" type="line"/>
      <point x="380" y="0" type="line"/>
      <point x="611" y="0" type="line"/>
      <point x="611" y="41" type="line"/>
      <point x="544" y="60" type="line"/>
      <point x="544" y="327" type="line"/>
      <point x="547" y="382"/>
      <point x="560" y="415"/>
      <point x="589" y="442" type="curve" smooth="yes"/>
      <point x="614" y="465"/>
      <point x="647" y="479"/>
      <point x="681" y="479" type="curve" smooth="yes"/>
      <point x="719" y="479"/>
      <point x="749" y="462"/>
      <point x="765" y="430" type="curve" smooth="yes"/>
      <point x="777" y="406"/>
      <point x="781" y="369"/>
      <point x="781" y="283" type="curve" smooth="yes"/>
      <point x="781" y="60" type="line"/>
      <point x="714" y="41" type="line"/>
      <point x="714" y="0" type="line"/>
      <point x="955" y="0" type="line"/>
      <point x="955" y="41" type="line"/>
      <point x="878" y="60" type="line"/>
      <point x="878" y="245" type="line" smooth="yes"/>
      <point x="878" y="390"/>
      <point x="870" y="454"/>
      <point x="846" y="492" type="curve" smooth="yes"/>
      <point x="823" y="528"/>
      <point x="778" y="550"/>
      <point x="725" y="550" type="curve" smooth="yes"/>
      <point x="648" y="550"/>
      <point x="575" y="505"/>
      <point x="533" y="430" type="curve"/>
      <point x="527" y="456"/>
      <point x="517" y="481"/>
      <point x="507" y="496" type="curve" smooth="yes"/>
      <point x="487" y="526"/>
      <point x="442" y="550"/>
      <point x="387" y="550" type="curve" smooth="yes"/>
      <point x="314" y="550"/>
      <point x="244" y="507"/>
      <point x="206" y="440" type="curve"/>
      <point x="202" y="440" type="line"/>
      <point x="180" y="540" type="line"/>
      <point x="36" y="540" type="line"/>
      <point x="36" y="499" type="line"/>
      <point x="113" y="480" type="line"/>
    </contour>
  </outline>
</glyph>
<glyph name="n" format="2">
  <advance width="655"/>
  <unicode hex="006E"/>
  <anchor x="347" y="639" name="top"/>
  <anchor x="334" y="0" name="bottom"/>
  <outline>
    <contour>
      <point x="113" y="60" type="line"/>
      <point x="36" y="41" type="line"/>
      <point x="36" y="0" type="line"/>
      <point x="277" y="0" type="line"/>
      <point x="277" y="41" type="line"/>
      <point x="210" y="60" type="line"/>
      <point x="210" y="327" type="line"/>
      <point x="213" y="382"/>
      <point x="226" y="416"/>
      <point x="255" y="442" type="curve" smooth="yes"/>
      <point x="281" y="465"/>
      <point x="318" y="479"/>
      <point x="355" y="479" type="curve" smooth="yes"/>
      <point x="396" y="479"/>
      <point x="427" y="462"/>
      <point x="443" y="430" type="curve" smooth="yes"/>
      <point x="455" y="406"/>
      <point x="459" y="369"/>
      <point x="459" y="283" type="curve" smooth="yes"/>
      <point x="459" y="60" type="line"/>
      <point x="392" y="41" type="line"/>
      <point x="392" y="0" type="line"/>
      <point x="633" y="0" type="line"/>
      <point x="633" y="41" type="line"/>
      <point x="556" y="60" type="line"/>
      <point x="556" y="281" type="line" smooth="yes"/>
      <point x="556" y="395"/>
      <point x="545" y="459"/>
      <point x="519" y="496" type="curve" smooth="yes"/>
      <point x="494" y="530"/>
      <point x="449" y="550"/>
      <point x="396" y="550" type="curve" smooth="yes"/>
      <point x="318" y="550"/>
      <point x="246" y="508"/>
      <point x="206" y="440" type="curve"/>
      <point x="202" y="440" type="line"/>
      <point x="180" y="540" type="line"/>
      <point x="36" y="540" type="line"/>
      <point x="36" y="499" type="line"/>
      <point x="113" y="480" type="line"/>
    </contour>
  </outline>
</glyph>
<glyph name="o" format="1">
  <advance width="582"/>
  <unicode hex="006F"/>
  <outline>
    <contour>
      <point x="536" y="275" type="curve" smooth="yes"/>
      <point x="536" y="360"/>
      <point x="511" y="438"/>
      <point x="465" y="487" type="curve" smooth="yes"/>
      <point x="425" y="529"/>
      <point x="365" y="550"/>
      <point x="292" y="550" type="curve" smooth="yes"/>
      <point x="218" y="550"/>
      <point x="162" y="530"/>
      <point x="120" y="485" type="curve" smooth="yes"/>
      <point x="72" y="434"/>
      <point x="46" y="350"/>
      <point x="46" y="263" type="curve" smooth="yes"/>
      <point x="46" y="178"/>
      <point x="72" y="102"/>
      <point x="117" y="53" type="curve" smooth="yes"/>
      <point x="157" y="10"/>
      <point x="215" y="-10"/>
      <point x="288" y="-10" type="curve" smooth="yes"/>
      <point x="363" y="-10"/>
      <point x="422" y="11"/>
      <point x="462" y="55" type="curve" smooth="yes"/>
      <point x="508" y="106"/>
      <point x="536" y="188"/>
    </contour>
    <contour>
      <point x="153" y="274" type="curve" smooth="yes"/>
      <point x="153" y="355"/>
      <point x="166" y="416"/>
      <point x="189" y="452" type="curve" smooth="yes"/>
      <point x="209" y="482"/>
      <point x="243" y="498"/>
      <point x="290" y="498" type="curve" smooth="yes"/>
      <point x="341" y="498"/>
      <point x="371" y="479"/>
      <point x="393" y="445" type="curve" smooth="yes"/>
      <point x="416" y="407"/>
      <point x="429" y="347"/>
      <point x="429" y="267" type="curve" smooth="yes"/>
      <point x="429" y="187"/>
      <point x="418" y="123"/>
      <point x="394" y="89" type="curve" smooth="yes"/>
      <point x="372" y="59"/>
      <point x="337" y="42"/>
      <point x="291" y="42" type="curve" smooth="yes"/>
      <point x="240" y="42"/>
      <point x="211" y="61"/>
      <point x="189" y="95" type="curve" smooth="yes"/>
      <point x="166" y="133"/>
      <point x="153" y="193"/>
    </contour>
    <contour>
      <point x="291" y="639" type="move" name="top"/>
    </contour>
    <contour>
      <point x="289" y="0" type="move" name="bottom"/>
    </contour>
  </outline>
</glyph>
<glyph name="p" format="1">
  <advance width="619"/>
  <unicode hex="0070"/>
  <outline>
    <contour>
      <point x="199" y="-120" type="line"/>
      <point x="199" y="74" type="line"/>
      <point x="237" y="19"/>
      <point x="283" y="0"/>
      <point x="340" y="0" type="curve" smooth="yes"/>
      <point x="410" y="0"/>
      <point x="464" y="22"/>
      <point x="501" y="65" type="curve" smooth="yes"/>
      <point x="545" y="116"/>
      <point x="573" y="195"/>
      <point x="573" y="280" type="curve" smooth="yes"/>
      <point x="573" y="363"/>
      <point x="548" y="436"/>
      <point x="508" y="487" type="curve" smooth="yes"/>
      <point x="473" y="531"/>
      <point x="416" y="550"/>
      <point x="348" y="550" type="curve" smooth="yes"/>
      <point x="280" y="550"/>
      <point x="226" y="529"/>
      <point x="184" y="463" type="curve"/>
      <point x="169" y="540" type="line"/>
      <point x="25" y="540" type="line"/>
      <point x="25" y="499" type="line"/>
      <point x="102" y="480" type="line"/>
      <point x="102" y="-120" type="line"/>
      <point x="25" y="-139" type="line"/>
      <point x="25" y="-180" type="line"/>
      <point x="296" y="-180" type="line"/>
      <point x="296" y="-139" type="line"/>
    </contour>
    <contour>
      <point x="198" y="279" type="curve" smooth="yes"/>
      <point x="198" y="358"/>
      <point x="211" y="416"/>
      <point x="233" y="452" type="curve" smooth="yes"/>
      <point x="251" y="483"/>
      <point x="286" y="498"/>
      <point x="332" y="498" type="curve" smooth="yes"/>
      <point x="382" y="498"/>
      <point x="411" y="479"/>
      <point x="433" y="445" type="curve" smooth="yes"/>
      <point x="456" y="408"/>
      <point x="468" y="350"/>
      <point x="468" y="272" type="curve" smooth="yes"/>
      <point x="468" y="194"/>
      <point x="458" y="132"/>
      <point x="434" y="99" type="curve" smooth="yes"/>
      <point x="413" y="69"/>
      <point x="378" y="52"/>
      <point x="333" y="52" type="curve" smooth="yes"/>
      <point x="283" y="52"/>
      <point x="254" y="71"/>
      <point x="233" y="105" type="curve" smooth="yes"/>
      <point x="210" y="141"/>
      <point x="198" y="200"/>
    </contour>
  </outline>
</glyph>
<glyph name="q" format="1">
  <advance width="601"/>
  <unicode hex="0071"/>
  <outline>
    <contour>
      <point x="421" y="-120" type="line"/>
      <point x="324" y="-139" type="line"/>
      <point x="324" y="-180" type="line"/>
      <point x="595" y="-180" type="line"/>
      <point x="595" y="-139" type="line"/>
      <point x="518" y="-120" type="line"/>
      <point x="518" y="540" type="line"/>
      <point x="471" y="540" type="line"/>
      <point x="441" y="437" type="line"/>
      <point x="399" y="522"/>
      <point x="345" y="550"/>
      <point x="275" y="550" type="curve" smooth="yes"/>
      <point x="205" y="550"/>
      <point x="149" y="528"/>
      <point x="114" y="485" type="curve" smooth="yes"/>
      <point x="72" y="434"/>
      <point x="46" y="355"/>
      <point x="46" y="270" type="curve" smooth="yes"/>
      <point x="46" y="187"/>
      <point x="73" y="114"/>
      <point x="115" y="63" type="curve" smooth="yes"/>
      <point x="151" y="19"/>
      <point x="207" y="0"/>
      <point x="275" y="0" type="curve" smooth="yes"/>
      <point x="334" y="0"/>
      <point x="382" y="16"/>
      <point x="421" y="67" type="curve"/>
    </contour>
    <contour>
      <point x="421" y="271" type="curve" smooth="yes"/>
      <point x="421" y="192"/>
      <point x="408" y="134"/>
      <point x="386" y="98" type="curve" smooth="yes"/>
      <point x="368" y="67"/>
      <point x="333" y="52"/>
      <point x="287" y="52" type="curve" smooth="yes"/>
      <point x="237" y="52"/>
      <point x="208" y="71"/>
      <point x="186" y="105" type="curve" smooth="yes"/>
      <point x="163" y="142"/>
      <point x="151" y="200"/>
      <point x="151" y="278" type="curve" smooth="yes"/>
      <point x="151" y="356"/>
      <point x="161" y="418"/>
      <point x="185" y="451" type="curve" smooth="yes"/>
      <point x="206" y="481"/>
      <point x="241" y="498"/>
      <point x="286" y="498" type="curve" smooth="yes"/>
      <point x="336" y="498"/>
      <point x="365" y="479"/>
      <point x="386" y="445" type="curve" smooth="yes"/>
      <point x="409" y="409"/>
      <point x="421" y="350"/>
    </contour>
  </outline>
</glyph>
<glyph name="r" format="1">
  <advance width="458"/>
  <unicode hex="0072"/>
  <outline>
    <contour>
      <point x="337" y="482" type="curve"/>
      <point x="333" y="468"/>
      <point x="332" y="463"/>
      <point x="332" y="455" type="curve" smooth="yes"/>
      <point x="332" y="419"/>
      <point x="353" y="395"/>
      <point x="388" y="395" type="curve" smooth="yes"/>
      <point x="423" y="395"/>
      <point x="445" y="420"/>
      <point x="445" y="460" type="curve" smooth="yes"/>
      <point x="445" y="514"/>
      <point x="406" y="550"/>
      <point x="354" y="550" type="curve" smooth="yes"/>
      <point x="291" y="550"/>
      <point x="236" y="498"/>
      <point x="206" y="408" type="curve"/>
      <point x="202" y="408" type="line"/>
      <point x="180" y="540" type="line"/>
      <point x="36" y="540" type="line"/>
      <point x="36" y="499" type="line"/>
      <point x="113" y="480" type="line"/>
      <point x="113" y="60" type="line"/>
      <point x="36" y="41" type="line"/>
      <point x="36" y="0" type="line"/>
      <point x="318" y="0" type="line"/>
      <point x="318" y="41" type="line"/>
      <point x="210" y="60" type="line"/>
      <point x="210" y="247" type="line" smooth="yes"/>
      <point x="210" y="304"/>
      <point x="221" y="360"/>
      <point x="240" y="405" type="curve" smooth="yes"/>
      <point x="261" y="453"/>
      <point x="292" y="488"/>
      <point x="317" y="488" type="curve" smooth="yes"/>
      <point x="323" y="488"/>
      <point x="331" y="486"/>
    </contour>
    <contour>
      <point x="244" y="639" type="move" name="top"/>
    </contour>
    <contour>
      <point x="161" y="0" type="move" name="bottom"/>
    </contour>
  </outline>
</glyph>
<glyph name="s" format="2">
  <advance width="503"/>
  <unicode hex="0073"/>
  <anchor x="262" y="639" name="top"/>
  <anchor x="240" y="0" name="bottom"/>
  <outline>
    <contour>
      <point x="244" y="36" type="curve" smooth="yes"/>
      <point x="187" y="36"/>
      <point x="138" y="54"/>
      <point x="121" y="80" type="curve"/>
      <point x="141" y="90"/>
      <point x="157" y="116"/>
      <point x="157" y="141" type="curve" smooth="yes"/>
      <point x="157" y="171"/>
      <point x="132" y="192"/>
      <point x="100" y="192" type="curve" smooth="yes"/>
      <point x="64" y="192"/>
      <point x="44" y="165"/>
      <point x="44" y="123" type="curve" smooth="yes"/>
      <point x="44" y="41"/>
      <point x="122" y="-10"/>
      <point x="240" y="-10" type="curve" smooth="yes"/>
      <point x="368" y="-10"/>
      <point x="458" y="49"/>
      <point x="458" y="152" type="curve" smooth="yes"/>
      <point x="458" y="259"/>
      <point x="362" y="289"/>
      <point x="272" y="317" type="curve" smooth="yes"/>
      <point x="190" y="343"/>
      <point x="146" y="359"/>
      <point x="146" y="419" type="curve" smooth="yes"/>
      <point x="146" y="475"/>
      <point x="186" y="504"/>
      <point x="266" y="504" type="curve" smooth="yes"/>
      <point x="315" y="504"/>
      <point x="345" y="492"/>
      <point x="365" y="464" type="curve"/>
      <point x="344" y="455"/>
      <point x="329" y="432"/>
      <point x="329" y="407" type="curve" smooth="yes"/>
      <point x="329" y="378"/>
      <point x="351" y="357"/>
      <point x="382" y="357" type="curve" smooth="yes"/>
      <point x="416" y="357"/>
      <point x="436" y="383"/>
      <point x="436" y="425" type="curve" smooth="yes"/>
      <point x="436" y="502"/>
      <point x="369" y="550"/>
      <point x="263" y="550" type="curve" smooth="yes"/>
      <point x="138" y="550"/>
      <point x="64" y="487"/>
      <point x="64" y="391" type="curve" smooth="yes"/>
      <point x="64" y="289"/>
      <point x="147" y="255"/>
      <point x="229" y="230" type="curve" smooth="yes"/>
      <point x="294" y="211"/>
      <point x="371" y="189"/>
      <point x="371" y="123" type="curve" smooth="yes"/>
      <point x="371" y="68"/>
      <point x="319" y="36"/>
    </contour>
  </outline>
</glyph>
<glyph name="t" format="1">
  <advance width="341"/>
  <unicode hex="0074"/>
  <outline>
    <contour>
      <point x="9" y="490" type="line"/>
      <point x="106" y="490" type="line"/>
      <point x="106" y="114" type="line" smooth="yes"/>
      <point x="106" y="64"/>
      <point x="108" y="43"/>
      <point x="114" y="27" type="curve" smooth="yes"/>
      <point x="123" y="2"/>
      <point x="142" y="-10"/>
      <point x="172" y="-10" type="curve" smooth="yes"/>
      <point x="201" y="-10"/>
      <point x="251" y="1"/>
      <point x="315" y="25" type="curve"/>
      <point x="315" y="54" type="line"/>
      <point x="245" y="54" type="line" smooth="yes"/>
      <point x="221" y="54"/>
      <point x="212" y="56"/>
      <point x="208" y="66" type="curve" smooth="yes"/>
      <point x="204" y="76"/>
      <point x="203" y="88"/>
      <point x="203" y="133" type="curve" smooth="yes"/>
      <point x="203" y="490" type="line"/>
      <point x="331" y="490" type="line"/>
      <point x="331" y="540" type="line"/>
      <point x="203" y="540" type="line"/>
      <point x="203" y="678" type="line"/>
      <point x="119" y="666" type="line"/>
      <point x="106" y="540" type="line"/>
      <point x="9" y="526" type="line"/>
    </contour>
    <contour>
      <point x="163" y="0" type="move" name="bottom"/>
    </contour>
  </outline>
</glyph>
<glyph name="u" format="2">
  <advance width="633"/>
  <unicode hex="0075"/>
  <guideline x="0.0" y="247.0" angle="0.0" identifier="W6dzbHnLf6"/>
  <anchor x="311" y="639" name="top"/>
  <anchor x="292" y="0" name="bottom"/>
  <outline>
    <contour>
      <point x="193" y="540" type="line"/>
      <point x="29" y="540" type="line"/>
      <point x="29" y="499" type="line"/>
      <point x="96" y="480" type="line"/>
      <point x="96" y="259" type="line" smooth="yes"/>
      <point x="96" y="145"/>
      <point x="107" y="81"/>
      <point x="133" y="44" type="curve" smooth="yes"/>
      <point x="157" y="10"/>
      <point x="201" y="-10"/>
      <point x="252" y="-10" type="curve" smooth="yes"/>
      <point x="328" y="-10"/>
      <point x="399" y="32"/>
      <point x="438" y="100" type="curve"/>
      <point x="442" y="100" type="line"/>
      <point x="453" y="-10" type="line"/>
      <point x="608" y="0" type="line"/>
      <point x="608" y="41" type="line"/>
      <point x="531" y="60" type="line"/>
      <point x="531" y="540" type="line"/>
      <point x="347" y="540" type="line"/>
      <point x="347" y="499" type="line"/>
      <point x="434" y="480" type="line"/>
      <point x="434" y="213" type="line"/>
      <point x="431" y="158"/>
      <point x="418" y="124"/>
      <point x="389" y="98" type="curve" smooth="yes"/>
      <point x="364" y="75"/>
      <point x="329" y="61"/>
      <point x="293" y="61" type="curve" smooth="yes"/>
      <point x="254" y="61"/>
      <point x="224" y="78"/>
      <point x="209" y="110" type="curve" smooth="yes"/>
      <point x="197" y="134"/>
      <point x="193" y="171"/>
      <point x="193" y="257" type="curve" smooth="yes"/>
    </contour>
  </outline>
</glyph>
<glyph name="v" format="1">
  <advance width="593"/>
  <unicode hex="0076"/>
  <outline>
    <contour>
      <point x="348" y="-10" type="line"/>
      <point x="525" y="480" type="line"/>
      <point x="583" y="499" type="line"/>
      <point x="583" y="540" type="line"/>
      <point x="393" y="540" type="line"/>
      <point x="393" y="499" type="line"/>
      <point x="455" y="480" type="line"/>
      <point x="314" y="61" type="line"/>
      <point x="310" y="61" type="line"/>
      <point x="169" y="480" type="line"/>
      <point x="235" y="499" type="line"/>
      <point x="235" y="540" type="line"/>
      <point x="11" y="540" type="line"/>
      <point x="11" y="499" type="line"/>
      <point x="67" y="480" type="line"/>
      <point x="245" y="-10" type="line"/>
    </contour>
  </outline>
</glyph>
<glyph name="w" format="2">
  <advance width="877"/>
  <unicode hex="0077"/>
  <anchor x="453" y="639" name="top"/>
  <outline>
    <contour>
      <point x="168" y="480" type="line"/>
      <point x="237" y="499" type="line"/>
      <point x="237" y="540" type="line"/>
      <point x="13" y="540" type="line"/>
      <point x="13" y="499" type="line"/>
      <point x="66" y="480" type="line"/>
      <point x="219" y="-10" type="line"/>
      <point x="322" y="-10" type="line"/>
      <point x="438" y="380" type="line"/>
      <point x="557" y="-10" type="line"/>
      <point x="660" y="-10" type="line"/>
      <point x="809" y="480" type="line"/>
      <point x="863" y="499" type="line"/>
      <point x="863" y="540" type="line"/>
      <point x="673" y="540" type="line"/>
      <point x="673" y="499" type="line"/>
      <point x="738" y="480" type="line"/>
      <point x="638" y="120" type="line"/>
      <point x="626" y="61" type="line"/>
      <point x="622" y="61" type="line"/>
      <point x="610" y="120" type="line"/>
      <point x="489" y="550" type="line"/>
      <point x="417" y="550" type="line"/>
      <point x="300" y="120" type="line"/>
      <point x="288" y="61" type="line"/>
      <point x="283" y="61" type="line"/>
      <point x="271" y="120" type="line"/>
    </contour>
  </outline>
</glyph>
<glyph name="x" format="2">
  <advance width="573"/>
  <unicode hex="0078"/>
  <outline>
    <contour>
      <point x="181" y="480" type="line"/>
      <point x="225" y="499" type="line"/>
      <point x="225" y="540" type="line"/>
      <point x="18" y="540" type="line"/>
      <point x="18" y="499" type="line"/>
      <point x="74" y="480" type="line"/>
      <point x="244" y="260" type="line"/>
      <point x="74" y="60" type="line"/>
      <point x="18" y="41" type="line"/>
      <point x="18" y="0" type="line"/>
      <point x="206" y="0" type="line"/>
      <point x="206" y="41" type="line"/>
      <point x="146" y="60" type="line"/>
      <point x="270" y="226" type="line"/>
      <point x="399" y="60" type="line"/>
      <point x="342" y="41" type="line"/>
      <point x="342" y="0" type="line"/>
      <point x="561" y="0" type="line"/>
      <point x="561" y="41" type="line"/>
      <point x="506" y="59" type="line"/>
      <point x="329" y="287" type="line"/>
      <point x="491" y="480" type="line"/>
      <point x="548" y="499" type="line"/>
      <point x="548" y="540" type="line"/>
      <point x="360" y="540" type="line"/>
      <point x="360" y="499" type="line"/>
      <point x="420" y="480" type="line"/>
      <point x="303" y="321" type="line"/>
    </contour>
  </outline>
</glyph>
<glyph name="y" format="1">
  <advance width="590"/>
  <unicode hex="0079"/>
  <outline>
    <contour>
      <point x="514" y="480" type="line"/>
      <point x="575" y="499" type="line"/>
      <point x="575" y="540" type="line"/>
      <point x="385" y="540" type="line"/>
      <point x="385" y="499" type="line"/>
      <point x="443" y="480" type="line"/>
      <point x="317" y="88" type="line"/>
      <point x="313" y="88" type="line"/>
      <point x="164" y="480" type="line"/>
      <point x="235" y="499" type="line"/>
      <point x="227" y="540" type="line"/>
      <point x="3" y="540" type="line"/>
      <point x="3" y="499" type="line"/>
      <point x="63" y="480" type="line"/>
      <point x="270" y="-7" type="line"/>
      <point x="258" y="-44" type="line" smooth="yes"/>
      <point x="225" y="-140"/>
      <point x="204" y="-151"/>
      <point x="177" y="-151" type="curve" smooth="yes"/>
      <point x="167" y="-151"/>
      <point x="151" y="-148"/>
      <point x="148" y="-134" type="curve"/>
      <point x="160" y="-121"/>
      <point x="168" y="-103"/>
      <point x="168" y="-84" type="curve" smooth="yes"/>
      <point x="168" y="-55"/>
      <point x="148" y="-37"/>
      <point x="118" y="-37" type="curve" smooth="yes"/>
      <point x="83" y="-37"/>
      <point x="60" y="-65"/>
      <point x="60" y="-102" type="curve" smooth="yes"/>
      <point x="60" y="-153"/>
      <point x="111" y="-190"/>
      <point x="174" y="-190" type="curve" smooth="yes"/>
      <point x="262" y="-190"/>
      <point x="291" y="-131"/>
      <point x="348" y="24" type="curve" smooth="yes"/>
    </contour>
    <contour>
      <point x="313" y="639" type="move" name="top"/>
    </contour>
  </outline>
</glyph>
<glyph name="z" format="1">
  <advance width="538"/>
  <unicode hex="007A"/>
  <outline>
    <contour>
      <point x="410" y="56" type="line"/>
      <point x="155" y="56" type="line"/>
      <point x="483" y="484" type="line"/>
      <point x="483" y="540" type="line"/>
      <point x="57" y="540" type="line"/>
      <point x="57" y="353" type="line"/>
      <point x="114" y="353" type="line"/>
      <point x="138" y="484" type="line"/>
      <point x="372" y="484" type="line"/>
      <point x="44" y="56" type="line"/>
      <point x="44" y="0" type="line"/>
      <point x="487" y="0" type="line"/>
      <point x="487" y="192" type="line"/>
      <point x="430" y="192" type="line"/>
    </contour>
    <contour>
      <point x="270" y="639" type="move" name="top"/>
    </contour>
    <contour>
      <point x="265" y="0" type="move" name="bottom"/>
    </contour>
  </outline>
</glyph>
<glyph name="braceleft" format="1">
  <advance width="404"/>
  <unicode hex="007B"/>
  <outline>
    <contour>
      <point x="6" y="327" type="line"/>
      <point x="40" y="327" type="line" smooth="yes"/>
      <point x="114" y="327"/>
      <point x="145" y="293"/>
      <point x="145" y="214" type="curve" smooth="yes"/>
      <point x="145" y="177"/>
      <point x="138" y="76"/>
      <point x="138" y="39" type="curve" smooth="yes"/>
      <point x="138" y="-84"/>
      <point x="213" y="-142"/>
      <point x="380" y="-150" type="curve"/>
      <point x="380" y="-90" type="line"/>
      <point x="273" y="-85"/>
      <point x="232" y="-53"/>
      <point x="232" y="26" type="curve" smooth="yes"/>
      <point x="232" y="51"/>
      <point x="236" y="147"/>
      <point x="236" y="185" type="curve" smooth="yes"/>
      <point x="236" y="291"/>
      <point x="205" y="339"/>
      <point x="127" y="357" type="curve"/>
      <point x="127" y="362" type="line"/>
      <point x="204" y="389"/>
      <point x="236" y="437"/>
      <point x="236" y="529" type="curve" smooth="yes"/>
      <point x="236" y="562"/>
      <point x="232" y="655"/>
      <point x="232" y="679" type="curve" smooth="yes"/>
      <point x="232" y="757"/>
      <point x="272" y="788"/>
      <point x="380" y="795" type="curve"/>
      <point x="380" y="855" type="line"/>
      <point x="213" y="847"/>
      <point x="138" y="788"/>
      <point x="138" y="667" type="curve" smooth="yes"/>
      <point x="138" y="630"/>
      <point x="145" y="535"/>
      <point x="145" y="498" type="curve" smooth="yes"/>
      <point x="145" y="420"/>
      <point x="113" y="386"/>
      <point x="40" y="386" type="curve" smooth="yes"/>
      <point x="6" y="386" type="line"/>
    </contour>
  </outline>
</glyph>
<glyph name="bar" format="1">
  <advance width="245"/>
  <unicode hex="007C"/>
  <outline>
    <contour>
      <point x="94" y="-170" type="line"/>
      <point x="151" y="-170" type="line"/>
      <point x="151" y="770" type="line"/>
      <point x="94" y="770" type="line"/>
    </contour>
  </outline>
</glyph>
<glyph name="braceright" format="1">
  <advance width="404"/>
  <unicode hex="007D"/>
  <outline>
    <contour>
      <point x="398" y="386" type="line"/>
      <point x="364" y="386" type="line" smooth="yes"/>
      <point x="291" y="386"/>
      <point x="259" y="420"/>
      <point x="259" y="498" type="curve" smooth="yes"/>
      <point x="259" y="535"/>
      <point x="266" y="630"/>
      <point x="266" y="667" type="curve" smooth="yes"/>
      <point x="266" y="788"/>
      <point x="191" y="847"/>
      <point x="24" y="855" type="curve"/>
      <point x="24" y="795" type="line"/>
      <point x="132" y="788"/>
      <point x="172" y="757"/>
      <point x="172" y="679" type="curve" smooth="yes"/>
      <point x="172" y="655"/>
      <point x="168" y="562"/>
      <point x="168" y="529" type="curve" smooth="yes"/>
      <point x="168" y="437"/>
      <point x="200" y="389"/>
      <point x="277" y="362" type="curve"/>
      <point x="277" y="357" type="line"/>
      <point x="199" y="339"/>
      <point x="168" y="291"/>
      <point x="168" y="185" type="curve" smooth="yes"/>
      <point x="168" y="147"/>
      <point x="172" y="51"/>
      <point x="172" y="26" type="curve" smooth="yes"/>
      <point x="172" y="-53"/>
      <point x="131" y="-85"/>
      <point x="24" y="-90" type="curve"/>
      <point x="24" y="-150" type="line"/>
      <point x="191" y="-142"/>
      <point x="266" y="-84"/>
      <point x="266" y="39" type="curve" smooth="yes"/>
      <point x="266" y="76"/>
      <point x="259" y="177"/>
      <point x="259" y="214" type="curve" smooth="yes"/>
      <point x="259" y="293"/>
      <point x="290" y="327"/>
      <point x="364" y="327" type="curve" smooth="yes"/>
      <point x="398" y="327" type="line"/>
    </contour>
  </outline>
</glyph>
<glyph name="asciitilde" format="2">
  <advance width="485"/>
  <unicode hex="007E"/>
  <outline>
    <contour>
      <point x="76" y="304" type="curve"/>
      <point x="121" y="304" type="line"/>
      <point x="127" y="332"/>
      <point x="147" y="349"/>
      <point x="175" y="349" type="curve" smooth="yes"/>
      <point x="223" y="349"/>
      <point x="250" y="293"/>
      <point x="317" y="293" type="curve" smooth="yes"/>
      <point x="371" y="293"/>
      <point x="403" y="332"/>
      <point x="414" y="414" type="curve"/>
      <point x="369" y="414" type="line"/>
      <point x="363" y="382"/>
      <point x="343" y="364"/>
      <point x="315" y="364" type="curve" smooth="yes"/>
      <point x="267" y="364"/>
      <point x="241" y="419"/>
      <point x="173" y="419" type="curve" smooth="yes"/>
      <point x="118" y="419"/>
      <point x="86" y="381"/>
    </contour>
  </outline>
</glyph>
<glyph name="exclamdown" format="1">
  <advance width="265"/>
  <unicode hex="00A1"/>
  <outline>
    <contour>
      <point x="104" y="335" type="line"/>
      <point x="104" y="232"/>
      <point x="92" y="88"/>
      <point x="88" y="40" type="curve" smooth="yes"/>
      <point x="84" y="-9"/>
      <point x="75" y="-55"/>
      <point x="75" y="-110" type="curve" smooth="yes"/>
      <point x="75" y="-157"/>
      <point x="94" y="-190"/>
      <point x="134" y="-190" type="curve" smooth="yes"/>
      <point x="175" y="-190"/>
      <point x="189" y="-154"/>
      <point x="189" y="-111" type="curve" smooth="yes"/>
      <point x="189" y="-55"/>
      <point x="180" y="-9"/>
      <point x="176" y="40" type="curve" smooth="yes"/>
      <point x="172" y="88"/>
      <point x="160" y="232"/>
      <point x="160" y="335" type="curve"/>
    </contour>
    <contour>
      <point x="194" y="488" type="curve" smooth="yes"/>
      <point x="194" y="528"/>
      <point x="171" y="550"/>
      <point x="133" y="550" type="curve" smooth="yes"/>
      <point x="94" y="550"/>
      <point x="70" y="527"/>
      <point x="70" y="488" type="curve" smooth="yes"/>
      <point x="70" y="450"/>
      <point x="93" y="425"/>
      <point x="132" y="425" type="curve" smooth="yes"/>
      <point x="171" y="425"/>
      <point x="194" y="449"/>
    </contour>
  </outline>
</glyph>
<glyph name="cent" format="2">
  <advance width="551"/>
  <unicode hex="00A2"/>
  <outline>
    <contour>
      <point x="266" y="-108" type="line"/>
      <point x="313" y="-108" type="line"/>
      <point x="313" y="-9" type="line"/>
      <point x="394" y="-3"/>
      <point x="454" y="35"/>
      <point x="503" y="110" type="curve"/>
      <point x="473" y="134" type="line"/>
      <point x="433" y="85"/>
      <point x="374" y="57"/>
      <point x="313" y="57" type="curve"/>
      <point x="313" y="499" type="line"/>
      <point x="372" y="499"/>
      <point x="412" y="482"/>
      <point x="434" y="444" type="curve"/>
      <point x="403" y="435"/>
      <point x="384" y="409"/>
      <point x="384" y="376" type="curve" smooth="yes"/>
      <point x="384" y="340"/>
      <point x="407" y="317"/>
      <point x="445" y="317" type="curve" smooth="yes"/>
      <point x="486" y="317"/>
      <point x="507" y="344"/>
      <point x="507" y="393" type="curve" smooth="yes"/>
      <point x="507" y="487"/>
      <point x="428" y="549"/>
      <point x="313" y="550" type="curve"/>
      <point x="313" y="652" type="line"/>
      <point x="266" y="652" type="line"/>
      <point x="266" y="547" type="line"/>
      <point x="132" y="528"/>
      <point x="51" y="420"/>
      <point x="51" y="264" type="curve" smooth="yes"/>
      <point x="51" y="202"/>
      <point x="64" y="145"/>
      <point x="87" y="102" type="curve" smooth="yes"/>
      <point x="122" y="35"/>
      <point x="184" y="-3"/>
      <point x="266" y="-9" type="curve"/>
    </contour>
    <contour>
      <point x="182" y="134" type="curve" smooth="yes"/>
      <point x="165" y="167"/>
      <point x="156" y="214"/>
      <point x="156" y="279" type="curve" smooth="yes"/>
      <point x="156" y="406"/>
      <point x="189" y="474"/>
      <point x="266" y="493" type="curve"/>
      <point x="266" y="63" type="line"/>
      <point x="229" y="74"/>
      <point x="200" y="97"/>
    </contour>
  </outline>
</glyph>
<glyph name="sterling" format="2">
  <advance width="606"/>
  <unicode hex="00A3"/>
  <outline>
    <contour>
      <point x="75" y="326" type="line"/>
      <point x="227" y="326" type="line"/>
      <point x="241" y="292"/>
      <point x="246" y="264"/>
      <point x="246" y="225" type="curve" smooth="yes"/>
      <point x="246" y="199"/>
      <point x="244" y="174"/>
      <point x="240" y="158" type="curve"/>
      <point x="211" y="168"/>
      <point x="171" y="175"/>
      <point x="143" y="175" type="curve" smooth="yes"/>
      <point x="78" y="175"/>
      <point x="35" y="137"/>
      <point x="35" y="79" type="curve" smooth="yes"/>
      <point x="35" y="25"/>
      <point x="74" y="-10"/>
      <point x="133" y="-10" type="curve" smooth="yes"/>
      <point x="184" y="-10"/>
      <point x="226" y="17"/>
      <point x="267" y="76" type="curve"/>
      <point x="369" y="6"/>
      <point x="401" y="-10"/>
      <point x="442" y="-10" type="curve" smooth="yes"/>
      <point x="511" y="-10"/>
      <point x="547" y="36"/>
      <point x="562" y="145" type="curve"/>
      <point x="517" y="145" type="line"/>
      <point x="506" y="95"/>
      <point x="482" y="75"/>
      <point x="435" y="75" type="curve" smooth="yes"/>
      <point x="400" y="75"/>
      <point x="367" y="87"/>
      <point x="294" y="126" type="curve"/>
      <point x="308" y="167"/>
      <point x="316" y="208"/>
      <point x="316" y="245" type="curve" smooth="yes"/>
      <point x="316" y="265"/>
      <point x="314" y="286"/>
      <point x="307" y="326" type="curve"/>
      <point x="461" y="326" type="line"/>
      <point x="461" y="389" type="line"/>
      <point x="288" y="389" type="line"/>
      <point x="259" y="460"/>
      <point x="246" y="513"/>
      <point x="246" y="555" type="curve" smooth="yes"/>
      <point x="246" y="624"/>
      <point x="283" y="655"/>
      <point x="364" y="655" type="curve" smooth="yes"/>
      <point x="414" y="655"/>
      <point x="444" y="643"/>
      <point x="465" y="615" type="curve"/>
      <point x="444" y="604"/>
      <point x="429" y="581"/>
      <point x="429" y="558" type="curve" smooth="yes"/>
      <point x="429" y="529"/>
      <point x="451" y="508"/>
      <point x="482" y="508" type="curve" smooth="yes"/>
      <point x="516" y="508"/>
      <point x="536" y="534"/>
      <point x="536" y="576" type="curve" smooth="yes"/>
      <point x="536" y="653"/>
      <point x="469" y="701"/>
      <point x="361" y="701" type="curve" smooth="yes"/>
      <point x="236" y="701"/>
      <point x="159" y="637"/>
      <point x="159" y="532" type="curve" smooth="yes"/>
      <point x="159" y="490"/>
      <point x="171" y="447"/>
      <point x="199" y="389" type="curve"/>
      <point x="75" y="389" type="line"/>
    </contour>
    <contour>
      <point x="138" y="41" type="curve" smooth="yes"/>
      <point x="109" y="41"/>
      <point x="93" y="55"/>
      <point x="93" y="81" type="curve" smooth="yes"/>
      <point x="93" y="108"/>
      <point x="111" y="125"/>
      <point x="141" y="125" type="curve" smooth="yes"/>
      <point x="161" y="125"/>
      <point x="193" y="117"/>
      <point x="215" y="107" type="curve"/>
      <point x="197" y="62"/>
      <point x="172" y="41"/>
    </contour>
  </outline>
</glyph>
<glyph name="currency" format="2">
  <advance width="568"/>
  <unicode hex="00A4"/>
  <outline>
    <contour>
      <point x="286" y="178" type="curve" smooth="yes"/>
      <point x="386" y="178"/>
      <point x="465" y="254"/>
      <point x="465" y="353" type="curve" smooth="yes"/>
      <point x="465" y="454"/>
      <point x="392" y="526"/>
      <point x="286" y="526" type="curve" smooth="yes"/>
      <point x="185" y="526"/>
      <point x="108" y="450"/>
      <point x="108" y="351" type="curve" smooth="yes"/>
      <point x="108" y="249"/>
      <point x="180" y="178"/>
    </contour>
    <contour>
      <point x="290" y="233" type="curve" smooth="yes"/>
      <point x="224" y="233"/>
      <point x="178" y="284"/>
      <point x="178" y="351" type="curve" smooth="yes"/>
      <point x="178" y="420"/>
      <point x="222" y="469"/>
      <point x="283" y="469" type="curve" smooth="yes"/>
      <point x="349" y="469"/>
      <point x="395" y="421"/>
      <point x="395" y="351" type="curve" smooth="yes"/>
      <point x="395" y="280"/>
      <point x="352" y="233"/>
    </contour>
    <contour>
      <point x="174" y="429" type="line"/>
      <point x="216" y="471" type="line"/>
      <point x="109" y="570" type="line"/>
      <point x="75" y="537" type="line"/>
    </contour>
    <contour>
      <point x="397" y="429" type="line"/>
      <point x="496" y="537" type="line"/>
      <point x="462" y="570" type="line"/>
      <point x="355" y="471" type="line"/>
    </contour>
    <contour>
      <point x="164" y="284" type="line"/>
      <point x="65" y="176" type="line"/>
      <point x="99" y="143" type="line"/>
      <point x="206" y="242" type="line"/>
    </contour>
    <contour>
      <point x="407" y="284" type="line"/>
      <point x="365" y="242" type="line"/>
      <point x="472" y="143" type="line"/>
      <point x="506" y="176" type="line"/>
    </contour>
  </outline>
</glyph>
<glyph name="yen" format="1">
  <advance width="744"/>
  <unicode hex="00A5"/>
  <outline>
    <contour>
      <point x="157" y="283" type="line"/>
      <point x="318" y="283" type="line"/>
      <point x="328" y="266" type="line"/>
      <point x="328" y="204" type="line"/>
      <point x="157" y="204" type="line"/>
      <point x="157" y="145" type="line"/>
      <point x="328" y="145" type="line"/>
      <point x="328" y="64" type="line"/>
      <point x="234" y="43" type="line"/>
      <point x="234" y="0" type="line"/>
      <point x="522" y="0" type="line"/>
      <point x="522" y="43" type="line"/>
      <point x="428" y="64" type="line"/>
      <point x="428" y="145" type="line"/>
      <point x="585" y="145" type="line"/>
      <point x="585" y="204" type="line"/>
      <point x="428" y="204" type="line"/>
      <point x="428" y="283" type="line"/>
      <point x="585" y="283" type="line"/>
      <point x="585" y="341" type="line"/>
      <point x="460" y="341" type="line"/>
      <point x="632" y="656" type="line"/>
      <point x="714" y="677" type="line"/>
      <point x="714" y="720" type="line"/>
      <point x="487" y="720" type="line"/>
      <point x="487" y="677" type="line"/>
      <point x="568" y="656" type="line"/>
      <point x="396" y="341" type="line"/>
      <point x="391" y="341" type="line"/>
      <point x="222" y="656" type="line"/>
      <point x="306" y="677" type="line"/>
      <point x="306" y="720" type="line"/>
      <point x="30" y="720" type="line"/>
      <point x="30" y="677" type="line"/>
      <point x="113" y="656" type="line"/>
      <point x="286" y="341" type="line"/>
      <point x="157" y="341" type="line"/>
    </contour>
  </outline>
</glyph>
<glyph name="brokenbar" format="2">
  <advance width="249"/>
  <unicode hex="00A6"/>
  <outline>
    <contour>
      <point x="96" y="-170" type="line"/>
      <point x="153" y="-170" type="line"/>
      <point x="153" y="248" type="line"/>
      <point x="96" y="248" type="line"/>
    </contour>
    <contour>
      <point x="96" y="368" type="line"/>
      <point x="153" y="368" type="line"/>
      <point x="153" y="770" type="line"/>
      <point x="96" y="770" type="line"/>
    </contour>
  </outline>
</glyph>
<glyph name="section" format="2">
  <advance width="530"/>
  <unicode hex="00A7"/>
  <outline>
    <contour>
      <point x="482" y="250" type="curve" smooth="yes"/>
      <point x="482" y="361"/>
      <point x="389" y="412"/>
      <point x="296" y="458" type="curve" smooth="yes"/>
      <point x="217" y="497"/>
      <point x="170" y="521"/>
      <point x="170" y="592" type="curve" smooth="yes"/>
      <point x="170" y="655"/>
      <point x="207" y="684"/>
      <point x="287" y="684" type="curve" smooth="yes"/>
      <point x="339" y="684"/>
      <point x="368" y="672"/>
      <point x="389" y="644" type="curve"/>
      <point x="368" y="634"/>
      <point x="353" y="611"/>
      <point x="353" y="587" type="curve" smooth="yes"/>
      <point x="353" y="558"/>
      <point x="375" y="537"/>
      <point x="406" y="537" type="curve" smooth="yes"/>
      <point x="440" y="537"/>
      <point x="460" y="563"/>
      <point x="460" y="605" type="curve" smooth="yes"/>
      <point x="460" y="682"/>
      <point x="393" y="730"/>
      <point x="284" y="730" type="curve" smooth="yes"/>
      <point x="161" y="730"/>
      <point x="88" y="669"/>
      <point x="88" y="564" type="curve" smooth="yes"/>
      <point x="88" y="515"/>
      <point x="104" y="477"/>
      <point x="142" y="444" type="curve"/>
      <point x="84" y="413"/>
      <point x="48" y="359"/>
      <point x="48" y="290" type="curve" smooth="yes"/>
      <point x="48" y="179"/>
      <point x="142" y="128"/>
      <point x="234" y="82" type="curve" smooth="yes"/>
      <point x="319" y="40"/>
      <point x="360" y="18"/>
      <point x="360" y="-51" type="curve" smooth="yes"/>
      <point x="360" y="-115"/>
      <point x="323" y="-144"/>
      <point x="242" y="-144" type="curve" smooth="yes"/>
      <point x="190" y="-144"/>
      <point x="161" y="-132"/>
      <point x="141" y="-104" type="curve"/>
      <point x="162" y="-95"/>
      <point x="177" y="-72"/>
      <point x="177" y="-47" type="curve" smooth="yes"/>
      <point x="177" y="-18"/>
      <point x="155" y="3"/>
      <point x="124" y="3" type="curve" smooth="yes"/>
      <point x="90" y="3"/>
      <point x="70" y="-23"/>
      <point x="70" y="-65" type="curve" smooth="yes"/>
      <point x="70" y="-142"/>
      <point x="137" y="-190"/>
      <point x="246" y="-190" type="curve" smooth="yes"/>
      <point x="368" y="-190"/>
      <point x="442" y="-129"/>
      <point x="442" y="-25" type="curve" smooth="yes"/>
      <point x="442" y="24"/>
      <point x="425" y="62"/>
      <point x="387" y="96" type="curve"/>
      <point x="446" y="126"/>
      <point x="482" y="181"/>
    </contour>
    <contour>
      <point x="253" y="377" type="curve" smooth="yes"/>
      <point x="353" y="327"/>
      <point x="395" y="288"/>
      <point x="395" y="221" type="curve" smooth="yes"/>
      <point x="395" y="182"/>
      <point x="381" y="141"/>
      <point x="355" y="121" type="curve"/>
      <point x="312" y="145"/>
      <point x="290" y="155"/>
      <point x="277" y="162" type="curve" smooth="yes"/>
      <point x="179" y="211"/>
      <point x="135" y="253"/>
      <point x="135" y="318" type="curve" smooth="yes"/>
      <point x="135" y="358"/>
      <point x="152" y="401"/>
      <point x="179" y="417" type="curve"/>
      <point x="212" y="397"/>
      <point x="239" y="384"/>
    </contour>
  </outline>
</glyph>
<glyph name="dieresis" format="2">
  <advance width="407"/>
  <unicode hex="00A8"/>
  <anchor x="203" y="639" name="_top"/>
  <outline>
    <contour>
      <point x="30" y="705" type="curve" smooth="yes"/>
      <point x="30" y="669"/>
      <point x="52" y="647"/>
      <point x="88" y="647" type="curve" smooth="yes"/>
      <point x="125" y="647"/>
      <point x="147" y="669"/>
      <point x="147" y="705" type="curve" smooth="yes"/>
      <point x="147" y="741"/>
      <point x="124" y="764"/>
      <point x="88" y="764" type="curve" smooth="yes"/>
      <point x="52" y="764"/>
      <point x="30" y="742"/>
    </contour>
    <contour>
      <point x="260" y="705" type="curve" smooth="yes"/>
      <point x="260" y="669"/>
      <point x="282" y="647"/>
      <point x="318" y="647" type="curve" smooth="yes"/>
      <point x="355" y="647"/>
      <point x="377" y="669"/>
      <point x="377" y="705" type="curve" smooth="yes"/>
      <point x="377" y="741"/>
      <point x="354" y="764"/>
      <point x="318" y="764" type="curve" smooth="yes"/>
      <point x="282" y="764"/>
      <point x="260" y="742"/>
    </contour>
  </outline>
</glyph>
<glyph name="copyright" format="2">
  <advance width="842"/>
  <unicode hex="00A9"/>
  <outline>
    <contour>
      <point x="422" y="-10" type="curve" smooth="yes"/>
      <point x="629" y="-10"/>
      <point x="790" y="152"/>
      <point x="790" y="361" type="curve" smooth="yes"/>
      <point x="790" y="569"/>
      <point x="630" y="730"/>
      <point x="422" y="730" type="curve" smooth="yes"/>
      <point x="213" y="730"/>
      <point x="52" y="569"/>
      <point x="52" y="361" type="curve" smooth="yes"/>
      <point x="52" y="152"/>
      <point x="214" y="-10"/>
    </contour>
    <contour>
      <point x="422" y="30" type="curve" smooth="yes"/>
      <point x="238" y="30"/>
      <point x="99" y="172"/>
      <point x="99" y="361" type="curve" smooth="yes"/>
      <point x="99" y="549"/>
      <point x="238" y="690"/>
      <point x="422" y="690" type="curve" smooth="yes"/>
      <point x="606" y="690"/>
      <point x="745" y="548"/>
      <point x="745" y="361" type="curve" smooth="yes"/>
      <point x="745" y="173"/>
      <point x="606" y="30"/>
    </contour>
    <contour>
      <point x="419" y="525" type="curve" smooth="yes"/>
      <point x="479" y="525"/>
      <point x="515" y="494"/>
      <point x="525" y="432" type="curve"/>
      <point x="557" y="432" type="line"/>
      <point x="557" y="553" type="line"/>
      <point x="528" y="553" type="line"/>
      <point x="518" y="520" type="line"/>
      <point x="490" y="549"/>
      <point x="467" y="559"/>
      <point x="424" y="559" type="curve" smooth="yes"/>
      <point x="379" y="559"/>
      <point x="345" y="548"/>
      <point x="318" y="526" type="curve" smooth="yes"/>
      <point x="273" y="490"/>
      <point x="246" y="426"/>
      <point x="246" y="360" type="curve" smooth="yes"/>
      <point x="246" y="301"/>
      <point x="267" y="247"/>
      <point x="305" y="211" type="curve" smooth="yes"/>
      <point x="334" y="183"/>
      <point x="372" y="169"/>
      <point x="420" y="169" type="curve" smooth="yes"/>
      <point x="502" y="169"/>
      <point x="549" y="210"/>
      <point x="565" y="297" type="curve"/>
      <point x="536" y="297" type="line"/>
      <point x="525" y="238"/>
      <point x="488" y="207"/>
      <point x="426" y="207" type="curve" smooth="yes"/>
      <point x="386" y="207"/>
      <point x="359" y="220"/>
      <point x="340" y="250" type="curve" smooth="yes"/>
      <point x="321" y="279"/>
      <point x="310" y="322"/>
      <point x="310" y="369" type="curve" smooth="yes"/>
      <point x="310" y="420"/>
      <point x="322" y="465"/>
      <point x="344" y="493" type="curve" smooth="yes"/>
      <point x="360" y="515"/>
      <point x="384" y="525"/>
    </contour>
  </outline>
</glyph>
<glyph name="ordfeminine" format="1">
  <advance width="371"/>
  <unicode hex="00AA"/>
  <outline>
    <contour>
      <point x="54" y="492" type="curve" smooth="yes"/>
      <point x="54" y="448"/>
      <point x="82" y="422"/>
      <point x="129" y="422" type="curve" smooth="yes"/>
      <point x="170" y="422"/>
      <point x="208" y="445"/>
      <point x="229" y="482" type="curve"/>
      <point x="233" y="482" type="line"/>
      <point x="233" y="435"/>
      <point x="238" y="422"/>
      <point x="265" y="422" type="curve" smooth="yes"/>
      <point x="280" y="422"/>
      <point x="301" y="427"/>
      <point x="327" y="438" type="curve"/>
      <point x="327" y="454" type="line"/>
      <point x="302" y="454" type="line" smooth="yes"/>
      <point x="286" y="454"/>
      <point x="283" y="466"/>
      <point x="283" y="502" type="curve" smooth="yes"/>
      <point x="283" y="582" type="line" smooth="yes"/>
      <point x="283" y="640"/>
      <point x="272" y="680"/>
      <point x="249" y="703" type="curve" smooth="yes"/>
      <point x="231" y="721"/>
      <point x="205" y="730"/>
      <point x="175" y="730" type="curve" smooth="yes"/>
      <point x="123" y="730"/>
      <point x="64" y="704"/>
      <point x="64" y="658" type="curve" smooth="yes"/>
      <point x="64" y="637"/>
      <point x="77" y="625"/>
      <point x="94" y="625" type="curve" smooth="yes"/>
      <point x="115" y="625"/>
      <point x="131" y="636"/>
      <point x="131" y="655" type="curve" smooth="yes"/>
      <point x="131" y="663"/>
      <point x="126" y="674"/>
      <point x="116" y="680" type="curve"/>
      <point x="121" y="693"/>
      <point x="140" y="701"/>
      <point x="161" y="701" type="curve" smooth="yes"/>
      <point x="180" y="701"/>
      <point x="197" y="691"/>
      <point x="207" y="673" type="curve" smooth="yes"/>
      <point x="215" y="659"/>
      <point x="219" y="638"/>
      <point x="223" y="598" type="curve"/>
      <point x="103" y="579"/>
      <point x="54" y="549"/>
    </contour>
    <contour>
      <point x="157" y="459" type="curve" smooth="yes"/>
      <point x="131" y="459"/>
      <point x="116" y="475"/>
      <point x="116" y="503" type="curve" smooth="yes"/>
      <point x="116" y="542"/>
      <point x="141" y="559"/>
      <point x="222" y="576" type="curve"/>
      <point x="223" y="565"/>
      <point x="224" y="553"/>
      <point x="224" y="541" type="curve" smooth="yes"/>
      <point x="224" y="515"/>
      <point x="218" y="497"/>
      <point x="207" y="484" type="curve" smooth="yes"/>
      <point x="194" y="468"/>
      <point x="173" y="459"/>
    </contour>
  </outline>
</glyph>
<glyph name="guillemotleft" format="1">
  <advance width="535"/>
  <unicode hex="00AB"/>
  <outline>
    <contour>
      <point x="141" y="255" type="line"/>
      <point x="273" y="458" type="line"/>
      <point x="240" y="485" type="line"/>
      <point x="41" y="270" type="line"/>
      <point x="41" y="236" type="line"/>
      <point x="240" y="21" type="line"/>
      <point x="274" y="54" type="line"/>
    </contour>
    <contour>
      <point x="352" y="255" type="line"/>
      <point x="484" y="458" type="line"/>
      <point x="451" y="485" type="line"/>
      <point x="252" y="270" type="line"/>
      <point x="252" y="236" type="line"/>
      <point x="451" y="21" type="line"/>
      <point x="485" y="54" type="line"/>
    </contour>
  </outline>
</glyph>
<glyph name="logicalnot" format="1">
  <advance width="576"/>
  <unicode hex="00AC"/>
  <outline>
    <contour>
      <point x="74" y="328" type="line"/>
      <point x="438" y="328" type="line"/>
      <point x="438" y="189" type="line"/>
      <point x="498" y="189" type="line"/>
      <point x="498" y="398" type="line"/>
      <point x="74" y="398" type="line"/>
    </contour>
  </outline>
</glyph>
<glyph name="registered" format="1">
  <advance width="628"/>
  <unicode hex="00AE"/>
  <outline>
    <contour>
      <point x="314" y="230" type="curve" smooth="yes"/>
      <point x="456" y="230"/>
      <point x="564" y="338"/>
      <point x="564" y="481" type="curve" smooth="yes"/>
      <point x="564" y="625"/>
      <point x="456" y="730"/>
      <point x="314" y="730" type="curve" smooth="yes"/>
      <point x="172" y="730"/>
      <point x="64" y="625"/>
      <point x="64" y="481" type="curve" smooth="yes"/>
      <point x="64" y="338"/>
      <point x="172" y="230"/>
    </contour>
    <contour>
      <point x="314" y="267" type="curve" smooth="yes"/>
      <point x="186" y="267"/>
      <point x="106" y="351"/>
      <point x="106" y="481" type="curve" smooth="yes"/>
      <point x="106" y="610"/>
      <point x="186" y="693"/>
      <point x="314" y="693" type="curve" smooth="yes"/>
      <point x="444" y="693"/>
      <point x="522" y="610"/>
      <point x="522" y="481" type="curve" smooth="yes"/>
      <point x="522" y="351"/>
      <point x="444" y="267"/>
    </contour>
    <contour>
      <point x="386" y="492" type="curve" smooth="yes"/>
      <point x="402" y="505"/>
      <point x="413" y="526"/>
      <point x="413" y="546" type="curve" smooth="yes"/>
      <point x="413" y="584"/>
      <point x="382" y="613"/>
      <point x="332" y="613" type="curve" smooth="yes"/>
      <point x="204" y="613" type="line"/>
      <point x="204" y="598" type="line"/>
      <point x="234" y="590" type="line"/>
      <point x="234" y="379" type="line"/>
      <point x="204" y="371" type="line"/>
      <point x="204" y="356" type="line"/>
      <point x="318" y="356" type="line"/>
      <point x="318" y="371" type="line"/>
      <point x="275" y="379" type="line"/>
      <point x="275" y="471" type="line"/>
      <point x="313" y="471" type="line"/>
      <point x="364" y="371" type="line"/>
      <point x="364" y="356" type="line"/>
      <point x="443" y="356" type="line"/>
      <point x="443" y="371" type="line"/>
      <point x="411" y="378" type="line"/>
      <point x="364" y="458" type="line"/>
      <point x="350" y="478" type="line"/>
      <point x="366" y="481"/>
      <point x="377" y="486"/>
    </contour>
    <contour>
      <point x="275" y="497" type="line"/>
      <point x="275" y="587" type="line"/>
      <point x="319" y="587" type="line" smooth="yes"/>
      <point x="353" y="587"/>
      <point x="368" y="570"/>
      <point x="368" y="544" type="curve" smooth="yes"/>
      <point x="368" y="515"/>
      <point x="348" y="497"/>
      <point x="321" y="497" type="curve" smooth="yes"/>
    </contour>
  </outline>
</glyph>
<glyph name="macron" format="2">
  <advance width="329"/>
  <unicode hex="00AF"/>
  <anchor x="165" y="639" name="_top"/>
  <outline>
    <contour>
      <point x="25" y="665" type="line"/>
      <point x="304" y="665" type="line"/>
      <point x="304" y="730" type="line"/>
      <point x="25" y="730" type="line"/>
    </contour>
  </outline>
</glyph>
<glyph name="degree" format="1">
  <advance width="361"/>
  <unicode hex="00B0"/>
  <outline>
    <contour>
      <point x="181" y="458" type="curve" smooth="yes"/>
      <point x="257" y="458"/>
      <point x="315" y="517"/>
      <point x="315" y="595" type="curve" smooth="yes"/>
      <point x="315" y="675"/>
      <point x="260" y="730"/>
      <point x="181" y="730" type="curve" smooth="yes"/>
      <point x="104" y="730"/>
      <point x="47" y="671"/>
      <point x="47" y="593" type="curve" smooth="yes"/>
      <point x="47" y="513"/>
      <point x="101" y="458"/>
    </contour>
    <contour>
      <point x="183" y="494" type="curve" smooth="yes"/>
      <point x="133" y="494"/>
      <point x="97" y="536"/>
      <point x="97" y="594" type="curve" smooth="yes"/>
      <point x="97" y="652"/>
      <point x="131" y="693"/>
      <point x="179" y="693" type="curve" smooth="yes"/>
      <point x="230" y="693"/>
      <point x="265" y="652"/>
      <point x="265" y="593" type="curve" smooth="yes"/>
      <point x="265" y="534"/>
      <point x="232" y="494"/>
    </contour>
  </outline>
</glyph>
<glyph name="plusminus" format="2">
  <advance width="522"/>
  <unicode hex="00B1"/>
  <outline>
    <contour>
      <point x="72" y="367" type="line"/>
      <point x="232" y="367" type="line"/>
      <point x="232" y="212" type="line"/>
      <point x="290" y="212" type="line"/>
      <point x="290" y="367" type="line"/>
      <point x="450" y="367" type="line"/>
      <point x="450" y="425" type="line"/>
      <point x="290" y="425" type="line"/>
      <point x="290" y="580" type="line"/>
      <point x="232" y="580" type="line"/>
      <point x="232" y="425" type="line"/>
      <point x="72" y="425" type="line"/>
    </contour>
    <contour>
      <point x="72" y="67" type="line"/>
      <point x="450" y="67" type="line"/>
      <point x="450" y="125" type="line"/>
      <point x="72" y="125" type="line"/>
    </contour>
  </outline>
</glyph>
<glyph name="twosuperior" format="2">
  <advance width="318"/>
  <unicode hex="00B2"/>
  <outline>
    <contour>
      <point x="97" y="449" type="line"/>
      <point x="97" y="512"/>
      <point x="261" y="535"/>
      <point x="261" y="643" type="curve" smooth="yes"/>
      <point x="261" y="696"/>
      <point x="219" y="730"/>
      <point x="156" y="730" type="curve" smooth="yes"/>
      <point x="94" y="730"/>
      <point x="53" y="696"/>
      <point x="53" y="644" type="curve" smooth="yes"/>
      <point x="53" y="619"/>
      <point x="63" y="607"/>
      <point x="84" y="607" type="curve" smooth="yes"/>
      <point x="102" y="607"/>
      <point x="113" y="617"/>
      <point x="113" y="635" type="curve" smooth="yes"/>
      <point x="113" y="652"/>
      <point x="102" y="662"/>
      <point x="83" y="662" type="curve"/>
      <point x="89" y="686"/>
      <point x="111" y="698"/>
      <point x="147" y="698" type="curve" smooth="yes"/>
      <point x="186" y="698"/>
      <point x="208" y="682"/>
      <point x="208" y="654" type="curve" smooth="yes"/>
      <point x="208" y="564"/>
      <point x="48" y="525"/>
      <point x="48" y="431" type="curve" smooth="yes"/>
      <point x="48" y="401" type="line"/>
      <point x="265" y="401" type="line"/>
      <point x="265" y="501" type="line"/>
      <point x="237" y="501" type="line"/>
      <point x="226" y="449" type="line"/>
    </contour>
  </outline>
</glyph>
<glyph name="threesuperior" format="1">
  <advance width="316"/>
  <unicode hex="00B3"/>
  <outline>
    <contour>
      <point x="258" y="646" type="curve" smooth="yes"/>
      <point x="258" y="696"/>
      <point x="216" y="730"/>
      <point x="154" y="730" type="curve" smooth="yes"/>
      <point x="93" y="730"/>
      <point x="52" y="698"/>
      <point x="52" y="652" type="curve" smooth="yes"/>
      <point x="52" y="627"/>
      <point x="64" y="612"/>
      <point x="85" y="612" type="curve" smooth="yes"/>
      <point x="102" y="612"/>
      <point x="114" y="623"/>
      <point x="114" y="640" type="curve" smooth="yes"/>
      <point x="114" y="657"/>
      <point x="102" y="667"/>
      <point x="84" y="667" type="curve"/>
      <point x="88" y="687"/>
      <point x="112" y="700"/>
      <point x="146" y="700" type="curve" smooth="yes"/>
      <point x="185" y="700"/>
      <point x="205" y="683"/>
      <point x="205" y="651" type="curve" smooth="yes"/>
      <point x="205" y="611"/>
      <point x="174" y="584"/>
      <point x="129" y="584" type="curve"/>
      <point x="129" y="554" type="line"/>
      <point x="177" y="554"/>
      <point x="206" y="527"/>
      <point x="206" y="484" type="curve" smooth="yes"/>
      <point x="206" y="447"/>
      <point x="185" y="429"/>
      <point x="143" y="429" type="curve" smooth="yes"/>
      <point x="108" y="429"/>
      <point x="87" y="442"/>
      <point x="82" y="465" type="curve"/>
      <point x="97" y="465"/>
      <point x="107" y="475"/>
      <point x="107" y="492" type="curve" smooth="yes"/>
      <point x="107" y="509"/>
      <point x="96" y="520"/>
      <point x="79" y="520" type="curve" smooth="yes"/>
      <point x="58" y="520"/>
      <point x="48" y="507"/>
      <point x="48" y="481" type="curve" smooth="yes"/>
      <point x="48" y="430"/>
      <point x="89" y="397"/>
      <point x="151" y="397" type="curve" smooth="yes"/>
      <point x="218" y="397"/>
      <point x="263" y="435"/>
      <point x="263" y="491" type="curve" smooth="yes"/>
      <point x="263" y="533"/>
      <point x="238" y="559"/>
      <point x="190" y="568" type="curve"/>
      <point x="190" y="572" type="line"/>
      <point x="232" y="579"/>
      <point x="258" y="606"/>
    </contour>
  </outline>
</glyph>
<glyph name="acute" format="2">
  <advance width="259"/>
  <unicode hex="00B4"/>
  <anchor x="67" y="639" name="_top"/>
  <outline>
    <contour>
      <point x="40" y="639" type="line"/>
      <point x="93" y="639" type="line"/>
      <point x="131" y="667" type="line" smooth="yes"/>
      <point x="194" y="713"/>
      <point x="219" y="740"/>
      <point x="219" y="760" type="curve" smooth="yes"/>
      <point x="219" y="784"/>
      <point x="202" y="795"/>
      <point x="174" y="795" type="curve" smooth="yes"/>
      <point x="146" y="795"/>
      <point x="127" y="775"/>
      <point x="89" y="715" type="curve" smooth="yes"/>
    </contour>
  </outline>
</glyph>
<glyph name="mu" format="2">
  <advance width="668"/>
  <unicode hex="00B5"/>
  <guideline x="0.0" y="247.0" angle="0.0" identifier="C7McPAyiQi"/>
  <outline>
    <contour>
      <point x="113" y="-179" type="line"/>
      <point x="210" y="-179" type="line"/>
      <point x="200" y="59" type="line"/>
      <point x="204" y="59" type="line"/>
      <point x="215" y="13"/>
      <point x="245" y="-10"/>
      <point x="292" y="-10" type="curve" smooth="yes"/>
      <point x="353" y="-10"/>
      <point x="412" y="30"/>
      <point x="455" y="100" type="curve"/>
      <point x="459" y="100" type="line"/>
      <point x="470" y="-10" type="line"/>
      <point x="625" y="0" type="line"/>
      <point x="625" y="41" type="line"/>
      <point x="548" y="60" type="line"/>
      <point x="548" y="540" type="line"/>
      <point x="364" y="540" type="line"/>
      <point x="364" y="499" type="line"/>
      <point x="451" y="480" type="line"/>
      <point x="451" y="213" type="line"/>
      <point x="447" y="157"/>
      <point x="434" y="124"/>
      <point x="406" y="98" type="curve" smooth="yes"/>
      <point x="380" y="75"/>
      <point x="345" y="61"/>
      <point x="310" y="61" type="curve" smooth="yes"/>
      <point x="270" y="61"/>
      <point x="241" y="78"/>
      <point x="226" y="110" type="curve" smooth="yes"/>
      <point x="214" y="134"/>
      <point x="210" y="171"/>
      <point x="210" y="257" type="curve" smooth="yes"/>
      <point x="210" y="540" type="line"/>
      <point x="46" y="540" type="line"/>
      <point x="46" y="499" type="line"/>
      <point x="113" y="480" type="line"/>
    </contour>
  </outline>
</glyph>
<glyph name="paragraph" format="2">
  <advance width="678"/>
  <unicode hex="00B6"/>
  <outline>
    <contour>
      <point x="484" y="-96" type="line"/>
      <point x="554" y="-96" type="line"/>
      <point x="554" y="606" type="line"/>
      <point x="638" y="627" type="line"/>
      <point x="638" y="670" type="line"/>
      <point x="277" y="670" type="line" smooth="yes"/>
      <point x="119" y="670"/>
      <point x="31" y="585"/>
      <point x="31" y="432" type="curve" smooth="yes"/>
      <point x="31" y="282"/>
      <point x="116" y="203"/>
      <point x="278" y="203" type="curve" smooth="yes"/>
      <point x="344" y="203" type="line"/>
      <point x="344" y="-96" type="line"/>
      <point x="414" y="-96" type="line"/>
      <point x="414" y="606" type="line"/>
      <point x="484" y="606" type="line"/>
    </contour>
  </outline>
</glyph>
<glyph name="cedilla" format="2">
  <advance width="254"/>
  <unicode hex="00B8"/>
  <anchor x="139" y="0" name="_bottom"/>
  <outline>
    <contour>
      <point x="116" y="-210" type="curve" smooth="yes"/>
      <point x="178" y="-210"/>
      <point x="229" y="-180"/>
      <point x="229" y="-126" type="curve" smooth="yes"/>
      <point x="229" y="-84"/>
      <point x="199" y="-62"/>
      <point x="125" y="-62" type="curve"/>
      <point x="124" y="-59" type="line"/>
      <point x="170" y="17" type="line"/>
      <point x="126" y="17" type="line"/>
      <point x="49" y="-83" type="line"/>
      <point x="62" y="-105" type="line"/>
      <point x="76" y="-101"/>
      <point x="89" y="-99"/>
      <point x="104" y="-99" type="curve" smooth="yes"/>
      <point x="139" y="-99"/>
      <point x="158" y="-109"/>
      <point x="158" y="-129" type="curve" smooth="yes"/>
      <point x="158" y="-150"/>
      <point x="139" y="-165"/>
      <point x="111" y="-165" type="curve" smooth="yes"/>
      <point x="91" y="-165"/>
      <point x="71" y="-158"/>
      <point x="52" y="-145" type="curve"/>
      <point x="25" y="-182" type="line"/>
      <point x="51" y="-201"/>
      <point x="82" y="-210"/>
    </contour>
  </outline>
</glyph>
<glyph name="onesuperior" format="1">
  <advance width="297"/>
  <unicode hex="00B9"/>
  <outline>
    <contour>
      <point x="128" y="427" type="line"/>
      <point x="68" y="418" type="line"/>
      <point x="68" y="392" type="line"/>
      <point x="228" y="392" type="line"/>
      <point x="228" y="418" type="line"/>
      <point x="180" y="427" type="line"/>
      <point x="180" y="720" type="line"/>
      <point x="141" y="720" type="line"/>
      <point x="131" y="707"/>
      <point x="89" y="700"/>
      <point x="68" y="700" type="curve"/>
      <point x="68" y="669" type="line"/>
      <point x="128" y="669" type="line"/>
    </contour>
  </outline>
</glyph>
<glyph name="ordmasculine" format="2">
  <advance width="369"/>
  <unicode hex="00BA"/>
  <outline>
    <contour>
      <point x="320" y="579" type="curve" smooth="yes"/>
      <point x="320" y="625"/>
      <point x="306" y="668"/>
      <point x="281" y="695" type="curve" smooth="yes"/>
      <point x="259" y="718"/>
      <point x="226" y="730"/>
      <point x="186" y="730" type="curve" smooth="yes"/>
      <point x="144" y="730"/>
      <point x="113" y="718"/>
      <point x="91" y="694" type="curve" smooth="yes"/>
      <point x="65" y="666"/>
      <point x="50" y="620"/>
      <point x="50" y="572" type="curve" smooth="yes"/>
      <point x="50" y="526"/>
      <point x="64" y="484"/>
      <point x="89" y="457" type="curve" smooth="yes"/>
      <point x="110" y="434"/>
      <point x="142" y="422"/>
      <point x="183" y="422" type="curve" smooth="yes"/>
      <point x="225" y="422"/>
      <point x="257" y="434"/>
      <point x="279" y="458" type="curve" smooth="yes"/>
      <point x="305" y="486"/>
      <point x="320" y="532"/>
    </contour>
    <contour>
      <point x="114" y="578" type="curve" smooth="yes"/>
      <point x="114" y="618"/>
      <point x="121" y="650"/>
      <point x="134" y="671" type="curve" smooth="yes"/>
      <point x="145" y="688"/>
      <point x="161" y="696"/>
      <point x="184" y="696" type="curve" smooth="yes"/>
      <point x="208" y="696"/>
      <point x="224" y="687"/>
      <point x="236" y="667" type="curve" smooth="yes"/>
      <point x="249" y="645"/>
      <point x="256" y="612"/>
      <point x="256" y="574" type="curve" smooth="yes"/>
      <point x="256" y="530"/>
      <point x="250" y="498"/>
      <point x="237" y="481" type="curve" smooth="yes"/>
      <point x="225" y="465"/>
      <point x="207" y="456"/>
      <point x="185" y="456" type="curve" smooth="yes"/>
      <point x="160" y="456"/>
      <point x="145" y="465"/>
      <point x="134" y="485" type="curve" smooth="yes"/>
      <point x="121" y="507"/>
      <point x="114" y="539"/>
    </contour>
  </outline>
</glyph>
<glyph name="AE" format="1">
  <advance width="1057"/>
  <unicode hex="00C6"/>
  <outline>
    <contour>
      <point x="844" y="238" type="line"/>
      <point x="844" y="502" type="line"/>
      <point x="793" y="502" type="line"/>
      <point x="775" y="400" type="line"/>
      <point x="609" y="400" type="line"/>
      <point x="609" y="662" type="line"/>
      <point x="894" y="662" type="line"/>
      <point x="926" y="508" type="line"/>
      <point x="978" y="508" type="line"/>
      <point x="978" y="720" type="line"/>
      <point x="338" y="720" type="line"/>
      <point x="338" y="677" type="line"/>
      <point x="422" y="666" type="line"/>
      <point x="85" y="64" type="line"/>
      <point x="-9" y="43" type="line"/>
      <point x="-9" y="0" type="line"/>
      <point x="238" y="0" type="line"/>
      <point x="238" y="43" type="line"/>
      <point x="159" y="64" type="line"/>
      <point x="257" y="242" type="line"/>
      <point x="509" y="242" type="line"/>
      <point x="509" y="64" type="line"/>
      <point x="415" y="43" type="line"/>
      <point x="415" y="0" type="line"/>
      <point x="1000" y="0" type="line"/>
      <point x="1000" y="223" type="line"/>
      <point x="942" y="223" type="line"/>
      <point x="911" y="60" type="line"/>
      <point x="609" y="60" type="line"/>
      <point x="609" y="340" type="line"/>
      <point x="775" y="340" type="line"/>
      <point x="793" y="238" type="line"/>
    </contour>
    <contour>
      <point x="509" y="656" type="line"/>
      <point x="509" y="300" type="line"/>
      <point x="289" y="300" type="line"/>
      <point x="486" y="659" type="line"/>
    </contour>
  </outline>
</glyph>
<glyph name="Eth" format="1">
  <advance width="771"/>
  <unicode hex="00D0"/>
  <outline>
    <contour>
      <point x="53" y="330" type="line"/>
      <point x="137" y="330" type="line"/>
      <point x="137" y="64" type="line"/>
      <point x="53" y="43" type="line"/>
      <point x="53" y="0" type="line"/>
      <point x="380" y="0" type="line" smooth="yes"/>
      <point x="486" y="0"/>
      <point x="562" y="28"/>
      <point x="618" y="87" type="curve" smooth="yes"/>
      <point x="681" y="153"/>
      <point x="718" y="256"/>
      <point x="718" y="368" type="curve" smooth="yes"/>
      <point x="718" y="474"/>
      <point x="683" y="572"/>
      <point x="621" y="636" type="curve" smooth="yes"/>
      <point x="565" y="693"/>
      <point x="490" y="720"/>
      <point x="389" y="720" type="curve" smooth="yes"/>
      <point x="53" y="720" type="line"/>
      <point x="53" y="677" type="line"/>
      <point x="137" y="656" type="line"/>
      <point x="137" y="397" type="line"/>
      <point x="53" y="397" type="line"/>
    </contour>
    <contour>
      <point x="237" y="60" type="line"/>
      <point x="237" y="330" type="line"/>
      <point x="364" y="330" type="line"/>
      <point x="364" y="397" type="line"/>
      <point x="237" y="397" type="line"/>
      <point x="237" y="660" type="line"/>
      <point x="382" y="660" type="line" smooth="yes"/>
      <point x="459" y="660"/>
      <point x="513" y="636"/>
      <point x="548" y="586" type="curve" smooth="yes"/>
      <point x="585" y="535"/>
      <point x="603" y="457"/>
      <point x="603" y="354" type="curve" smooth="yes"/>
      <point x="603" y="249"/>
      <point x="585" y="173"/>
      <point x="548" y="126" type="curve" smooth="yes"/>
      <point x="514" y="81"/>
      <point x="464" y="60"/>
      <point x="392" y="60" type="curve" smooth="yes"/>
    </contour>
  </outline>
</glyph>
<glyph name="multiply" format="2">
  <advance width="506"/>
  <unicode hex="00D7"/>
  <outline>
    <contour>
      <point x="60" y="497" type="line"/>
      <point x="205" y="352" type="line"/>
      <point x="60" y="207" type="line"/>
      <point x="108" y="159" type="line"/>
      <point x="253" y="304" type="line"/>
      <point x="398" y="159" type="line"/>
      <point x="446" y="207" type="line"/>
      <point x="301" y="352" type="line"/>
      <point x="446" y="497" type="line"/>
      <point x="398" y="545" type="line"/>
      <point x="253" y="400" type="line"/>
      <point x="108" y="545" type="line"/>
    </contour>
  </outline>
</glyph>
<glyph name="Oslash" format="1">
  <advance width="761"/>
  <unicode hex="00D8"/>
  <outline>
    <contour>
      <point x="71" y="-10" type="line"/>
      <point x="142" y="-10" type="line"/>
      <point x="668" y="730" type="line"/>
      <point x="597" y="730" type="line"/>
    </contour>
    <component base="O" xOffset="-2"/>
  </outline>
</glyph>
<glyph name="Thorn" format="2">
  <advance width="643"/>
  <unicode hex="00DE"/>
  <outline>
    <contour>
      <point x="386" y="148" type="line" smooth="yes"/>
      <point x="461" y="148"/>
      <point x="518" y="176"/>
      <point x="556" y="219" type="curve" smooth="yes"/>
      <point x="590" y="258"/>
      <point x="608" y="310"/>
      <point x="608" y="366" type="curve" smooth="yes"/>
      <point x="608" y="419"/>
      <point x="590" y="470"/>
      <point x="556" y="508" type="curve" smooth="yes"/>
      <point x="519" y="549"/>
      <point x="462" y="575"/>
      <point x="387" y="575" type="curve" smooth="yes"/>
      <point x="235" y="575" type="line"/>
      <point x="235" y="656" type="line"/>
      <point x="319" y="677" type="line"/>
      <point x="319" y="720" type="line"/>
      <point x="40" y="720" type="line"/>
      <point x="40" y="677" type="line"/>
      <point x="135" y="656" type="line"/>
      <point x="135" y="64" type="line"/>
      <point x="51" y="43" type="line"/>
      <point x="51" y="0" type="line"/>
      <point x="330" y="0" type="line"/>
      <point x="330" y="43" type="line"/>
      <point x="235" y="64" type="line"/>
      <point x="235" y="148" type="line"/>
    </contour>
    <contour>
      <point x="235" y="206" type="line"/>
      <point x="235" y="517" type="line"/>
      <point x="360" y="517" type="line" smooth="yes"/>
      <point x="406" y="517"/>
      <point x="441" y="498"/>
      <point x="464" y="469" type="curve" smooth="yes"/>
      <point x="486" y="441"/>
      <point x="498" y="402"/>
      <point x="498" y="360" type="curve" smooth="yes"/>
      <point x="498" y="317"/>
      <point x="489" y="280"/>
      <point x="469" y="253" type="curve" smooth="yes"/>
      <point x="447" y="223"/>
      <point x="412" y="206"/>
      <point x="364" y="206" type="curve" smooth="yes"/>
    </contour>
  </outline>
</glyph>
<glyph name="Thorn" format="1">
  <advance width="643"/>
  <unicode hex="00DE"/>
  <outline>
    <contour>
      <point x="386" y="148" type="line" smooth="yes"/>
      <point x="529" y="148"/>
      <point x="608" y="249"/>
      <point x="608" y="366" type="curve" smooth="yes"/>
      <point x="608" y="476"/>
      <point x="533" y="575"/>
      <point x="387" y="575" type="curve" smooth="yes"/>
      <point x="235" y="575" type="line"/>
      <point x="235" y="656" type="line"/>
      <point x="319" y="677" type="line"/>
      <point x="319" y="720" type="line"/>
      <point x="40" y="720" type="line"/>
      <point x="40" y="677" type="line"/>
      <point x="135" y="656" type="line"/>
      <point x="135" y="64" type="line"/>
      <point x="51" y="43" type="line"/>
      <point x="51" y="0" type="line"/>
      <point x="330" y="0" type="line"/>
      <point x="330" y="43" type="line"/>
      <point x="235" y="64" type="line"/>
      <point x="235" y="148" type="line"/>
    </contour>
    <contour>
      <point x="235" y="206" type="line"/>
      <point x="235" y="517" type="line"/>
      <point x="360" y="517" type="line" smooth="yes"/>
      <point x="451" y="517"/>
      <point x="498" y="444"/>
      <point x="498" y="360" type="curve" smooth="yes"/>
      <point x="498" y="270"/>
      <point x="457" y="206"/>
      <point x="364" y="206" type="curve" smooth="yes"/>
    </contour>
  </outline>
</glyph>
<glyph name="germandbls" format="1">
  <advance width="630"/>
  <unicode hex="00DF"/>
  <outline>
    <contour>
      <point x="353" y="424" type="curve" smooth="yes"/>
      <point x="353" y="393"/>
      <point x="370" y="377"/>
      <point x="449" y="337" type="curve" smooth="yes"/>
      <point x="575" y="273"/>
      <point x="605" y="237"/>
      <point x="605" y="167" type="curve" smooth="yes"/>
      <point x="605" y="63"/>
      <point x="529" y="-10"/>
      <point x="420" y="-10" type="curve" smooth="yes"/>
      <point x="328" y="-10"/>
      <point x="261" y="43"/>
      <point x="261" y="116" type="curve" smooth="yes"/>
      <point x="261" y="157"/>
      <point x="282" y="182"/>
      <point x="317" y="182" type="curve" smooth="yes"/>
      <point x="350" y="182"/>
      <point x="374" y="160"/>
      <point x="374" y="131" type="curve" smooth="yes"/>
      <point x="374" y="107"/>
      <point x="358" y="80"/>
      <point x="338" y="70" type="curve"/>
      <point x="350" y="50"/>
      <point x="384" y="36"/>
      <point x="422" y="36" type="curve" smooth="yes"/>
      <point x="482" y="36"/>
      <point x="518" y="70"/>
      <point x="518" y="129" type="curve" smooth="yes"/>
      <point x="518" y="175"/>
      <point x="502" y="192"/>
      <point x="406" y="250" type="curve" smooth="yes"/>
      <point x="296" y="315"/>
      <point x="271" y="343"/>
      <point x="271" y="401" type="curve" smooth="yes"/>
      <point x="271" y="449"/>
      <point x="287" y="471"/>
      <point x="363" y="527" type="curve" smooth="yes"/>
      <point x="407" y="560"/>
      <point x="424" y="591"/>
      <point x="424" y="639" type="curve" smooth="yes"/>
      <point x="424" y="710"/>
      <point x="385" y="750"/>
      <point x="317" y="750" type="curve" smooth="yes"/>
      <point x="238" y="750"/>
      <point x="199" y="697"/>
      <point x="199" y="590" type="curve" smooth="yes"/>
      <point x="199" y="0" type="line"/>
      <point x="25" y="0" type="line"/>
      <point x="25" y="41" type="line"/>
      <point x="102" y="60" type="line"/>
      <point x="102" y="550" type="line" smooth="yes"/>
      <point x="102" y="699"/>
      <point x="187" y="790"/>
      <point x="327" y="790" type="curve" smooth="yes"/>
      <point x="439" y="790"/>
      <point x="509" y="731"/>
      <point x="509" y="638" type="curve" smooth="yes"/>
      <point x="509" y="585"/>
      <point x="488" y="552"/>
      <point x="432" y="517" type="curve" smooth="yes"/>
      <point x="373" y="479"/>
      <point x="353" y="455"/>
    </contour>
  </outline>
</glyph>
<glyph name="ae" format="2">
  <advance width="836"/>
  <unicode hex="00E6"/>
  <anchor x="408" y="639" name="top"/>
  <outline>
    <contour>
      <point x="38" y="117" type="curve" smooth="yes"/>
      <point x="38" y="38"/>
      <point x="89" y="-10"/>
      <point x="173" y="-10" type="curve" smooth="yes"/>
      <point x="251" y="-10"/>
      <point x="324" y="31"/>
      <point x="365" y="99" type="curve"/>
      <point x="372" y="99" type="line"/>
      <point x="410" y="27"/>
      <point x="482" y="-10"/>
      <point x="571" y="-10" type="curve" smooth="yes"/>
      <point x="676" y="-10"/>
      <point x="738" y="42"/>
      <point x="785" y="106" type="curve"/>
      <point x="753" y="130" type="line"/>
      <point x="712" y="85"/>
      <point x="660" y="57"/>
      <point x="597" y="57" type="curve" smooth="yes"/>
      <point x="539" y="57"/>
      <point x="486" y="81"/>
      <point x="460" y="143" type="curve" smooth="yes"/>
      <point x="447" y="174"/>
      <point x="440" y="214"/>
      <point x="440" y="264" type="curve"/>
      <point x="789" y="264" type="line"/>
      <point x="792" y="290"/>
      <point x="792" y="298"/>
      <point x="792" y="311" type="curve" smooth="yes"/>
      <point x="792" y="460"/>
      <point x="715" y="550"/>
      <point x="579" y="550" type="curve" smooth="yes"/>
      <point x="503" y="550"/>
      <point x="437" y="515"/>
      <point x="410" y="447" type="curve"/>
      <point x="405" y="447" type="line"/>
      <point x="386" y="516"/>
      <point x="323" y="550"/>
      <point x="257" y="550" type="curve" smooth="yes"/>
      <point x="166" y="550"/>
      <point x="65" y="503"/>
      <point x="65" y="420" type="curve" smooth="yes"/>
      <point x="65" y="381"/>
      <point x="88" y="359"/>
      <point x="120" y="359" type="curve" smooth="yes"/>
      <point x="152" y="359"/>
      <point x="177" y="380"/>
      <point x="177" y="413" type="curve" smooth="yes"/>
      <point x="177" y="432"/>
      <point x="168" y="455"/>
      <point x="150" y="469" type="curve"/>
      <point x="160" y="491"/>
      <point x="194" y="506"/>
      <point x="231" y="506" type="curve" smooth="yes"/>
      <point x="270" y="506"/>
      <point x="305" y="489"/>
      <point x="324" y="455" type="curve" smooth="yes"/>
      <point x="339" y="428"/>
      <point x="347" y="388"/>
      <point x="353" y="310" type="curve"/>
      <point x="128" y="276"/>
      <point x="38" y="221"/>
    </contour>
    <contour>
      <point x="573" y="496" type="curve" smooth="yes"/>
      <point x="649" y="496"/>
      <point x="691" y="442"/>
      <point x="691" y="346" type="curve" smooth="yes"/>
      <point x="691" y="313" type="line"/>
      <point x="441" y="313" type="line"/>
      <point x="449" y="434"/>
      <point x="493" y="496"/>
    </contour>
    <contour>
      <point x="215" y="48" type="curve" smooth="yes"/>
      <point x="168" y="48"/>
      <point x="141" y="81"/>
      <point x="141" y="138" type="curve" smooth="yes"/>
      <point x="141" y="214"/>
      <point x="190" y="247"/>
      <point x="352" y="280" type="curve"/>
      <point x="354" y="260"/>
      <point x="356" y="237"/>
      <point x="356" y="215" type="curve" smooth="yes"/>
      <point x="356" y="165"/>
      <point x="346" y="129"/>
      <point x="325" y="103" type="curve" smooth="yes"/>
      <point x="297" y="68"/>
      <point x="252" y="48"/>
    </contour>
  </outline>
</glyph>
<glyph name="eth" format="1">
  <advance width="569"/>
  <unicode hex="00F0"/>
  <outline>
    <contour>
      <point x="139" y="210" type="curve" smooth="yes"/>
      <point x="139" y="101"/>
      <point x="184" y="45"/>
      <point x="272" y="45" type="curve" smooth="yes"/>
      <point x="360" y="45"/>
      <point x="405" y="101"/>
      <point x="405" y="210" type="curve" smooth="yes"/>
      <point x="405" y="318"/>
      <point x="360" y="373"/>
      <point x="272" y="373" type="curve" smooth="yes"/>
      <point x="184" y="373"/>
      <point x="139" y="318"/>
    </contour>
    <contour>
      <point x="426" y="351" type="line"/>
      <point x="421" y="442"/>
      <point x="385" y="530"/>
      <point x="332" y="593" type="curve"/>
      <point x="199" y="535" type="line"/>
      <point x="176" y="586" type="line"/>
      <point x="297" y="639" type="line"/>
      <point x="279" y="661"/>
      <point x="254" y="689"/>
      <point x="230" y="711" type="curve"/>
      <point x="282" y="730" type="line"/>
      <point x="299" y="718"/>
      <point x="318" y="699"/>
      <point x="353" y="663" type="curve"/>
      <point x="442" y="702" type="line"/>
      <point x="467" y="654" type="line"/>
      <point x="392" y="621" type="line"/>
      <point x="485" y="506"/>
      <point x="521" y="414"/>
      <point x="521" y="294" type="curve" smooth="yes"/>
      <point x="521" y="99"/>
      <point x="431" y="-10"/>
      <point x="268" y="-10" type="curve" smooth="yes"/>
      <point x="123" y="-10"/>
      <point x="32" y="76"/>
      <point x="32" y="211" type="curve" smooth="yes"/>
      <point x="32" y="342"/>
      <point x="118" y="430"/>
      <point x="245" y="430" type="curve" smooth="yes"/>
      <point x="318" y="430"/>
      <point x="385" y="400"/>
      <point x="422" y="351" type="curve"/>
    </contour>
  </outline>
</glyph>
<glyph name="divide" format="1">
  <advance width="555"/>
  <unicode hex="00F7"/>
  <outline>
    <contour>
      <point x="59" y="325" type="line"/>
      <point x="497" y="325" type="line"/>
      <point x="497" y="379" type="line"/>
      <point x="59" y="379" type="line"/>
    </contour>
    <contour>
      <point x="222" y="174" type="curve" smooth="yes"/>
      <point x="222" y="136"/>
      <point x="243" y="115"/>
      <point x="281" y="115" type="curve" smooth="yes"/>
      <point x="318" y="115"/>
      <point x="341" y="137"/>
      <point x="341" y="174" type="curve" smooth="yes"/>
      <point x="341" y="211"/>
      <point x="318" y="235"/>
      <point x="281" y="235" type="curve" smooth="yes"/>
      <point x="244" y="235"/>
      <point x="222" y="212"/>
    </contour>
    <contour>
      <point x="222" y="528" type="curve" smooth="yes"/>
      <point x="222" y="490"/>
      <point x="243" y="469"/>
      <point x="281" y="469" type="curve" smooth="yes"/>
      <point x="318" y="469"/>
      <point x="341" y="491"/>
      <point x="341" y="528" type="curve" smooth="yes"/>
      <point x="341" y="565"/>
      <point x="318" y="589"/>
      <point x="281" y="589" type="curve" smooth="yes"/>
      <point x="244" y="589"/>
      <point x="222" y="566"/>
    </contour>
  </outline>
</glyph>
<glyph name="oslash" format="2">
  <advance width="582"/>
  <unicode hex="00F8"/>
  <outline>
    <contour>
      <point x="96" y="-60" type="line"/>
      <point x="160" y="-60" type="line"/>
      <point x="494" y="582" type="line"/>
      <point x="430" y="582" type="line"/>
    </contour>
    <component base="o"/>
  </outline>
</glyph>
<glyph name="thorn" format="1">
  <advance width="600"/>
  <unicode hex="00FE"/>
  <outline>
    <contour>
      <point x="554" y="275" type="curve" smooth="yes"/>
      <point x="554" y="360"/>
      <point x="531" y="436"/>
      <point x="490" y="487" type="curve" smooth="yes"/>
      <point x="456" y="529"/>
      <point x="402" y="550"/>
      <point x="330" y="550" type="curve" smooth="yes"/>
      <point x="263" y="550"/>
      <point x="217" y="529"/>
      <point x="180" y="482" type="curve"/>
      <point x="180" y="780" type="line"/>
      <point x="6" y="780" type="line"/>
      <point x="6" y="739" type="line"/>
      <point x="83" y="720" type="line"/>
      <point x="83" y="-120" type="line"/>
      <point x="6" y="-139" type="line"/>
      <point x="6" y="-180" type="line"/>
      <point x="277" y="-180" type="line"/>
      <point x="277" y="-139" type="line"/>
      <point x="180" y="-120" type="line"/>
      <point x="180" y="75" type="line"/>
      <point x="214" y="23"/>
      <point x="259" y="0"/>
      <point x="322" y="0" type="curve" smooth="yes"/>
      <point x="392" y="0"/>
      <point x="446" y="22"/>
      <point x="483" y="65" type="curve" smooth="yes"/>
      <point x="527" y="115"/>
      <point x="554" y="196"/>
    </contour>
    <contour>
      <point x="180" y="274" type="curve" smooth="yes"/>
      <point x="180" y="352"/>
      <point x="192" y="413"/>
      <point x="215" y="452" type="curve" smooth="yes"/>
      <point x="232" y="482"/>
      <point x="266" y="498"/>
      <point x="314" y="498" type="curve" smooth="yes"/>
      <point x="360" y="498"/>
      <point x="392" y="482"/>
      <point x="415" y="445" type="curve" smooth="yes"/>
      <point x="439" y="407"/>
      <point x="449" y="347"/>
      <point x="449" y="267" type="curve" smooth="yes"/>
      <point x="449" y="190"/>
      <point x="437" y="129"/>
      <point x="416" y="99" type="curve" smooth="yes"/>
      <point x="395" y="68"/>
      <point x="359" y="52"/>
      <point x="315" y="52" type="curve" smooth="yes"/>
      <point x="268" y="52"/>
      <point x="237" y="68"/>
      <point x="215" y="105" type="curve" smooth="yes"/>
      <point x="191" y="144"/>
      <point x="180" y="196"/>
    </contour>
  </outline>
</glyph>
<glyph name="Dcroat" format="2">
  <advance width="771"/>
  <unicode hex="0110"/>
  <outline>
    <contour>
      <point x="53" y="332" type="line"/>
      <point x="382" y="332" type="line"/>
      <point x="382" y="397" type="line"/>
      <point x="53" y="397" type="line"/>
    </contour>
    <component base="D" xOffset="5"/>
  </outline>
</glyph>
<glyph name="dcroat" format="1">
  <advance width="620"/>
  <unicode hex="0111"/>
  <outline>
    <contour>
      <point x="314" y="610" type="line"/>
      <point x="595" y="610" type="line"/>
      <point x="595" y="672" type="line"/>
      <point x="314" y="672" type="line"/>
    </contour>
    <component base="d"/>
  </outline>
</glyph>
<glyph name="Hbar" format="2">
  <advance width="813"/>
  <unicode hex="0126"/>
  <outline>
    <contour>
      <point x="54" y="496" type="line"/>
      <point x="760" y="496" type="line"/>
      <point x="760" y="561" type="line"/>
      <point x="54" y="561" type="line"/>
    </contour>
    <component base="H" xOffset="5"/>
  </outline>
</glyph>
<glyph name="hbar" format="2">
  <advance width="644"/>
  <unicode hex="0127"/>
  <outline>
    <contour>
      <point x="24" y="610" type="line"/>
      <point x="305" y="610" type="line"/>
      <point x="305" y="672" type="line"/>
      <point x="24" y="672" type="line"/>
    </contour>
    <component base="h"/>
  </outline>
</glyph>
<glyph name="dotlessi" format="1">
  <advance width="312"/>
  <unicode hex="0131"/>
  <outline>
    <contour>
      <point x="113" y="480" type="line"/>
      <point x="113" y="60" type="line"/>
      <point x="36" y="41" type="line"/>
      <point x="36" y="0" type="line"/>
      <point x="287" y="0" type="line"/>
      <point x="287" y="41" type="line"/>
      <point x="210" y="60" type="line"/>
      <point x="210" y="540" type="line"/>
      <point x="36" y="540" type="line"/>
      <point x="36" y="499" type="line"/>
    </contour>
    <contour>
      <point x="163" y="0" type="move" name="bottom"/>
    </contour>
    <contour>
      <point x="161" y="639" type="move" name="top"/>
    </contour>
  </outline>
</glyph>
<glyph name="kgreenlandic" format="2">
  <advance width="607"/>
  <unicode hex="0138"/>
  <outline>
    <contour>
      <point x="381" y="41" type="line"/>
      <point x="381" y="0" type="line"/>
      <point x="600" y="0" type="line"/>
      <point x="600" y="41" type="line"/>
      <point x="547" y="58" type="line"/>
      <point x="348" y="325" type="line"/>
      <point x="499" y="480" type="line"/>
      <point x="572" y="499" type="line"/>
      <point x="572" y="540" type="line"/>
      <point x="357" y="540" type="line"/>
      <point x="357" y="499" type="line"/>
      <point x="423" y="480" type="line"/>
      <point x="210" y="251" type="line"/>
      <point x="210" y="540" type="line"/>
      <point x="36" y="540" type="line"/>
      <point x="36" y="499" type="line"/>
      <point x="113" y="480" type="line"/>
      <point x="113" y="60" type="line"/>
      <point x="36" y="41" type="line"/>
      <point x="36" y="0" type="line"/>
      <point x="287" y="0" type="line"/>
      <point x="287" y="41" type="line"/>
      <point x="210" y="60" type="line"/>
      <point x="210" y="204" type="line"/>
      <point x="286" y="268" type="line"/>
      <point x="440" y="60" type="line"/>
    </contour>
  </outline>
</glyph>
<glyph name="lacute" format="1">
  <advance width="308"/>
  <unicode hex="013A"/>
  <outline>
    <contour>
      <point x="117" y="770" type="line"/>
      <point x="170" y="770" type="line"/>
      <point x="217" y="799" type="line" smooth="yes"/>
      <point x="268" y="830"/>
      <point x="290" y="844"/>
      <point x="290" y="865" type="curve" smooth="yes"/>
      <point x="290" y="884"/>
      <point x="276" y="895"/>
      <point x="253" y="895" type="curve" smooth="yes"/>
      <point x="228" y="895"/>
      <point x="206" y="883"/>
      <point x="178" y="847" type="curve" smooth="yes"/>
    </contour>
    <contour>
      <point x="105" y="60" type="line"/>
      <point x="28" y="41" type="line"/>
      <point x="28" y="0" type="line"/>
      <point x="279" y="0" type="line"/>
      <point x="279" y="41" type="line"/>
      <point x="202" y="60" type="line"/>
      <point x="202" y="720" type="line"/>
      <point x="28" y="720" type="line"/>
      <point x="28" y="679" type="line"/>
      <point x="105" y="660" type="line"/>
    </contour>
  </outline>
</glyph>
<glyph name="Lslash" format="2">
  <advance width="629"/>
  <unicode hex="0141"/>
  <outline>
    <contour>
      <point x="57" y="259" type="line"/>
      <point x="345" y="428" type="line"/>
      <point x="345" y="497" type="line"/>
      <point x="57" y="327" type="line"/>
    </contour>
    <component base="L"/>
  </outline>
</glyph>
<glyph name="lslash" format="1">
  <advance width="314"/>
  <unicode hex="0142"/>
  <outline>
    <contour>
      <point x="25" y="289" type="line"/>
      <point x="293" y="458" type="line"/>
      <point x="293" y="527" type="line"/>
      <point x="25" y="357" type="line"/>
    </contour>
    <component base="l" xOffset="3"/>
  </outline>
</glyph>
<glyph name="Eng" format="2">
  <advance width="801"/>
  <unicode hex="014A"/>
  <outline>
    <contour>
      <point x="132" y="64" type="line"/>
      <point x="48" y="43" type="line"/>
      <point x="48" y="0" type="line"/>
      <point x="281" y="0" type="line"/>
      <point x="281" y="43" type="line"/>
      <point x="197" y="64" type="line"/>
      <point x="197" y="599" type="line"/>
      <point x="612" y="-7" type="line"/>
      <point x="612" y="-24" type="line" smooth="yes"/>
      <point x="612" y="-111"/>
      <point x="579" y="-153"/>
      <point x="530" y="-153" type="curve" smooth="yes"/>
      <point x="502" y="-153"/>
      <point x="482" y="-147"/>
      <point x="480" y="-138" type="curve"/>
      <point x="491" y="-127"/>
      <point x="496" y="-112"/>
      <point x="496" y="-93" type="curve" smooth="yes"/>
      <point x="496" y="-58"/>
      <point x="478" y="-38"/>
      <point x="447" y="-38" type="curve" smooth="yes"/>
      <point x="415" y="-38"/>
      <point x="394" y="-60"/>
      <point x="394" y="-95" type="curve" smooth="yes"/>
      <point x="394" y="-150"/>
      <point x="459" y="-190"/>
      <point x="530" y="-190" type="curve" smooth="yes"/>
      <point x="593" y="-190"/>
      <point x="631" y="-158"/>
      <point x="656" y="-101" type="curve" smooth="yes"/>
      <point x="672" y="-65"/>
      <point x="678" y="-14"/>
      <point x="678" y="85" type="curve" smooth="yes"/>
      <point x="678" y="656" type="line"/>
      <point x="762" y="677" type="line"/>
      <point x="762" y="720" type="line"/>
      <point x="529" y="720" type="line"/>
      <point x="529" y="677" type="line"/>
      <point x="612" y="656" type="line"/>
      <point x="612" y="167" type="line"/>
      <point x="239" y="720" type="line"/>
      <point x="48" y="720" type="line"/>
      <point x="48" y="677" type="line"/>
      <point x="132" y="656" type="line"/>
    </contour>
  </outline>
</glyph>
<glyph name="eng" format="2">
  <advance width="629"/>
  <unicode hex="014B"/>
  <outline>
    <contour>
      <point x="459" y="-24" type="line" smooth="yes"/>
      <point x="459" y="-121"/>
      <point x="444" y="-153"/>
      <point x="397" y="-153" type="curve" smooth="yes"/>
      <point x="376" y="-153"/>
      <point x="360" y="-147"/>
      <point x="358" y="-138" type="curve"/>
      <point x="369" y="-127"/>
      <point x="374" y="-112"/>
      <point x="374" y="-93" type="curve" smooth="yes"/>
      <point x="374" y="-58"/>
      <point x="356" y="-38"/>
      <point x="325" y="-38" type="curve" smooth="yes"/>
      <point x="293" y="-38"/>
      <point x="272" y="-60"/>
      <point x="272" y="-95" type="curve" smooth="yes"/>
      <point x="272" y="-150"/>
      <point x="324" y="-190"/>
      <point x="395" y="-190" type="curve" smooth="yes"/>
      <point x="458" y="-190"/>
      <point x="509" y="-158"/>
      <point x="534" y="-101" type="curve" smooth="yes"/>
      <point x="550" y="-65"/>
      <point x="556" y="-14"/>
      <point x="556" y="85" type="curve" smooth="yes"/>
      <point x="556" y="281" type="line" smooth="yes"/>
      <point x="556" y="395"/>
      <point x="545" y="459"/>
      <point x="519" y="496" type="curve" smooth="yes"/>
      <point x="494" y="530"/>
      <point x="449" y="550"/>
      <point x="396" y="550" type="curve" smooth="yes"/>
      <point x="318" y="550"/>
      <point x="246" y="508"/>
      <point x="206" y="440" type="curve"/>
      <point x="202" y="440" type="line"/>
      <point x="180" y="540" type="line"/>
      <point x="36" y="540" type="line"/>
      <point x="36" y="499" type="line"/>
      <point x="113" y="480" type="line"/>
      <point x="113" y="60" type="line"/>
      <point x="36" y="41" type="line"/>
      <point x="36" y="0" type="line"/>
      <point x="277" y="0" type="line"/>
      <point x="277" y="41" type="line"/>
      <point x="210" y="60" type="line"/>
      <point x="210" y="327" type="line"/>
      <point x="213" y="382"/>
      <point x="226" y="416"/>
      <point x="255" y="442" type="curve" smooth="yes"/>
      <point x="281" y="465"/>
      <point x="318" y="479"/>
      <point x="355" y="479" type="curve" smooth="yes"/>
      <point x="396" y="479"/>
      <point x="427" y="462"/>
      <point x="443" y="430" type="curve" smooth="yes"/>
      <point x="455" y="406"/>
      <point x="459" y="369"/>
      <point x="459" y="283" type="curve" smooth="yes"/>
    </contour>
  </outline>
</glyph>
